  0
SECTION
  2
HEADER
  9
$ACADVER
  1
AC1024
  9
$ACADMAINTVER
 70
6
  9
$DWGCODEPAGE
  3
ANSI_1252
  9
$LASTSAVEDBY
  1
ezdxf
  9
$INSBASE
 10
0.0
 20
0.0
 30
0.0
  9
$EXTMIN
 10
1e+20
 20
1e+20
 30
1e+20
  9
$EXTMAX
 10
-1e+20
 20
-1e+20
 30
-1e+20
  9
$LIMMIN
 10
0.0
 20
0.0
  9
$LIMMAX
 10
420.0
 20
297.0
  9
$ORTHOMODE
 70
0
  9
$REGENMODE
 70
1
  9
$FILLMODE
 70
1
  9
$QTEXTMODE
 70
0
  9
$MIRRTEXT
 70
1
  9
$LTSCALE
 40
0.25
  9
$ATTMODE
 70
1
  9
$TEXTSIZE
 40
2.5
  9
$TRACEWID
 40
1.0
  9
$TEXTSTYLE
  7
OpenSans
  9
$CLAYER
  8
0
  9
$CELTYPE
  6
ByLayer
  9
$CECOLOR
 62
256
  9
$CELTSCALE
 40
1.0
  9
$DISPSILH
 70
0
  9
$DIMSCALE
 40
1.0
  9
$DIMASZ
 40
0.175
  9
$DIMEXO
 40
0.125
  9
$DIMDLI
 40
3.75
  9
$DIMRND
 40
0.0
  9
$DIMDLE
 40
0.0
  9
$DIMEXE
 40
0.375
  9
$DIMTP
 40
0.0
  9
$DIMTM
 40
0.0
  9
$DIMTXT
 40
0.25
  9
$DIMCEN
 40
2.5
  9
$DIMTSZ
 40
0.0
  9
$DIMTOL
 70
0
  9
$DIMLIM
 70
0
  9
$DIMTIH
 70
0
  9
$DIMTOH
 70
0
  9
$DIMSE1
 70
0
  9
$DIMSE2
 70
0
  9
$DIMTAD
 70
1
  9
$DIMZIN
 70
12
  9
$DIMBLK
  1
ARCHTICK
  9
$DIMASO
 70
1
  9
$DIMSHO
 70
1
  9
$DIMPOST
  1

  9
$DIMAPOST
  1

  9
$DIMALT
 70
0
  9
$DIMALTD
 70
3
  9
$DIMALTF
 40
0.03937007874
  9
$DIMLFAC
 40
100.0
  9
$DIMTOFL
 70
1
  9
$DIMTVP
 40
0.0
  9
$DIMTIX
 70
0
  9
$DIMSOXD
 70
0
  9
$DIMSAH
 70
0
  9
$DIMBLK1
  1

  9
$DIMBLK2
  1

  9
$DIMSTYLE
  2
EZDXF
  9
$DIMCLRD
 70
0
  9
$DIMCLRE
 70
0
  9
$DIMCLRT
 70
0
  9
$DIMTFAC
 40
0.5
  9
$DIMGAP
 40
0.1
  9
$DIMJUST
 70
0
  9
$DIMSD1
 70
0
  9
$DIMSD2
 70
0
  9
$DIMTOLJ
 70
0
  9
$DIMTZIN
 70
8
  9
$DIMALTZ
 70
0
  9
$DIMALTTZ
 70
0
  9
$DIMUPT
 70
1
  9
$DIMDEC
 70
2
  9
$DIMTDEC
 70
2
  9
$DIMALTU
 70
2
  9
$DIMALTTD
 70
3
  9
$DIMTXSTY
  7
OpenSansCondensed-Light
  9
$DIMAUNIT
 70
0
  9
$DIMADEC
 70
2
  9
$DIMALTRND
 40
0.0
  9
$DIMAZIN
 70
3
  9
$DIMDSEP
 70
46
  9
$DIMATFIT
 70
3
  9
$DIMFRAC
 70
0
  9
$DIMLDRBLK
  1

  9
$DIMLUNIT
 70
2
  9
$DIMLWD
 70
-2
  9
$DIMLWE
 70
-2
  9
$DIMTMOVE
 70
2
  9
$DIMFXL
 40
1.0
  9
$DIMFXLON
 70
0
  9
$DIMJOGANG
 40
0.785398163397
  9
$DIMTFILL
 70
0
  9
$DIMTFILLCLR
 70
0
  9
$DIMARCSYM
 70
0
  9
$DIMLTYPE
  6

  9
$DIMLTEX1
  6

  9
$DIMLTEX2
  6

  9
$DIMTXTDIRECTION
 70
0
  9
$LUNITS
 70
2
  9
$LUPREC
 70
4
  9
$SKETCHINC
 40
1.0
  9
$FILLETRAD
 40
10.0
  9
$AUNITS
 70
0
  9
$AUPREC
 70
2
  9
$MENU
  1
.
  9
$ELEVATION
 40
0.0
  9
$PELEVATION
 40
0.0
  9
$THICKNESS
 40
0.0
  9
$LIMCHECK
 70
0
  9
$CHAMFERA
 40
0.0
  9
$CHAMFERB
 40
0.0
  9
$CHAMFERC
 40
0.0
  9
$CHAMFERD
 40
0.0
  9
$SKPOLY
 70
0
  9
$TDCREATE
 40
2461317.670717593
  9
$TDUCREATE
 40
2458532.153996898
  9
$TDUPDATE
 40
2461317.670717593
  9
$TDUUPDATE
 40
2458532.1544311
  9
$TDINDWG
 40
0.0
  9
$TDUSRTIMER
 40
0.0
  9
$USRTIMER
 70
1
  9
$ANGBASE
 50
0.0
  9
$ANGDIR
 70
0
  9
$PDMODE
 70
0
  9
$PDSIZE
 40
0.0
  9
$PLINEWID
 40
0.0
  9
$SPLFRAME
 70
0
  9
$SPLINETYPE
 70
6
  9
$SPLINESEGS
 70
8
  9
$HANDSEED
  5
21D
  9
$SURFTAB1
 70
6
  9
$SURFTAB2
 70
6
  9
$SURFTYPE
 70
6
  9
$SURFU
 70
6
  9
$SURFV
 70
6
  9
$UCSBASE
  2

  9
$UCSNAME
  2

  9
$UCSORG
 10
0.0
 20
0.0
 30
0.0
  9
$UCSXDIR
 10
1.0
 20
0.0
 30
0.0
  9
$UCSYDIR
 10
0.0
 20
1.0
 30
0.0
  9
$UCSORTHOREF
  2

  9
$UCSORTHOVIEW
 70
0
  9
$UCSORGTOP
 10
0.0
 20
0.0
 30
0.0
  9
$UCSORGBOTTOM
 10
0.0
 20
0.0
 30
0.0
  9
$UCSORGLEFT
 10
0.0
 20
0.0
 30
0.0
  9
$UCSORGRIGHT
 10
0.0
 20
0.0
 30
0.0
  9
$UCSORGFRONT
 10
0.0
 20
0.0
 30
0.0
  9
$UCSORGBACK
 10
0.0
 20
0.0
 30
0.0
  9
$PUCSBASE
  2

  9
$PUCSNAME
  2

  9
$PUCSORG
 10
0.0
 20
0.0
 30
0.0
  9
$PUCSXDIR
 10
1.0
 20
0.0
 30
0.0
  9
$PUCSYDIR
 10
0.0
 20
1.0
 30
0.0
  9
$PUCSORTHOREF
  2

  9
$PUCSORTHOVIEW
 70
0
  9
$PUCSORGTOP
 10
0.0
 20
0.0
 30
0.0
  9
$PUCSORGBOTTOM
 10
0.0
 20
0.0
 30
0.0
  9
$PUCSORGLEFT
 10
0.0
 20
0.0
 30
0.0
  9
$PUCSORGRIGHT
 10
0.0
 20
0.0
 30
0.0
  9
$PUCSORGFRONT
 10
0.0
 20
0.0
 30
0.0
  9
$PUCSORGBACK
 10
0.0
 20
0.0
 30
0.0
  9
$USERI1
 70
0
  9
$USERI2
 70
0
  9
$USERI3
 70
0
  9
$USERI4
 70
0
  9
$USERI5
 70
0
  9
$USERR1
 40
0.0
  9
$USERR2
 40
0.0
  9
$USERR3
 40
0.0
  9
$USERR4
 40
0.0
  9
$USERR5
 40
0.0
  9
$WORLDVIEW
 70
1
  9
$SHADEDGE
 70
3
  9
$SHADEDIF
 70
70
  9
$TILEMODE
 70
1
  9
$MAXACTVP
 70
64
  9
$PINSBASE
 10
0.0
 20
0.0
 30
0.0
  9
$PLIMCHECK
 70
0
  9
$PEXTMIN
 10
1e+20
 20
1e+20
 30
1e+20
  9
$PEXTMAX
 10
-1e+20
 20
-1e+20
 30
-1e+20
  9
$PLIMMIN
 10
0.0
 20
0.0
  9
$PLIMMAX
 10
420.0
 20
297.0
  9
$UNITMODE
 70
0
  9
$VISRETAIN
 70
1
  9
$PLINEGEN
 70
0
  9
$PSLTSCALE
 70
1
  9
$TREEDEPTH
 70
3020
  9
$CMLSTYLE
  2
Standard
  9
$CMLJUST
 70
0
  9
$CMLSCALE
 40
20.0
  9
$PROXYGRAPHICS
 70
1
  9
$MEASUREMENT
 70
1
  9
$CELWEIGHT
370
-1
  9
$ENDCAPS
280
0
  9
$JOINSTYLE
280
0
  9
$LWDISPLAY
290
0
  9
$INSUNITS
 70
4
  9
$HYPERLINKBASE
  1

  9
$STYLESHEET
  1

  9
$XEDIT
290
1
  9
$CEPSNTYPE
380
0
  9
$PSTYLEMODE
290
1
  9
$FINGERPRINTGUID
  2
{92FB435D-80F7-4DD2-9801-DD3255A6CEF4}
  9
$VERSIONGUID
  2
{6A174EDB-016A-4219-8321-BE52EA90507A}
  9
$EXTNAMES
290
1
  9
$PSVPSCALE
 40
0.0
  9
$OLESTARTUP
290
0
  9
$SORTENTS
280
127
  9
$INDEXCTL
280
0
  9
$HIDETEXT
280
1
  9
$XCLIPFRAME
280
1
  9
$HALOGAP
280
0
  9
$OBSCOLOR
 70
257
  9
$OBSLTYPE
280
0
  9
$INTERSECTIONDISPLAY
280
0
  9
$INTERSECTIONCOLOR
 70
257
  9
$DIMASSOC
280
2
  9
$PROJECTNAME
  1

  9
$CAMERADISPLAY
290
0
  9
$LENSLENGTH
 40
50.0
  9
$CAMERAHEIGHT
 40
0.0
  9
$STEPSPERSEC
 40
24.0
  9
$STEPSIZE
 40
100.0
  9
$3DDWFPREC
 40
2.0
  9
$PSOLWIDTH
 40
0.005
  9
$PSOLHEIGHT
 40
0.08
  9
$LOFTANG1
 40
1.570796326795
  9
$LOFTANG2
 40
1.570796326795
  9
$LOFTMAG1
 40
0.0
  9
$LOFTMAG2
 40
0.0
  9
$LOFTPARAM
 70
7
  9
$LOFTNORMALS
280
1
  9
$LATITUDE
 40
37.795
  9
$LONGITUDE
 40
-122.394
  9
$NORTHDIRECTION
 40
0.0
  9
$TIMEZONE
 70
-8000
  9
$LIGHTGLYPHDISPLAY
280
1
  9
$TILEMODELIGHTSYNCH
280
1
  9
$CMATERIAL
347
20
  9
$SOLIDHIST
280
0
  9
$SHOWHIST
280
1
  9
$DWFFRAME
280
2
  9
$DGNFRAME
280
2
  9
$REALWORLDSCALE
290
1
  9
$INTERFERECOLOR
 62
256
  9
$CSHADOW
280
0
  9
$SHADOWPLANELOCATION
 40
0.0
  0
ENDSEC
  0
SECTION
  2
CLASSES
  0
CLASS
  1
ACDBDICTIONARYWDFLT
  2
AcDbDictionaryWithDefault
  3
ObjectDBX Classes
 90
0
 91
0
280
0
281
0
  0
CLASS
  1
SUN
  2
AcDbSun
  3
SCENEOE
 90
1153
 91
0
280
0
281
0
  0
CLASS
  1
VISUALSTYLE
  2
AcDbVisualStyle
  3
ObjectDBX Classes
 90
4095
 91
0
280
0
281
0
  0
CLASS
  1
MATERIAL
  2
AcDbMaterial
  3
ObjectDBX Classes
 90
1153
 91
0
280
0
281
0
  0
CLASS
  1
SCALE
  2
AcDbScale
  3
ObjectDBX Classes
 90
1153
 91
0
280
0
281
0
  0
CLASS
  1
TABLESTYLE
  2
AcDbTableStyle
  3
ObjectDBX Classes
 90
4095
 91
0
280
0
281
0
  0
CLASS
  1
MLEADERSTYLE
  2
AcDbMLeaderStyle
  3
ACDB_MLEADERSTYLE_CLASS
 90
4095
 91
0
280
0
281
0
  0
CLASS
  1
DICTIONARYVAR
  2
AcDbDictionaryVar
  3
ObjectDBX Classes
 90
0
 91
0
280
0
281
0
  0
CLASS
  1
CELLSTYLEMAP
  2
AcDbCellStyleMap
  3
ObjectDBX Classes
 90
1152
 91
0
280
0
281
0
  0
CLASS
  1
MENTALRAYRENDERSETTINGS
  2
AcDbMentalRayRenderSettings
  3
SCENEOE
 90
1024
 91
0
280
0
281
0
  0
CLASS
  1
ACDBDETAILVIEWSTYLE
  2
AcDbDetailViewStyle
  3
ObjectDBX Classes
 90
1025
 91
0
280
0
281
0
  0
CLASS
  1
ACDBSECTIONVIEWSTYLE
  2
AcDbSectionViewStyle
  3
ObjectDBX Classes
 90
1025
 91
0
280
0
281
0
  0
CLASS
  1
RASTERVARIABLES
  2
AcDbRasterVariables
  3
ISM
 90
0
 91
0
280
0
281
0
  0
CLASS
  1
LAYOUT
  2
AcDbLayout
  3
ObjectDBX Classes
 90
0
 91
0
280
0
281
0
  0
CLASS
  1
ACDBPLACEHOLDER
  2
AcDbPlaceHolder
  3
ObjectDBX Classes
 90
0
 91
0
280
0
281
0
  0
ENDSEC
  0
SECTION
  2
TABLES
  0
TABLE
  2
VPORT
  5
8
330
0
100
AcDbSymbolTable
 70
1
  0
VPORT
  5
23
330
8
100
AcDbSymbolTableRecord
100
AcDbViewportTableRecord
  2
*Active
 70
0
 10
0.0
 20
0.0
 11
1.0
 21
1.0
 12
0.0
 22
0.0
 13
0.0
 23
0.0
 14
0.5
 24
0.5
 15
0.5
 25
0.5
 16
0.0
 26
0.0
 36
1.0
 17
0.0
 27
0.0
 37
0.0
 40
1000.0
 41
1.34
 42
50.0
 43
0.0
 44
0.0
 50
0.0
 51
0.0
 71
0
 72
1000
 73
1
 74
3
 75
0
 76
0
 77
0
 78
0
281
0
 65
0
146
0.0
  0
ENDTAB
  0
TABLE
  2
LTYPE
  5
2
330
0
100
AcDbSymbolTable
 70
21
  0
LTYPE
  5
24
330
2
100
AcDbSymbolTableRecord
100
AcDbLinetypeTableRecord
  2
ByBlock
 70
0
  3

 72
65
 73
0
 40
0.0
  0
LTYPE
  5
25
330
2
100
AcDbSymbolTableRecord
100
AcDbLinetypeTableRecord
  2
ByLayer
 70
0
  3

 72
65
 73
0
 40
0.0
  0
LTYPE
  5
26
330
2
100
AcDbSymbolTableRecord
100
AcDbLinetypeTableRecord
  2
Continuous
 70
0
  3

 72
65
 73
0
 40
0.0
  0
LTYPE
  5
2F
330
2
100
AcDbSymbolTableRecord
100
AcDbLinetypeTableRecord
  2
CENTER
 70
0
  3
Center ____ _ ____ _ ____ _ ____ _ ____ _ ____
 72
65
 73
4
 40
5.08
 49
3.175
 74
0
 49
-0.635
 74
0
 49
0.635
 74
0
 49
-0.635
 74
0
  0
LTYPE
  5
30
330
2
100
AcDbSymbolTableRecord
100
AcDbLinetypeTableRecord
  2
CENTERX2
 70
0
  3
Center (2x) ________  __  ________  __  ________
 72
65
 73
4
 40
8.89
 49
6.35
 74
0
 49
-0.635
 74
0
 49
1.27
 74
0
 49
-0.635
 74
0
  0
LTYPE
  5
31
330
2
100
AcDbSymbolTableRecord
100
AcDbLinetypeTableRecord
  2
CENTER2
 70
0
  3
Center (.5x) ____ _ ____ _ ____ _ ____ _ ____
 72
65
 73
4
 40
2.54
 49
1.587
 74
0
 49
-0.318
 74
0
 49
0.318
 74
0
 49
-0.318
 74
0
  0
LTYPE
  5
32
330
2
100
AcDbSymbolTableRecord
100
AcDbLinetypeTableRecord
  2
DASHED
 70
0
  3
Dashed __ __ __ __ __ __ __ __ __ __ __ __ __ _
 72
65
 73
2
 40
1.524
 49
1.27
 74
0
 49
-0.254
 74
0
  0
LTYPE
  5
33
330
2
100
AcDbSymbolTableRecord
100
AcDbLinetypeTableRecord
  2
DASHEDX2
 70
0
  3
Dashed (2x) ____  ____  ____  ____  ____  ____
 72
65
 73
2
 40
3.048
 49
2.54
 74
0
 49
-0.508
 74
0
  0
LTYPE
  5
34
330
2
100
AcDbSymbolTableRecord
100
AcDbLinetypeTableRecord
  2
DASHED2
 70
0
  3
Dashed (.5x) _ _ _ _ _ _ _ _ _ _ _ _ _ _
 72
65
 73
2
 40
0.762
 49
0.635
 74
0
 49
-0.127
 74
0
  0
LTYPE
  5
35
330
2
100
AcDbSymbolTableRecord
100
AcDbLinetypeTableRecord
  2
PHANTOM
 70
0
  3
Phantom ______  __  __  ______  __  __  ______
 72
65
 73
6
 40
6.35
 49
3.175
 74
0
 49
-0.635
 74
0
 49
0.635
 74
0
 49
-0.635
 74
0
 49
0.635
 74
0
 49
-0.635
 74
0
  0
LTYPE
  5
36
330
2
100
AcDbSymbolTableRecord
100
AcDbLinetypeTableRecord
  2
PHANTOMX2
 70
0
  3
Phantom (2x)____________    ____    ____    ____________
 72
65
 73
6
 40
10.795
 49
6.35
 74
0
 49
-0.635
 74
0
 49
1.27
 74
0
 49
-0.635
 74
0
 49
1.27
 74
0
 49
-0.635
 74
0
  0
LTYPE
  5
37
330
2
100
AcDbSymbolTableRecord
100
AcDbLinetypeTableRecord
  2
PHANTOM2
 70
0
  3
Phantom (.5x) ___ _ _ ___ _ _ ___ _ _ ___ _ _ ___
 72
65
 73
6
 40
3.175
 49
1.587
 74
0
 49
-0.318
 74
0
 49
0.318
 74
0
 49
-0.318
 74
0
 49
0.318
 74
0
 49
-0.318
 74
0
  0
LTYPE
  5
38
330
2
100
AcDbSymbolTableRecord
100
AcDbLinetypeTableRecord
  2
DASHDOT
 70
0
  3
Dash dot __ . __ . __ . __ . __ . __ . __ . __
 72
65
 73
4
 40
3.556
 49
2.54
 74
0
 49
-0.508
 74
0
 49
0.0
 74
0
 49
-0.508
 74
0
  0
LTYPE
  5
39
330
2
100
AcDbSymbolTableRecord
100
AcDbLinetypeTableRecord
  2
DASHDOTX2
 70
0
  3
Dash dot (2x) ____  .  ____  .  ____  .  ____
 72
65
 73
4
 40
6.096
 49
5.08
 74
0
 49
-0.508
 74
0
 49
0.0
 74
0
 49
-0.508
 74
0
  0
LTYPE
  5
3A
330
2
100
AcDbSymbolTableRecord
100
AcDbLinetypeTableRecord
  2
DASHDOT2
 70
0
  3
Dash dot (.5x) _ . _ . _ . _ . _ . _ . _ . _
 72
65
 73
4
 40
1.778
 49
1.27
 74
0
 49
-0.254
 74
0
 49
0.0
 74
0
 49
-0.254
 74
0
  0
LTYPE
  5
3B
330
2
100
AcDbSymbolTableRecord
100
AcDbLinetypeTableRecord
  2
DOT
 70
0
  3
Dot .  .  .  .  .  .  .  .  .  .  .  .  .  .  .  .
 72
65
 73
2
 40
0.508
 49
0.0
 74
0
 49
-0.508
 74
0
  0
LTYPE
  5
3C
330
2
100
AcDbSymbolTableRecord
100
AcDbLinetypeTableRecord
  2
DOTX2
 70
0
  3
Dot (2x) .    .    .    .    .    .    .    . 
 72
65
 73
2
 40
1.016
 49
0.0
 74
0
 49
-1.016
 74
0
  0
LTYPE
  5
3D
330
2
100
AcDbSymbolTableRecord
100
AcDbLinetypeTableRecord
  2
DOT2
 70
0
  3
Dot (.5) . . . . . . . . . . . . . . . . . . . 
 72
65
 73
2
 40
0.254
 49
0.0
 74
0
 49
-0.254
 74
0
  0
LTYPE
  5
3E
330
2
100
AcDbSymbolTableRecord
100
AcDbLinetypeTableRecord
  2
DIVIDE
 70
0
  3
Divide __ . . __ . . __ . . __ . . __ . . __
 72
65
 73
6
 40
4.064
 49
2.54
 74
0
 49
-0.508
 74
0
 49
0.0
 74
0
 49
-0.508
 74
0
 49
0.0
 74
0
 49
-0.508
 74
0
  0
LTYPE
  5
3F
330
2
100
AcDbSymbolTableRecord
100
AcDbLinetypeTableRecord
  2
DIVIDEX2
 70
0
  3
Divide (2x) ____  . .  ____  . .  ____  . .  ____
 72
65
 73
6
 40
6.604
 49
5.08
 74
0
 49
-0.508
 74
0
 49
0.0
 74
0
 49
-0.508
 74
0
 49
0.0
 74
0
 49
-0.508
 74
0
  0
LTYPE
  5
40
330
2
100
AcDbSymbolTableRecord
100
AcDbLinetypeTableRecord
  2
DIVIDE2
 70
0
  3
Divide(.5x) _ . _ . _ . _ . _ . _ . _ . _
 72
65
 73
6
 40
2.032
 49
1.27
 74
0
 49
-0.254
 74
0
 49
0.0
 74
0
 49
-0.254
 74
0
 49
0.0
 74
0
 49
-0.254
 74
0
  0
ENDTAB
  0
TABLE
  2
LAYER
  5
1
330
0
100
AcDbSymbolTable
 70
18
  0
LAYER
  5
27
330
1
100
AcDbSymbolTableRecord
100
AcDbLayerTableRecord
  2
0
 70
0
 62
7
  6
Continuous
370
-3
390
13
347
21
  0
LAYER
  5
28
330
1
100
AcDbSymbolTableRecord
100
AcDbLayerTableRecord
  2
Defpoints
 70
0
 62
7
  6
Continuous
290
0
370
-3
390
13
347
21
  0
LAYER
  5
8B
330
1
100
AcDbSymbolTableRecord
100
AcDbLayerTableRecord
  2
FEMUR
 70
0
 62
8
  6
CONTINUOUS
370
50
390
13
347
21
  0
LAYER
  5
8C
330
1
100
AcDbSymbolTableRecord
100
AcDbLayerTableRecord
  2
CONDILO_REF
 70
0
 62
8
  6
CENTER
370
18
390
13
347
21
  0
LAYER
  5
8D
330
1
100
AcDbSymbolTableRecord
100
AcDbLayerTableRecord
  2
LCA_BARRA2
 70
0
 62
1
  6
CONTINUOUS
370
70
390
13
347
21
  0
LAYER
  5
8E
330
1
100
AcDbSymbolTableRecord
100
AcDbLayerTableRecord
  2
LCP_BARRA4
 70
0
 62
4
  6
CONTINUOUS
370
70
390
13
347
21
  0
LAYER
  5
8F
330
1
100
AcDbSymbolTableRecord
100
AcDbLayerTableRecord
  2
TIBIA_BARRA3
 70
0
 62
30
  6
CONTINUOUS
370
50
390
13
347
21
  0
LAYER
  5
90
330
1
100
AcDbSymbolTableRecord
100
AcDbLayerTableRecord
  2
ACOPLADOR_AB
 70
0
 62
30
  6
CONTINUOUS
370
50
390
13
347
21
  0
LAYER
  5
91
330
1
100
AcDbSymbolTableRecord
100
AcDbLayerTableRecord
  2
PIVOS
 70
0
 62
7
  6
CONTINUOUS
370
35
390
13
347
21
  0
LAYER
  5
92
330
1
100
AcDbSymbolTableRecord
100
AcDbLayerTableRecord
  2
POSES_PRECISAO
 70
0
 62
9
  6
DASHED
370
18
390
13
347
21
  0
LAYER
  5
93
330
1
100
AcDbSymbolTableRecord
100
AcDbLayerTableRecord
  2
CENTROIDE
 70
0
 62
5
  6
CONTINUOUS
370
35
390
13
347
21
  0
LAYER
  5
94
330
1
100
AcDbSymbolTableRecord
100
AcDbLayerTableRecord
  2
CI
 70
0
 62
5
  6
CONTINUOUS
370
25
390
13
347
21
  0
LAYER
  5
95
330
1
100
AcDbSymbolTableRecord
100
AcDbLayerTableRecord
  2
EIXOS
 70
0
 62
8
  6
CENTER
370
13
390
13
347
21
  0
LAYER
  5
96
330
1
100
AcDbSymbolTableRecord
100
AcDbLayerTableRecord
  2
COTAS
 70
0
 62
3
  6
CONTINUOUS
370
18
390
13
347
21
  0
LAYER
  5
97
330
1
100
AcDbSymbolTableRecord
100
AcDbLayerTableRecord
  2
TEXTO
 70
0
 62
7
  6
CONTINUOUS
370
25
390
13
347
21
  0
LAYER
  5
98
330
1
100
AcDbSymbolTableRecord
100
AcDbLayerTableRecord
  2
SEQUENCIA
 70
0
 62
7
  6
CONTINUOUS
370
25
390
13
347
21
  0
LAYER
  5
99
330
1
100
AcDbSymbolTableRecord
100
AcDbLayerTableRecord
  2
FORMATO
 70
0
 62
7
  6
CONTINUOUS
370
50
390
13
347
21
  0
LAYER
  5
9A
330
1
100
AcDbSymbolTableRecord
100
AcDbLayerTableRecord
  2
VIEWPORT
 70
0
 62
-8
  6
CONTINUOUS
290
0
370
13
390
13
347
21
  0
ENDTAB
  0
TABLE
  2
STYLE
  5
5
330
0
100
AcDbSymbolTable
 70
27
  0
STYLE
  5
29
330
5
100
AcDbSymbolTableRecord
100
AcDbTextStyleTableRecord
  2
Standard
 70
0
 40
0.0
 41
1.0
 50
0.0
 71
0
 42
2.5
  3
txt
  4

  0
STYLE
  5
41
330
5
100
AcDbSymbolTableRecord
100
AcDbTextStyleTableRecord
  2
OpenSans-Light
 70
0
 40
0.0
 41
1.0
 50
0.0
 71
0
 42
2.5
  3
OpenSans-Light.ttf
  4

  0
STYLE
  5
42
330
5
100
AcDbSymbolTableRecord
100
AcDbTextStyleTableRecord
  2
OpenSans-Light-Italic
 70
0
 40
0.0
 41
1.0
 50
0.0
 71
0
 42
2.5
  3
OpenSans-LightItalic.ttf
  4

  0
STYLE
  5
43
330
5
100
AcDbSymbolTableRecord
100
AcDbTextStyleTableRecord
  2
OpenSans
 70
0
 40
0.0
 41
1.0
 50
0.0
 71
0
 42
2.5
  3
OpenSans-Regular.ttf
  4

  0
STYLE
  5
44
330
5
100
AcDbSymbolTableRecord
100
AcDbTextStyleTableRecord
  2
OpenSans-Italic
 70
0
 40
0.0
 41
1.0
 50
0.0
 71
0
 42
2.5
  3
OpenSans-Italic.ttf
  4

  0
STYLE
  5
45
330
5
100
AcDbSymbolTableRecord
100
AcDbTextStyleTableRecord
  2
OpenSans-SemiBold
 70
0
 40
0.0
 41
1.0
 50
0.0
 71
0
 42
2.5
  3
OpenSans-SemiBold.ttf
  4

  0
STYLE
  5
46
330
5
100
AcDbSymbolTableRecord
100
AcDbTextStyleTableRecord
  2
OpenSans-SemiBoldItalic
 70
0
 40
0.0
 41
1.0
 50
0.0
 71
0
 42
2.5
  3
OpenSans-SemiBoldItalic.ttf
  4

  0
STYLE
  5
47
330
5
100
AcDbSymbolTableRecord
100
AcDbTextStyleTableRecord
  2
OpenSans-Bold
 70
0
 40
0.0
 41
1.0
 50
0.0
 71
0
 42
2.5
  3
OpenSans-Bold.ttf
  4

  0
STYLE
  5
48
330
5
100
AcDbSymbolTableRecord
100
AcDbTextStyleTableRecord
  2
OpenSans-BoldItalic
 70
0
 40
0.0
 41
1.0
 50
0.0
 71
0
 42
2.5
  3
OpenSans-BoldItalic.ttf
  4

  0
STYLE
  5
49
330
5
100
AcDbSymbolTableRecord
100
AcDbTextStyleTableRecord
  2
OpenSans-ExtraBold
 70
0
 40
0.0
 41
1.0
 50
0.0
 71
0
 42
2.5
  3
OpenSans-ExtraBold.ttf
  4

  0
STYLE
  5
4A
330
5
100
AcDbSymbolTableRecord
100
AcDbTextStyleTableRecord
  2
OpenSans-ExtraBoldItalic
 70
0
 40
0.0
 41
1.0
 50
0.0
 71
0
 42
2.5
  3
OpenSans-ExtraBoldItalic.ttf
  4

  0
STYLE
  5
4B
330
5
100
AcDbSymbolTableRecord
100
AcDbTextStyleTableRecord
  2
OpenSansCondensed-Bold
 70
0
 40
0.0
 41
1.0
 50
0.0
 71
0
 42
2.5
  3
OpenSansCondensed-Bold.ttf
  4

  0
STYLE
  5
4C
330
5
100
AcDbSymbolTableRecord
100
AcDbTextStyleTableRecord
  2
OpenSansCondensed-Light
 70
0
 40
0.0
 41
1.0
 50
0.0
 71
0
 42
2.5
  3
OpenSansCondensed-Light.ttf
  4

  0
STYLE
  5
4D
330
5
100
AcDbSymbolTableRecord
100
AcDbTextStyleTableRecord
  2
OpenSansCondensed-Italic
 70
0
 40
0.0
 41
1.0
 50
0.0
 71
0
 42
2.5
  3
OpenSansCondensed-LightItalic.ttf
  4

  0
STYLE
  5
4E
330
5
100
AcDbSymbolTableRecord
100
AcDbTextStyleTableRecord
  2
LiberationSans
 70
0
 40
0.0
 41
1.0
 50
0.0
 71
0
 42
2.5
  3
LiberationSans-Regular.ttf
  4

  0
STYLE
  5
4F
330
5
100
AcDbSymbolTableRecord
100
AcDbTextStyleTableRecord
  2
LiberationSans-Bold
 70
0
 40
0.0
 41
1.0
 50
0.0
 71
0
 42
2.5
  3
LiberationSans-Bold.ttf
  4

  0
STYLE
  5
50
330
5
100
AcDbSymbolTableRecord
100
AcDbTextStyleTableRecord
  2
LiberationSans-BoldItalic
 70
0
 40
0.0
 41
1.0
 50
0.0
 71
0
 42
2.5
  3
LiberationSans-BoldItalic.ttf
  4

  0
STYLE
  5
51
330
5
100
AcDbSymbolTableRecord
100
AcDbTextStyleTableRecord
  2
LiberationSans-Italic
 70
0
 40
0.0
 41
1.0
 50
0.0
 71
0
 42
2.5
  3
LiberationSans-Italic.ttf
  4

  0
STYLE
  5
52
330
5
100
AcDbSymbolTableRecord
100
AcDbTextStyleTableRecord
  2
LiberationSerif
 70
0
 40
0.0
 41
1.0
 50
0.0
 71
0
 42
2.5
  3
LiberationSerif-Regular.ttf
  4

  0
STYLE
  5
53
330
5
100
AcDbSymbolTableRecord
100
AcDbTextStyleTableRecord
  2
LiberationSerif-Bold
 70
0
 40
0.0
 41
1.0
 50
0.0
 71
0
 42
2.5
  3
LiberationSerif-Bold.ttf
  4

  0
STYLE
  5
54
330
5
100
AcDbSymbolTableRecord
100
AcDbTextStyleTableRecord
  2
LiberationSerif-BoldItalic
 70
0
 40
0.0
 41
1.0
 50
0.0
 71
0
 42
2.5
  3
LiberationSerif-BoldItalic.ttf
  4

  0
STYLE
  5
55
330
5
100
AcDbSymbolTableRecord
100
AcDbTextStyleTableRecord
  2
LiberationSerif-Italic
 70
0
 40
0.0
 41
1.0
 50
0.0
 71
0
 42
2.5
  3
LiberationSerif-Italic.ttf
  4

  0
STYLE
  5
56
330
5
100
AcDbSymbolTableRecord
100
AcDbTextStyleTableRecord
  2
LiberationMono
 70
0
 40
0.0
 41
1.0
 50
0.0
 71
0
 42
2.5
  3
LiberationMono-Regular.ttf
  4

  0
STYLE
  5
57
330
5
100
AcDbSymbolTableRecord
100
AcDbTextStyleTableRecord
  2
LiberationMono-Bold
 70
0
 40
0.0
 41
1.0
 50
0.0
 71
0
 42
2.5
  3
LiberationMono-Bold.ttf
  4

  0
STYLE
  5
58
330
5
100
AcDbSymbolTableRecord
100
AcDbTextStyleTableRecord
  2
LiberationMono-BoldItalic
 70
0
 40
0.0
 41
1.0
 50
0.0
 71
0
 42
2.5
  3
LiberationMono-BoldItalic.ttf
  4

  0
STYLE
  5
59
330
5
100
AcDbSymbolTableRecord
100
AcDbTextStyleTableRecord
  2
LiberationMono-Italic
 70
0
 40
0.0
 41
1.0
 50
0.0
 71
0
 42
2.5
  3
LiberationMono-Italic.ttf
  4

  0
STYLE
  5
8A
330
5
100
AcDbSymbolTableRecord
100
AcDbTextStyleTableRecord
  2
CAD
 70
0
 40
0.0
 41
1.0
 50
0.0
 71
0
 42
2.5
  3
arial.ttf
  4

  0
ENDTAB
  0
TABLE
  2
VIEW
  5
7
330
0
100
AcDbSymbolTable
 70
0
  0
ENDTAB
  0
TABLE
  2
UCS
  5
6
330
0
100
AcDbSymbolTable
 70
0
  0
ENDTAB
  0
TABLE
  2
APPID
  5
3
330
0
100
AcDbSymbolTable
 70
3
  0
APPID
  5
2A
330
3
100
AcDbSymbolTableRecord
100
AcDbRegAppTableRecord
  2
ACAD
 70
0
  0
APPID
  5
21A
330
3
100
AcDbSymbolTableRecord
100
AcDbRegAppTableRecord
  2
HATCHBACKGROUNDCOLOR
 70
0
  0
APPID
  5
21B
330
3
100
AcDbSymbolTableRecord
100
AcDbRegAppTableRecord
  2
EZDXF
 70
0
  0
ENDTAB
  0
TABLE
  2
DIMSTYLE
  5
4
330
0
100
AcDbSymbolTable
 70
13
100
AcDbDimStyleTable
  0
DIMSTYLE
105
2B
330
4
100
AcDbSymbolTableRecord
100
AcDbDimStyleTableRecord
  2
Standard
 70
0
 40
1.0
 41
2.5
 42
0.625
 43
3.75
 44
1.25
 45
0.0
 46
0.0
 47
0.0
 48
0.0
 49
2.5
140
2.5
141
2.5
142
0.0
143
0.03937007874
144
1.0
145
0.0
146
1.0
147
0.625
148
0.0
 69
0
 70
0
 71
0
 72
0
 73
0
 74
0
 75
0
 76
0
 77
1
 78
8
 79
3
170
0
171
3
172
1
173
0
174
0
175
0
176
0
177
0
178
0
179
2
271
2
272
2
273
2
274
3
275
0
276
0
277
2
278
44
279
0
280
0
281
0
282
0
283
0
284
8
285
0
286
0
288
0
289
3
290
0
371
-2
372
-2
  0
DIMSTYLE
105
73
330
4
100
AcDbSymbolTableRecord
100
AcDbDimStyleTableRecord
  2
EZDXF
 70
0
 40
1.0
 41
0.175
 42
0.125
 43
3.75
 44
0.375
 45
0.0
 46
0.0
 47
0.0
 48
0.0
 49
2.5
140
0.25
141
2.5
142
0.0
143
0.03937007874
144
100.0
145
0.0
146
0.5
147
0.1
148
0.0
 69
0
 70
0
 71
0
 72
0
 73
0
 74
0
 75
0
 76
0
 77
1
 78
12
 79
3
170
0
171
3
172
1
173
0
174
0
175
0
176
0
177
0
178
0
179
2
271
2
272
2
273
2
274
3
275
0
276
0
277
2
278
46
279
2
280
0
281
0
282
0
283
0
284
8
285
0
286
0
288
1
289
3
290
0
340
4C
342
74
371
-2
372
-2
  0
DIMSTYLE
105
7C
330
4
100
AcDbSymbolTableRecord
100
AcDbDimStyleTableRecord
  2
EZ_M_100_H25_CM
 70
0
 40
1.0
 41
0.25
 42
0.125
 43
3.75
 44
0.375
 45
0.0
 46
0.0
 47
0.0
 48
0.0
 49
2.5
140
0.25
141
2.5
142
0.125
143
0.03937007874
144
100.0
145
0.0
146
0.5
147
0.1
148
0.0
 69
0
 70
0
 71
0
 72
0
 73
0
 74
0
 75
0
 76
0
 77
1
 78
12
 79
3
170
0
171
3
172
1
173
0
174
0
175
0
176
0
177
0
178
0
179
2
271
2
272
2
273
2
274
3
275
0
276
0
277
2
278
46
279
2
280
0
281
0
282
0
283
0
284
8
285
0
286
0
288
1
289
3
290
0
340
4C
371
-2
372
-2
  0
DIMSTYLE
105
7D
330
4
100
AcDbSymbolTableRecord
100
AcDbDimStyleTableRecord
  2
EZ_M_50_H25_CM
 70
0
 40
1.0
 41
0.125
 42
0.0625
 43
3.75
 44
0.1875
 45
0.0
 46
0.0
 47
0.0
 48
0.0
 49
2.5
140
0.125
141
2.5
142
0.0625
143
0.03937007874
144
100.0
145
0.0
146
0.5
147
0.05
148
0.0
 69
0
 70
0
 71
0
 72
0
 73
0
 74
0
 75
0
 76
0
 77
1
 78
12
 79
3
170
0
171
3
172
1
173
0
174
0
175
0
176
0
177
0
178
0
179
2
271
2
272
2
273
2
274
3
275
0
276
0
277
2
278
46
279
2
280
0
281
0
282
0
283
0
284
8
285
0
286
0
288
1
289
3
290
0
340
4C
371
-2
372
-2
  0
DIMSTYLE
105
7E
330
4
100
AcDbSymbolTableRecord
100
AcDbDimStyleTableRecord
  2
EZ_M_25_H25_CM
 70
0
 40
1.0
 41
0.0625
 42
0.03125
 43
3.75
 44
0.09375
 45
0.0
 46
0.0
 47
0.0
 48
0.0
 49
2.5
140
0.0625
141
2.5
142
0.03125
143
0.03937007874
144
100.0
145
0.0
146
0.5
147
0.025
148
0.0
 69
0
 70
0
 71
0
 72
0
 73
0
 74
0
 75
0
 76
0
 77
1
 78
12
 79
3
170
0
171
3
172
1
173
0
174
0
175
0
176
0
177
0
178
0
179
2
271
2
272
2
273
2
274
3
275
0
276
0
277
2
278
46
279
2
280
0
281
0
282
0
283
0
284
8
285
0
286
0
288
1
289
3
290
0
340
4C
371
-2
372
-2
  0
DIMSTYLE
105
7F
330
4
100
AcDbSymbolTableRecord
100
AcDbDimStyleTableRecord
  2
EZ_M_20_H25_CM
 70
0
 40
1.0
 41
0.05
 42
0.025
 43
3.75
 44
0.07500000000000001
 45
0.0
 46
0.0
 47
0.0
 48
0.0
 49
2.5
140
0.05
141
2.5
142
0.025
143
0.03937007874
144
100.0
145
0.0
146
0.5
147
0.020000000000000004
148
0.0
 69
0
 70
0
 71
0
 72
0
 73
0
 74
0
 75
0
 76
0
 77
1
 78
12
 79
3
170
0
171
3
172
1
173
0
174
0
175
0
176
0
177
0
178
0
179
2
271
2
272
2
273
2
274
3
275
0
276
0
277
2
278
46
279
2
280
0
281
0
282
0
283
0
284
8
285
0
286
0
288
1
289
3
290
0
340
4C
371
-2
372
-2
  0
DIMSTYLE
105
80
330
4
100
AcDbSymbolTableRecord
100
AcDbDimStyleTableRecord
  2
EZ_M_10_H25_CM
 70
0
 40
1.0
 41
0.025
 42
0.0125
 43
3.75
 44
0.037500000000000006
 45
0.0
 46
0.0
 47
0.0
 48
0.0
 49
2.5
140
0.025
141
2.5
142
0.0125
143
0.03937007874
144
100.0
145
0.0
146
0.5
147
0.010000000000000002
148
0.0
 69
0
 70
0
 71
0
 72
0
 73
0
 74
0
 75
0
 76
0
 77
1
 78
12
 79
3
170
0
171
3
172
1
173
0
174
0
175
0
176
0
177
0
178
0
179
2
271
2
272
2
273
2
274
3
275
0
276
0
277
2
278
46
279
2
280
0
281
0
282
0
283
0
284
8
285
0
286
0
288
1
289
3
290
0
340
4C
371
-2
372
-2
  0
DIMSTYLE
105
81
330
4
100
AcDbSymbolTableRecord
100
AcDbDimStyleTableRecord
  2
EZ_M_5_H25_CM
 70
0
 40
1.0
 41
0.0125
 42
0.00625
 43
3.75
 44
0.018750000000000003
 45
0.0
 46
0.0
 47
0.0
 48
0.0
 49
2.5
140
0.0125
141
2.5
142
0.00625
143
0.03937007874
144
100.0
145
0.0
146
0.5
147
0.005000000000000001
148
0.0
 69
0
 70
0
 71
0
 72
0
 73
0
 74
0
 75
0
 76
0
 77
1
 78
12
 79
3
170
0
171
3
172
1
173
0
174
0
175
0
176
0
177
0
178
0
179
2
271
2
272
2
273
2
274
3
275
0
276
0
277
2
278
46
279
2
280
0
281
0
282
0
283
0
284
8
285
0
286
0
288
1
289
3
290
0
340
4C
371
-2
372
-2
  0
DIMSTYLE
105
82
330
4
100
AcDbSymbolTableRecord
100
AcDbDimStyleTableRecord
  2
EZ_M_1_H25_CM
 70
0
 40
1.0
 41
0.0025
 42
0.00125
 43
3.75
 44
0.00375
 45
0.0
 46
0.0
 47
0.0
 48
0.0
 49
2.5
140
0.0025
141
2.5
142
0.00125
143
0.03937007874
144
100.0
145
0.0
146
0.5
147
0.001
148
0.0
 69
0
 70
0
 71
0
 72
0
 73
0
 74
0
 75
0
 76
0
 77
1
 78
12
 79
3
170
0
171
3
172
1
173
0
174
0
175
0
176
0
177
0
178
0
179
2
271
2
272
2
273
2
274
3
275
0
276
0
277
2
278
46
279
2
280
0
281
0
282
0
283
0
284
8
285
0
286
0
288
1
289
3
290
0
340
4C
371
-2
372
-2
  0
DIMSTYLE
105
83
330
4
100
AcDbSymbolTableRecord
100
AcDbDimStyleTableRecord
  2
EZ_RADIUS
 70
0
 40
1.0
 41
0.25
 42
0.125
 43
3.75
 44
0.375
 45
0.0
 46
0.0
 47
0.0
 48
0.0
 49
2.5
140
0.25
141
0.0
142
0.0
143
0.03937007874
144
100.0
145
0.0
146
0.5
147
0.1
148
0.0
 69
0
 70
0
 71
0
 72
0
 73
0
 74
0
 75
0
 76
0
 77
1
 78
12
 79
3
170
0
171
3
172
0
173
0
174
0
175
0
176
0
177
0
178
0
179
2
271
2
272
2
273
2
274
3
275
0
276
0
277
2
278
46
279
1
280
0
281
0
282
0
283
0
284
8
285
0
286
0
288
1
289
3
290
0
340
4C
342
84
371
-2
372
-2
  0
DIMSTYLE
105
88
330
4
100
AcDbSymbolTableRecord
100
AcDbDimStyleTableRecord
  2
EZ_RADIUS_INSIDE
 70
0
 40
1.0
 41
0.25
 42
0.125
 43
3.75
 44
0.375
 45
0.0
 46
0.0
 47
0.0
 48
0.0
 49
2.5
140
0.25
141
0.0
142
0.0
143
0.03937007874
144
100.0
145
0.0
146
0.5
147
0.1
148
0.0
 69
0
 70
0
 71
0
 72
0
 73
0
 74
0
 75
0
 76
0
 77
0
 78
12
 79
3
170
0
171
3
172
0
173
0
174
1
175
0
176
0
177
0
178
0
179
2
271
2
272
2
273
2
274
3
275
0
276
0
277
2
278
46
279
0
280
0
281
0
282
0
283
0
284
8
285
0
286
0
288
1
289
0
290
0
340
4C
342
84
371
-2
372
-2
  0
DIMSTYLE
105
89
330
4
100
AcDbSymbolTableRecord
100
AcDbDimStyleTableRecord
  2
EZ_CURVED
 70
0
 40
1.0
 41
0.25
 42
0.125
 43
3.75
 44
0.375
 45
0.0
 46
0.0
 47
0.0
 48
0.0
 49
2.5
140
0.25
141
2.5
142
0.0
143
0.03937007874
144
100.0
145
0.0
146
0.5
147
0.1
148
0.0
 69
0
 70
0
 71
0
 72
0
 73
0
 74
0
 75
0
 76
0
 77
1
 78
12
 79
2
 90
2
170
0
171
3
172
1
173
0
174
0
175
0
176
0
177
0
178
0
179
2
271
2
272
2
273
2
274
3
275
0
276
0
277
2
278
46
279
2
280
0
281
0
282
0
283
0
284
8
285
0
286
0
288
1
289
3
290
0
340
4C
371
-2
372
-2
  0
DIMSTYLE
105
9B
330
4
100
AcDbSymbolTableRecord
100
AcDbDimStyleTableRecord
  2
COTA_MECANISMO
 70
0
 40
1.0
 41
1.4
 42
0.6
 43
3.75
 44
0.8
 45
0.0
 46
0.0
 47
0.0
 48
0.0
 49
2.5
140
1.8
141
2.5
142
0.0
143
0.03937007874
144
1.0
145
0.0
146
1.0
147
0.5
148
0.0
 69
0
 70
0
 71
0
 72
0
 73
0
 74
0
 75
0
 76
0
 77
1
 78
8
 79
3
170
0
171
3
172
1
173
0
174
0
175
0
176
3
177
3
178
3
179
2
271
1
272
2
273
2
274
3
275
0
276
0
277
2
278
44
279
0
280
0
281
0
282
0
283
0
284
8
285
0
286
0
288
0
289
3
290
0
340
8A
371
-2
372
-2
  0
ENDTAB
  0
TABLE
  2
BLOCK_RECORD
  5
9
330
0
100
AcDbSymbolTable
 70
11
  0
BLOCK_RECORD
  5
17
330
9
100
AcDbSymbolTableRecord
100
AcDbBlockTableRecord
  2
*Model_Space
340
1A
 70
0
280
1
281
0
  0
BLOCK_RECORD
  5
1B
330
9
100
AcDbSymbolTableRecord
100
AcDbBlockTableRecord
  2
*Paper_Space
340
1E
 70
0
280
1
281
0
  0
BLOCK_RECORD
  5
74
330
9
100
AcDbSymbolTableRecord
100
AcDbBlockTableRecord
  2
_ARCHTICK
340
0
 70
0
280
1
281
0
  0
BLOCK_RECORD
  5
78
330
9
100
AcDbSymbolTableRecord
100
AcDbBlockTableRecord
  2
_CLOSEDFILLED
340
0
 70
0
280
1
281
0
  0
BLOCK_RECORD
  5
84
330
9
100
AcDbSymbolTableRecord
100
AcDbBlockTableRecord
  2
_CLOSEDBLANK
340
0
 70
0
280
1
281
0
  0
BLOCK_RECORD
  5
DA
330
9
100
AcDbSymbolTableRecord
100
AcDbBlockTableRecord
  2
*D1
340
0
 70
0
280
1
281
0
  0
BLOCK_RECORD
  5
E9
330
9
100
AcDbSymbolTableRecord
100
AcDbBlockTableRecord
  2
*D2
340
0
 70
0
280
1
281
0
  0
BLOCK_RECORD
  5
F8
330
9
100
AcDbSymbolTableRecord
100
AcDbBlockTableRecord
  2
*D3
340
0
 70
0
280
1
281
0
  0
BLOCK_RECORD
  5
107
330
9
100
AcDbSymbolTableRecord
100
AcDbBlockTableRecord
  2
*D4
340
0
 70
0
280
1
281
0
  0
BLOCK_RECORD
  5
116
330
9
100
AcDbSymbolTableRecord
100
AcDbBlockTableRecord
  2
*D5
340
0
 70
0
280
1
281
0
  0
BLOCK_RECORD
  5
1A8
330
9
100
AcDbSymbolTableRecord
100
AcDbBlockTableRecord
  2
*Paper_Space0
340
1AB
 70
0
280
1
281
0
  0
ENDTAB
  0
ENDSEC
  0
SECTION
  2
BLOCKS
  0
BLOCK
  5
18
330
17
100
AcDbEntity
  8
0
100
AcDbBlockBegin
  2
*Model_Space
 70
0
 10
0.0
 20
0.0
 30
0.0
  3
*Model_Space
  1

  0
ENDBLK
  5
19
330
17
100
AcDbEntity
  8
0
100
AcDbBlockEnd
  0
BLOCK
  5
1C
330
1B
100
AcDbEntity
  8
0
100
AcDbBlockBegin
  2
*Paper_Space
 70
0
 10
0.0
 20
0.0
 30
0.0
  3
*Paper_Space
  1

  0
ENDBLK
  5
1D
330
1B
100
AcDbEntity
  8
0
100
AcDbBlockEnd
  0
BLOCK
  5
75
330
74
100
AcDbEntity
  8
0
100
AcDbBlockBegin
  2
_ARCHTICK
 70
0
 10
0.0
 20
0.0
 30
0.0
  3
_ARCHTICK
  1

  0
LWPOLYLINE
  5
77
330
74
100
AcDbEntity
  8
0
  6
BYBLOCK
 62
0
100
AcDbPolyline
 90
2
 70
0
 43
0.15
 10
-0.5
 20
-0.5
 10
0.5
 20
0.5
  0
ENDBLK
  5
76
330
74
100
AcDbEntity
  8
0
100
AcDbBlockEnd
  0
BLOCK
  5
79
330
78
100
AcDbEntity
  8
0
100
AcDbBlockBegin
  2
_CLOSEDFILLED
 70
0
 10
0.0
 20
0.0
 30
0.0
  3
_CLOSEDFILLED
  1

  0
SOLID
  5
7B
330
78
100
AcDbEntity
  8
0
  6
BYBLOCK
 62
0
100
AcDbTrace
 10
-1.0
 20
0.16439898372402537
 30
0.0
 11
0.0
 21
0.0
 31
0.0
 12
-1.0
 22
-0.16439898372402537
 32
0.0
 13
-1.0
 23
-0.16439898372402537
 33
0.0
  0
ENDBLK
  5
7A
330
78
100
AcDbEntity
  8
0
100
AcDbBlockEnd
  0
BLOCK
  5
85
330
84
100
AcDbEntity
  8
0
100
AcDbBlockBegin
  2
_CLOSEDBLANK
 70
0
 10
0.0
 20
0.0
 30
0.0
  3
_CLOSEDBLANK
  1

  0
LWPOLYLINE
  5
87
330
84
100
AcDbEntity
  8
0
  6
BYBLOCK
 62
0
100
AcDbPolyline
 90
3
 70
1
 10
-1.0
 20
0.16439898372402537
 10
0.0
 20
0.0
 10
-1.0
 20
-0.16439898372402537
  0
ENDBLK
  5
86
330
84
100
AcDbEntity
  8
0
100
AcDbBlockEnd
  0
BLOCK
  5
DB
330
DA
100
AcDbEntity
  8
0
100
AcDbBlockBegin
  2
*D1
 70
1
 10
0.0
 20
0.0
 30
0.0
  3
*D1
  1

  0
LINE
  5
DD
330
DA
100
AcDbEntity
  8
0
 62
3
100
AcDbLine
 10
-0.695900998550955
 20
7.751656070913591
 30
0.0
 11
5.502529367096676
 21
7.612153374819981
 31
0.0
  0
LINE
  5
DE
330
DA
100
AcDbEntity
  8
0
 62
3
100
AcDbLine
 10
-1.6363587402080768
 20
-34.035076277144306
 30
0.0
 11
4.562071625439558
 21
-34.1745789732379
 31
0.0
  0
INSERT
  5
DF
330
DA
100
AcDbEntity
  8
COTAS
 62
3
100
AcDbBlockReference
  2
_CLOSEDFILLED
 10
4.702731900561497
 20
7.630153722703028
 30
0.0
 41
1.4
 42
1.4
 50
88.71071124211498
  0
INSERT
  5
E1
330
DA
100
AcDbEntity
  8
COTAS
 62
3
100
AcDbBlockReference
  2
_CLOSEDFILLED
 10
3.7622741589043804
 20
-34.156578625354854
 30
0.0
 41
1.4
 42
1.4
 50
-91.28928875788502
  0
LINE
  5
E3
330
DA
100
AcDbEntity
  8
0
 62
3
100
AcDbLine
 10
4.671231291766167
 20
6.230508156266467
 30
0.0
 11
3.7937747676997104
 21
-32.75693305891829
 31
0.0
  0
MTEXT
  5
E4
330
DA
100
AcDbEntity
  8
COTAS
 62
3
100
AcDbMText
 10
5.6321485961695
 20
-13.294713060121243
 30
0.0
 40
1.8
 71
5
  1
LCA a = 41,8
  7
CAD
 50
-91.28928875788502
  0
POINT
  5
E5
330
DA
100
AcDbEntity
  8
Defpoints
100
AcDbPoint
 10
4.702731900561497
 20
7.630153722703028
 30
0.0
  0
POINT
  5
E6
330
DA
100
AcDbEntity
  8
Defpoints
100
AcDbPoint
 10
-1.2957490984523385
 20
7.765156331825876
 30
0.0
  0
POINT
  5
E7
330
DA
100
AcDbEntity
  8
Defpoints
100
AcDbPoint
 10
-2.2362068401094604
 20
-34.021576016232025
 30
0.0
  0
ENDBLK
  5
DC
330
DA
100
AcDbEntity
  8
0
100
AcDbBlockEnd
  0
BLOCK
  5
EA
330
E9
100
AcDbEntity
  8
0
100
AcDbBlockBegin
  2
*D2
 70
1
 10
0.0
 20
0.0
 30
0.0
  3
*D2
  1

  0
LINE
  5
EC
330
E9
100
AcDbEntity
  8
0
 62
3
100
AcDbLine
 10
-1.9543243680918365
 20
-33.491913603020336
 30
0.0
 11
0.958461176090277
 21
-28.018735333166177
 31
0.0
  0
LINE
  5
ED
330
E9
100
AcDbEntity
  8
0
 62
3
100
AcDbLine
 10
-22.61945637019329
 20
-22.494081119493302
 30
0.0
 11
-19.706670826011184
 21
-17.02090284963915
 31
0.0
  0
INSERT
  5
EE
330
E9
100
AcDbEntity
  8
COTAS
 62
3
100
AcDbBlockReference
  2
_CLOSEDFILLED
 10
0.5826178800667785
 20
-28.7249518841151
 30
0.0
 41
1.4
 42
1.4
 50
331.97841770516635
  0
INSERT
  5
F0
330
E9
100
AcDbEntity
  8
COTAS
 62
3
100
AcDbBlockReference
  2
_CLOSEDFILLED
 10
-20.08251412203468
 20
-17.727119400588073
 30
0.0
 41
1.4
 42
1.4
 50
151.97841770516635
  0
LINE
  5
F2
330
E9
100
AcDbEntity
  8
0
 62
3
100
AcDbLine
 10
-0.6532610840938369
 20
-28.06722611607398
 30
0.0
 11
-18.846635157874065
 21
-18.384845168629194
 31
0.0
  0
MTEXT
  5
F3
330
E9
100
AcDbEntity
  8
COTAS
 62
3
100
AcDbMText
 10
-10.783517185048572
 20
-25.168131157461126
 30
0.0
 40
1.8
 71
5
  1
tibia b = 23,4
  7
CAD
 50
151.97841770516635
  0
POINT
  5
F4
330
E9
100
AcDbEntity
  8
Defpoints
100
AcDbPoint
 10
0.5826178800667785
 20
-28.7249518841151
 30
0.0
  0
POINT
  5
F5
330
E9
100
AcDbEntity
  8
Defpoints
100
AcDbPoint
 10
-2.2362068401094604
 20
-34.021576016232025
 30
0.0
  0
POINT
  5
F6
330
E9
100
AcDbEntity
  8
Defpoints
100
AcDbPoint
 10
-22.901338842210915
 20
-23.023743532704994
 30
0.0
  0
ENDBLK
  5
EB
330
E9
100
AcDbEntity
  8
0
100
AcDbBlockEnd
  0
BLOCK
  5
F9
330
F8
100
AcDbEntity
  8
0
100
AcDbBlockBegin
  2
*D3
 70
1
 10
0.0
 20
0.0
 30
0.0
  3
*D3
  1

  0
LINE
  5
FB
330
F8
100
AcDbEntity
  8
0
 62
3
100
AcDbLine
 10
10.237747444383723
 20
-4.872629433824166
 30
0.0
 11
7.346077241343623
 21
0.6117341059906427
 31
0.0
  0
LINE
  5
FC
330
F8
100
AcDbEntity
  8
0
 62
3
100
AcDbLine
 10
-23.181177894118022
 20
-22.49299867401324
 30
0.0
 11
-26.072848097158126
 21
-17.00863513419843
 31
0.0
  0
INSERT
  5
FD
330
F8
100
AcDbEntity
  8
COTAS
 62
3
100
AcDbBlockReference
  2
_CLOSEDFILLED
 10
7.719195977219765
 20
-0.09592570559836489
 30
0.0
 41
1.4
 42
1.4
 50
27.800762980807747
  0
INSERT
  5
FF
330
F8
100
AcDbEntity
  8
COTAS
 62
3
100
AcDbBlockReference
  2
_CLOSEDFILLED
 10
-25.69972936128198
 20
-17.716294945787435
 30
0.0
 41
1.4
 42
1.4
 50
-152.19923701919225
  0
LINE
  5
101
330
F8
100
AcDbEntity
  8
0
 62
3
100
AcDbLine
 10
6.480791306939001
 20
-0.7488834933816135
 30
0.0
 11
-24.46132469100122
 21
-17.063337158004188
 31
0.0
  0
MTEXT
  5
102
330
F8
100
AcDbEntity
  8
COTAS
 62
3
100
AcDbMText
 10
-8.337308904247857
 20
-10.144514995973664
 30
0.0
 40
1.8
 71
5
  1
LCP c = 37,8
  7
CAD
 50
-152.19923701919225
  0
POINT
  5
103
330
F8
100
AcDbEntity
  8
Defpoints
100
AcDbPoint
 10
7.719195977219765
 20
-0.09592570559836489
 30
0.0
  0
POINT
  5
104
330
F8
100
AcDbEntity
  8
Defpoints
100
AcDbPoint
 10
10.51758649629083
 20
-5.403374292515921
 30
0.0
  0
POINT
  5
105
330
F8
100
AcDbEntity
  8
Defpoints
100
AcDbPoint
 10
-22.901338842210915
 20
-23.023743532704994
 30
0.0
  0
ENDBLK
  5
FA
330
F8
100
AcDbEntity
  8
0
100
AcDbBlockEnd
  0
BLOCK
  5
108
330
107
100
AcDbEntity
  8
0
100
AcDbBlockBegin
  2
*D4
 70
1
 10
0.0
 20
0.0
 30
0.0
  3
*D4
  1

  0
LINE
  5
10A
330
107
100
AcDbEntity
  8
0
 62
3
100
AcDbLine
 10
-0.8491265805899657
 20
8.165816195723265
 30
0.0
 11
5.999085359966418
 21
14.3092674421499
 31
0.0
  0
LINE
  5
10B
330
107
100
AcDbEntity
  8
0
 62
3
100
AcDbLine
 10
10.964209014153203
 20
-5.002714428618532
 30
0.0
 11
17.812420954709587
 21
1.1407368178081017
 31
0.0
  0
INSERT
  5
10C
330
107
100
AcDbEntity
  8
COTAS
 62
3
100
AcDbBlockReference
  2
_CLOSEDFILLED
 10
5.403588669483254
 20
13.775054290286715
 30
0.0
 41
1.4
 42
1.4
 50
131.8949107382154
  0
INSERT
  5
10E
330
107
100
AcDbEntity
  8
COTAS
 62
3
100
AcDbBlockReference
  2
_CLOSEDFILLED
 10
17.216924264226424
 20
0.6065236659449162
 30
0.0
 41
1.4
 42
1.4
 50
-48.10508926178459
  0
LINE
  5
110
330
107
100
AcDbEntity
  8
0
 62
3
100
AcDbLine
 10
6.3384616852438285
 20
12.732935081941179
 30
0.0
 11
16.282051248465848
 21
1.6486428742904529
 31
0.0
  0
MTEXT
  5
111
330
107
100
AcDbEntity
  8
COTAS
 62
3
100
AcDbMText
 10
12.947872365683539
 20
8.659875145739576
 30
0.0
 40
1.8
 71
5
  1
femur d = 17,7
  7
CAD
 50
-48.10508926178459
  0
POINT
  5
112
330
107
100
AcDbEntity
  8
Defpoints
100
AcDbPoint
 10
5.403588669483254
 20
13.775054290286715
 30
0.0
  0
POINT
  5
113
330
107
100
AcDbEntity
  8
Defpoints
100
AcDbPoint
 10
-1.2957490984523385
 20
7.765156331825876
 30
0.0
  0
POINT
  5
114
330
107
100
AcDbEntity
  8
Defpoints
100
AcDbPoint
 10
10.51758649629083
 20
-5.403374292515921
 30
0.0
  0
ENDBLK
  5
109
330
107
100
AcDbEntity
  8
0
100
AcDbBlockEnd
  0
BLOCK
  5
117
330
116
100
AcDbEntity
  8
0
100
AcDbBlockBegin
  2
*D5
 70
1
 10
0.0
 20
0.0
 30
0.0
  3
*D5
  1

  0
INSERT
  5
119
330
116
100
AcDbEntity
  8
COTAS
 62
3
100
AcDbBlockReference
  2
_CLOSEDFILLED
 10
-15.556349186104043
 20
15.556349186104047
 30
0.0
 41
1.4
 42
1.4
 50
315.0
  0
LINE
  5
11B
330
116
100
AcDbEntity
  8
0
 62
3
100
AcDbLine
 10
0.0
 20
0.0
 30
0.0
 11
-15.556349186104043
 21
15.556349186104047
 31
0.0
  0
LINE
  5
11C
330
116
100
AcDbEntity
  8
0
 62
3
100
AcDbLine
 10
-16.546298679765208
 20
16.546298679765215
 30
0.0
 11
-20.718228688765837
 21
20.718228688765848
 31
0.0
  0
MTEXT
  5
11D
330
116
100
AcDbEntity
  8
COTAS
 62
3
100
AcDbMText
 10
-17.819090885900994
 20
19.79898987322333
 30
0.0
 40
1.8
 71
5
  1
R22
  7
CAD
 50
315.0
  0
POINT
  5
11E
330
116
100
AcDbEntity
  8
Defpoints
100
AcDbPoint
 10
0.0
 20
0.0
 30
0.0
  0
POINT
  5
11F
330
116
100
AcDbEntity
  8
Defpoints
100
AcDbPoint
 10
-15.556349186104043
 20
15.556349186104047
 30
0.0
  0
ENDBLK
  5
118
330
116
100
AcDbEntity
  8
0
100
AcDbBlockEnd
  0
BLOCK
  5
1A9
330
1A8
100
AcDbEntity
  8
0
100
AcDbBlockBegin
  2
*Paper_Space0
 70
0
 10
0.0
 20
0.0
 30
0.0
  3
*Paper_Space0
  1

  0
VIEWPORT
  5
1AC
330
1A8
100
AcDbEntity
 67
1
  8
VIEWPORTS
100
AcDbViewport
 10
210.0
 20
148.5
 30
0.0
 40
462.00000000000006
 41
326.70000000000005
 68
1
 69
1
 12
210.0
 22
148.5
 13
0.0
 23
0.0
 14
10.0
 24
10.0
 15
10.0
 25
10.0
 16
0.0
 26
0.0
 36
1.0
 17
0.0
 27
0.0
 37
0.0
 42
50.0
 43
0.0
 44
0.0
 45
326.70000000000005
 50
0.0
 51
0.0
 72
100
 90
557088
  1

281
0
 71
0
 74
0
110
0.0
120
0.0
130
0.0
111
1.0
121
0.0
131
0.0
112
0.0
122
1.0
132
0.0
 79
0
146
0.0
282
0
  0
LWPOLYLINE
  5
1AD
330
1A8
100
AcDbEntity
 67
1
  8
FORMATO
100
AcDbPolyline
 90
4
 70
1
 43
0.5
 10
10.0
 20
10.0
 10
410.0
 20
10.0
 10
410.0
 20
287.0
 10
10.0
 20
287.0
  0
VIEWPORT
  5
1AE
330
1A8
100
AcDbEntity
 67
1
  8
VIEWPORT
100
AcDbViewport
 10
120.0
 20
175.0
 30
0.0
 40
214.0
 41
196.0
 68
2
 69
3
 12
-19.0
 22
-20.0
 13
0.0
 23
0.0
 14
10.0
 24
10.0
 15
10.0
 25
10.0
 16
0.0
 26
0.0
 36
1.0
 17
0.0
 27
0.0
 37
0.0
 42
50.0
 43
0.0
 44
0.0
 45
156.8
 50
0.0
 51
0.0
 72
100
 90
0
  1

281
0
 71
0
 74
0
110
0.0
120
0.0
130
0.0
111
1.0
121
0.0
131
0.0
112
0.0
122
1.0
132
0.0
 79
0
146
0.0
282
0
  0
VIEWPORT
  5
1AF
330
1A8
100
AcDbEntity
 67
1
  8
VIEWPORT
100
AcDbViewport
 10
120.0
 20
43.0
 30
0.0
 40
210.0
 41
62.0
 68
2
 69
4
 12
222.0
 22
-252.0
 13
0.0
 23
0.0
 14
10.0
 24
10.0
 15
10.0
 25
10.0
 16
0.0
 26
0.0
 36
1.0
 17
0.0
 27
0.0
 37
0.0
 42
50.0
 43
0.0
 44
0.0
 45
186.0
 50
0.0
 51
0.0
 72
100
 90
0
  1

281
0
 71
0
 74
0
110
0.0
120
0.0
130
0.0
111
1.0
121
0.0
131
0.0
112
0.0
122
1.0
132
0.0
 79
0
146
0.0
282
0
  0
TEXT
  5
1B0
330
1A8
100
AcDbEntity
 67
1
  8
TEXTO
100
AcDbText
 10
15.0
 20
279.0
 30
0.0
 40
3.5
  1
VISTA SAGITAL - POSE P1 (phi = 8,04 graus)   ESC. 5:4
  7
CAD
 11
15.0
 21
279.0
 31
0.0
100
AcDbText
  0
TEXT
  5
1B1
330
1A8
100
AcDbEntity
 67
1
  8
TEXTO
100
AcDbText
 10
15.0
 20
76.0
 30
0.0
 40
3.0
  1
SEQUENCIA DE FLEXAO   ESC. 1:3
  7
CAD
 11
15.0
 21
76.0
 31
0.0
100
AcDbText
  0
LINE
  5
1B2
330
1A8
100
AcDbEntity
 67
1
  8
FORMATO
100
AcDbLine
 10
10.0
 20
73.0
 30
0.0
 11
230.0
 21
73.0
 31
0.0
  0
LINE
  5
1B3
330
1A8
100
AcDbEntity
 67
1
  8
FORMATO
100
AcDbLine
 10
230.0
 20
10.0
 30
0.0
 11
230.0
 21
287.0
 31
0.0
  0
TEXT
  5
1B4
330
1A8
100
AcDbEntity
 67
1
  8
TEXTO
100
AcDbText
 10
236.0
 20
280.0
 30
0.0
 40
3.2
  1
DADOS DA SINTESE
  7
CAD
 11
236.0
 21
280.0
 31
0.0
100
AcDbText
  0
LINE
  5
1B5
330
1A8
100
AcDbEntity
 67
1
  8
FORMATO
100
AcDbLine
 10
236.0
 20
278.0
 30
0.0
 11
404.0
 21
278.0
 31
0.0
  0
TEXT
  5
1B6
330
1A8
100
AcDbEntity
 67
1
  8
TEXTO
100
AcDbText
 10
237.5
 20
273.8
 30
0.0
 40
2.5
  1
Raio do condilo R
  7
CAD
 11
237.5
 21
273.8
 31
0.0
100
AcDbText
  0
TEXT
  5
1B7
330
1A8
100
AcDbEntity
 67
1
  8
TEXTO
100
AcDbText
 10
332.5
 20
273.8
 30
0.0
 40
2.5
  1
22,0 mm
  7
CAD
 11
332.5
 21
273.8
 31
0.0
100
AcDbText
  0
LINE
  5
1B8
330
1A8
100
AcDbEntity
 67
1
  8
FORMATO
100
AcDbLine
 10
236.0
 20
272.0
 30
0.0
 11
404.0
 21
272.0
 31
0.0
  0
TEXT
  5
1B9
330
1A8
100
AcDbEntity
 67
1
  8
TEXTO
100
AcDbText
 10
237.5
 20
267.8
 30
0.0
 40
2.5
  1
Razao de rolamento k
  7
CAD
 11
237.5
 21
267.8
 31
0.0
100
AcDbText
  0
TEXT
  5
1BA
330
1A8
100
AcDbEntity
 67
1
  8
TEXTO
100
AcDbText
 10
332.5
 20
267.8
 30
0.0
 40
2.5
  1
0,50
  7
CAD
 11
332.5
 21
267.8
 31
0.0
100
AcDbText
  0
LINE
  5
1BB
330
1A8
100
AcDbEntity
 67
1
  8
FORMATO
100
AcDbLine
 10
236.0
 20
266.0
 30
0.0
 11
404.0
 21
266.0
 31
0.0
  0
TEXT
  5
1BC
330
1A8
100
AcDbEntity
 67
1
  8
TEXTO
100
AcDbText
 10
237.5
 20
261.8
 30
0.0
 40
2.5
  1
Contato inicial s0
  7
CAD
 11
237.5
 21
261.8
 31
0.0
100
AcDbText
  0
TEXT
  5
1BD
330
1A8
100
AcDbEntity
 67
1
  8
TEXTO
100
AcDbText
 10
332.5
 20
261.8
 30
0.0
 40
2.5
  1
3,0 mm
  7
CAD
 11
332.5
 21
261.8
 31
0.0
100
AcDbText
  0
LINE
  5
1BE
330
1A8
100
AcDbEntity
 67
1
  8
FORMATO
100
AcDbLine
 10
236.0
 20
260.0
 30
0.0
 11
404.0
 21
260.0
 31
0.0
  0
TEXT
  5
1BF
330
1A8
100
AcDbEntity
 67
1
  8
TEXTO
100
AcDbText
 10
237.5
 20
255.8
 30
0.0
 40
2.5
  1
Intervalo phi
  7
CAD
 11
237.5
 21
255.8
 31
0.0
100
AcDbText
  0
TEXT
  5
1C0
330
1A8
100
AcDbEntity
 67
1
  8
TEXTO
100
AcDbText
 10
332.5
 20
255.8
 30
0.0
 40
2.5
  1
0 a 120 graus
  7
CAD
 11
332.5
 21
255.8
 31
0.0
100
AcDbText
  0
LINE
  5
1C1
330
1A8
100
AcDbEntity
 67
1
  8
FORMATO
100
AcDbLine
 10
236.0
 20
254.0
 30
0.0
 11
404.0
 21
254.0
 31
0.0
  0
TEXT
  5
1C2
330
1A8
100
AcDbEntity
 67
1
  8
TEXTO
100
AcDbText
 10
237.5
 20
249.8
 30
0.0
 40
2.5
  1
A' (LCA na tibia)
  7
CAD
 11
237.5
 21
249.8
 31
0.0
100
AcDbText
  0
TEXT
  5
1C3
330
1A8
100
AcDbEntity
 67
1
  8
TEXTO
100
AcDbText
 10
332.5
 20
249.8
 30
0.0
 40
2.5
  1
(4,0; -12,0) mm
  7
CAD
 11
332.5
 21
249.8
 31
0.0
100
AcDbText
  0
LINE
  5
1C4
330
1A8
100
AcDbEntity
 67
1
  8
FORMATO
100
AcDbLine
 10
236.0
 20
248.0
 30
0.0
 11
404.0
 21
248.0
 31
0.0
  0
TEXT
  5
1C5
330
1A8
100
AcDbEntity
 67
1
  8
TEXTO
100
AcDbText
 10
237.5
 20
243.8
 30
0.0
 40
2.5
  1
B' (LCP na tibia)
  7
CAD
 11
237.5
 21
243.8
 31
0.0
100
AcDbText
  0
TEXT
  5
1C6
330
1A8
100
AcDbEntity
 67
1
  8
TEXTO
100
AcDbText
 10
332.5
 20
243.8
 30
0.0
 40
2.5
  1
(-18,0; -4,0) mm
  7
CAD
 11
332.5
 21
243.8
 31
0.0
100
AcDbText
  0
LINE
  5
1C7
330
1A8
100
AcDbEntity
 67
1
  8
FORMATO
100
AcDbLine
 10
236.0
 20
242.0
 30
0.0
 11
404.0
 21
242.0
 31
0.0
  0
LINE
  5
1C8
330
1A8
100
AcDbEntity
 67
1
  8
FORMATO
100
AcDbLine
 10
236.0
 20
278.0
 30
0.0
 11
236.0
 21
242.0
 31
0.0
  0
LINE
  5
1C9
330
1A8
100
AcDbEntity
 67
1
  8
FORMATO
100
AcDbLine
 10
331.0
 20
278.0
 30
0.0
 11
331.0
 21
242.0
 31
0.0
  0
LINE
  5
1CA
330
1A8
100
AcDbEntity
 67
1
  8
FORMATO
100
AcDbLine
 10
404.0
 20
278.0
 30
0.0
 11
404.0
 21
242.0
 31
0.0
  0
TEXT
  5
1CB
330
1A8
100
AcDbEntity
 67
1
  8
TEXTO
100
AcDbText
 10
236.0
 20
232.0
 30
0.0
 40
3.2
  1
POSES DE PRECISAO (Chebyshev)
  7
CAD
 11
236.0
 21
232.0
 31
0.0
100
AcDbText
  0
LINE
  5
1CC
330
1A8
100
AcDbEntity
 67
1
  8
FORMATO
100
AcDbLine
 10
236.0
 20
230.0
 30
0.0
 11
404.0
 21
230.0
 31
0.0
  0
TEXT
  5
1CD
330
1A8
100
AcDbEntity
 67
1
  8
TEXTO
100
AcDbText
 10
237.5
 20
225.8
 30
0.0
 40
2.5
  1
Pose
  7
CAD
 11
237.5
 21
225.8
 31
0.0
100
AcDbText
  0
TEXT
  5
1CE
330
1A8
100
AcDbEntity
 67
1
  8
TEXTO
100
AcDbText
 10
255.5
 20
225.8
 30
0.0
 40
2.5
  1
phi (graus)
  7
CAD
 11
255.5
 21
225.8
 31
0.0
100
AcDbText
  0
TEXT
  5
1CF
330
1A8
100
AcDbEntity
 67
1
  8
TEXTO
100
AcDbText
 10
285.5
 20
225.8
 30
0.0
 40
2.5
  1
A j (mm)
  7
CAD
 11
285.5
 21
225.8
 31
0.0
100
AcDbText
  0
TEXT
  5
1D0
330
1A8
100
AcDbEntity
 67
1
  8
TEXTO
100
AcDbText
 10
345.5
 20
225.8
 30
0.0
 40
2.5
  1
B j (mm)
  7
CAD
 11
345.5
 21
225.8
 31
0.0
100
AcDbText
  0
LINE
  5
1D1
330
1A8
100
AcDbEntity
 67
1
  8
FORMATO
100
AcDbLine
 10
236.0
 20
224.0
 30
0.0
 11
404.0
 21
224.0
 31
0.0
  0
TEXT
  5
1D2
330
1A8
100
AcDbEntity
 67
1
  8
TEXTO
100
AcDbText
 10
237.5
 20
219.8
 30
0.0
 40
2.5
  1
P1
  7
CAD
 11
237.5
 21
219.8
 31
0.0
100
AcDbText
  0
TEXT
  5
1D3
330
1A8
100
AcDbEntity
 67
1
  8
TEXTO
100
AcDbText
 10
255.5
 20
219.8
 30
0.0
 40
2.5
  1
8,04
  7
CAD
 11
255.5
 21
219.8
 31
0.0
100
AcDbText
  0
TEXT
  5
1D4
330
1A8
100
AcDbEntity
 67
1
  8
TEXTO
100
AcDbText
 10
285.5
 20
219.8
 30
0.0
 40
2.5
  1
(-2,2; -34,0)
  7
CAD
 11
285.5
 21
219.8
 31
0.0
100
AcDbText
  0
TEXT
  5
1D5
330
1A8
100
AcDbEntity
 67
1
  8
TEXTO
100
AcDbText
 10
345.5
 20
219.8
 30
0.0
 40
2.5
  1
(-22,9; -23,0)
  7
CAD
 11
345.5
 21
219.8
 31
0.0
100
AcDbText
  0
LINE
  5
1D6
330
1A8
100
AcDbEntity
 67
1
  8
FORMATO
100
AcDbLine
 10
236.0
 20
218.0
 30
0.0
 11
404.0
 21
218.0
 31
0.0
  0
TEXT
  5
1D7
330
1A8
100
AcDbEntity
 67
1
  8
TEXTO
100
AcDbText
 10
237.5
 20
213.8
 30
0.0
 40
2.5
  1
P2
  7
CAD
 11
237.5
 21
213.8
 31
0.0
100
AcDbText
  0
TEXT
  5
1D8
330
1A8
100
AcDbEntity
 67
1
  8
TEXTO
100
AcDbText
 10
255.5
 20
213.8
 30
0.0
 40
2.5
  1
60,00
  7
CAD
 11
255.5
 21
213.8
 31
0.0
100
AcDbText
  0
TEXT
  5
1D9
330
1A8
100
AcDbEntity
 67
1
  8
TEXTO
100
AcDbText
 10
285.5
 20
213.8
 30
0.0
 40
2.5
  1
(-23,2; -27,8)
  7
CAD
 11
285.5
 21
213.8
 31
0.0
100
AcDbText
  0
TEXT
  5
1DA
330
1A8
100
AcDbEntity
 67
1
  8
TEXTO
100
AcDbText
 10
345.5
 20
213.8
 30
0.0
 40
2.5
  1
(-27,3; -4,8)
  7
CAD
 11
345.5
 21
213.8
 31
0.0
100
AcDbText
  0
LINE
  5
1DB
330
1A8
100
AcDbEntity
 67
1
  8
FORMATO
100
AcDbLine
 10
236.0
 20
212.0
 30
0.0
 11
404.0
 21
212.0
 31
0.0
  0
TEXT
  5
1DC
330
1A8
100
AcDbEntity
 67
1
  8
TEXTO
100
AcDbText
 10
237.5
 20
207.8
 30
0.0
 40
2.5
  1
P3
  7
CAD
 11
237.5
 21
207.8
 31
0.0
100
AcDbText
  0
TEXT
  5
1DD
330
1A8
100
AcDbEntity
 67
1
  8
TEXTO
100
AcDbText
 10
255.5
 20
207.8
 30
0.0
 40
2.5
  1
111,96
  7
CAD
 11
255.5
 21
207.8
 31
0.0
100
AcDbText
  0
TEXT
  5
1DE
330
1A8
100
AcDbEntity
 67
1
  8
TEXTO
100
AcDbText
 10
285.5
 20
207.8
 30
0.0
 40
2.5
  1
(-39,9; -8,1)
  7
CAD
 11
285.5
 21
207.8
 31
0.0
100
AcDbText
  0
TEXT
  5
1DF
330
1A8
100
AcDbEntity
 67
1
  8
TEXTO
100
AcDbText
 10
345.5
 20
207.8
 30
0.0
 40
2.5
  1
(-24,3; 9,3)
  7
CAD
 11
345.5
 21
207.8
 31
0.0
100
AcDbText
  0
LINE
  5
1E0
330
1A8
100
AcDbEntity
 67
1
  8
FORMATO
100
AcDbLine
 10
236.0
 20
206.0
 30
0.0
 11
404.0
 21
206.0
 31
0.0
  0
LINE
  5
1E1
330
1A8
100
AcDbEntity
 67
1
  8
FORMATO
100
AcDbLine
 10
236.0
 20
230.0
 30
0.0
 11
236.0
 21
206.0
 31
0.0
  0
LINE
  5
1E2
330
1A8
100
AcDbEntity
 67
1
  8
FORMATO
100
AcDbLine
 10
254.0
 20
230.0
 30
0.0
 11
254.0
 21
206.0
 31
0.0
  0
LINE
  5
1E3
330
1A8
100
AcDbEntity
 67
1
  8
FORMATO
100
AcDbLine
 10
284.0
 20
230.0
 30
0.0
 11
284.0
 21
206.0
 31
0.0
  0
LINE
  5
1E4
330
1A8
100
AcDbEntity
 67
1
  8
FORMATO
100
AcDbLine
 10
344.0
 20
230.0
 30
0.0
 11
344.0
 21
206.0
 31
0.0
  0
LINE
  5
1E5
330
1A8
100
AcDbEntity
 67
1
  8
FORMATO
100
AcDbLine
 10
404.0
 20
230.0
 30
0.0
 11
404.0
 21
206.0
 31
0.0
  0
TEXT
  5
1E6
330
1A8
100
AcDbEntity
 67
1
  8
TEXTO
100
AcDbText
 10
236.0
 20
196.0
 30
0.0
 40
3.2
  1
RESULTADO
  7
CAD
 11
236.0
 21
196.0
 31
0.0
100
AcDbText
  0
LINE
  5
1E7
330
1A8
100
AcDbEntity
 67
1
  8
FORMATO
100
AcDbLine
 10
236.0
 20
194.0
 30
0.0
 11
404.0
 21
194.0
 31
0.0
  0
TEXT
  5
1E8
330
1A8
100
AcDbEntity
 67
1
  8
TEXTO
100
AcDbText
 10
237.5
 20
189.8
 30
0.0
 40
2.5
  1
Pivo fixo O2 (LCA)
  7
CAD
 11
237.5
 21
189.8
 31
0.0
100
AcDbText
  0
TEXT
  5
1E9
330
1A8
100
AcDbEntity
 67
1
  8
TEXTO
100
AcDbText
 10
332.5
 20
189.8
 30
0.0
 40
2.5
  1
(-1,30; 7,77) mm
  7
CAD
 11
332.5
 21
189.8
 31
0.0
100
AcDbText
  0
LINE
  5
1EA
330
1A8
100
AcDbEntity
 67
1
  8
FORMATO
100
AcDbLine
 10
236.0
 20
188.0
 30
0.0
 11
404.0
 21
188.0
 31
0.0
  0
TEXT
  5
1EB
330
1A8
100
AcDbEntity
 67
1
  8
TEXTO
100
AcDbText
 10
237.5
 20
183.8
 30
0.0
 40
2.5
  1
Pivo fixo O4 (LCP)
  7
CAD
 11
237.5
 21
183.8
 31
0.0
100
AcDbText
  0
TEXT
  5
1EC
330
1A8
100
AcDbEntity
 67
1
  8
TEXTO
100
AcDbText
 10
332.5
 20
183.8
 30
0.0
 40
2.5
  1
(10,52; -5,40) mm
  7
CAD
 11
332.5
 21
183.8
 31
0.0
100
AcDbText
  0
LINE
  5
1ED
330
1A8
100
AcDbEntity
 67
1
  8
FORMATO
100
AcDbLine
 10
236.0
 20
182.0
 30
0.0
 11
404.0
 21
182.0
 31
0.0
  0
TEXT
  5
1EE
330
1A8
100
AcDbEntity
 67
1
  8
TEXTO
100
AcDbText
 10
237.5
 20
177.8
 30
0.0
 40
2.5
  1
a  LCA (barra 2)
  7
CAD
 11
237.5
 21
177.8
 31
0.0
100
AcDbText
  0
TEXT
  5
1EF
330
1A8
100
AcDbEntity
 67
1
  8
TEXTO
100
AcDbText
 10
332.5
 20
177.8
 30
0.0
 40
2.5
  1
41,80 mm
  7
CAD
 11
332.5
 21
177.8
 31
0.0
100
AcDbText
  0
LINE
  5
1F0
330
1A8
100
AcDbEntity
 67
1
  8
FORMATO
100
AcDbLine
 10
236.0
 20
176.0
 30
0.0
 11
404.0
 21
176.0
 31
0.0
  0
TEXT
  5
1F1
330
1A8
100
AcDbEntity
 67
1
  8
TEXTO
100
AcDbText
 10
237.5
 20
171.8
 30
0.0
 40
2.5
  1
b  tibia AB (barra 3)
  7
CAD
 11
237.5
 21
171.8
 31
0.0
100
AcDbText
  0
TEXT
  5
1F2
330
1A8
100
AcDbEntity
 67
1
  8
TEXTO
100
AcDbText
 10
332.5
 20
171.8
 30
0.0
 40
2.5
  1
23,41 mm
  7
CAD
 11
332.5
 21
171.8
 31
0.0
100
AcDbText
  0
LINE
  5
1F3
330
1A8
100
AcDbEntity
 67
1
  8
FORMATO
100
AcDbLine
 10
236.0
 20
170.0
 30
0.0
 11
404.0
 21
170.0
 31
0.0
  0
TEXT
  5
1F4
330
1A8
100
AcDbEntity
 67
1
  8
TEXTO
100
AcDbText
 10
237.5
 20
165.8
 30
0.0
 40
2.5
  1
c  LCP (barra 4)
  7
CAD
 11
237.5
 21
165.8
 31
0.0
100
AcDbText
  0
TEXT
  5
1F5
330
1A8
100
AcDbEntity
 67
1
  8
TEXTO
100
AcDbText
 10
332.5
 20
165.8
 30
0.0
 40
2.5
  1
37,78 mm
  7
CAD
 11
332.5
 21
165.8
 31
0.0
100
AcDbText
  0
LINE
  5
1F6
330
1A8
100
AcDbEntity
 67
1
  8
FORMATO
100
AcDbLine
 10
236.0
 20
164.0
 30
0.0
 11
404.0
 21
164.0
 31
0.0
  0
TEXT
  5
1F7
330
1A8
100
AcDbEntity
 67
1
  8
TEXTO
100
AcDbText
 10
237.5
 20
159.8
 30
0.0
 40
2.5
  1
d  femur O2O4 (barra 1)
  7
CAD
 11
237.5
 21
159.8
 31
0.0
100
AcDbText
  0
TEXT
  5
1F8
330
1A8
100
AcDbEntity
 67
1
  8
TEXTO
100
AcDbText
 10
332.5
 20
159.8
 30
0.0
 40
2.5
  1
17,69 mm
  7
CAD
 11
332.5
 21
159.8
 31
0.0
100
AcDbText
  0
LINE
  5
1F9
330
1A8
100
AcDbEntity
 67
1
  8
FORMATO
100
AcDbLine
 10
236.0
 20
158.0
 30
0.0
 11
404.0
 21
158.0
 31
0.0
  0
TEXT
  5
1FA
330
1A8
100
AcDbEntity
 67
1
  8
TEXTO
100
AcDbText
 10
237.5
 20
153.8
 30
0.0
 40
2.5
  1
Classificacao
  7
CAD
 11
237.5
 21
153.8
 31
0.0
100
AcDbText
  0
TEXT
  5
1FB
330
1A8
100
AcDbEntity
 67
1
  8
TEXTO
100
AcDbText
 10
332.5
 20
153.8
 30
0.0
 40
2.5
  1
Grashof - dupla manivela
  7
CAD
 11
332.5
 21
153.8
 31
0.0
100
AcDbText
  0
LINE
  5
1FC
330
1A8
100
AcDbEntity
 67
1
  8
FORMATO
100
AcDbLine
 10
236.0
 20
152.0
 30
0.0
 11
404.0
 21
152.0
 31
0.0
  0
TEXT
  5
1FD
330
1A8
100
AcDbEntity
 67
1
  8
TEXTO
100
AcDbText
 10
237.5
 20
147.8
 30
0.0
 40
2.5
  1
mu minimo (0-120 graus)
  7
CAD
 11
237.5
 21
147.8
 31
0.0
100
AcDbText
  0
TEXT
  5
1FE
330
1A8
100
AcDbEntity
 67
1
  8
TEXTO
100
AcDbText
 10
332.5
 20
147.8
 30
0.0
 40
2.5
  1
53,0 graus
  7
CAD
 11
332.5
 21
147.8
 31
0.0
100
AcDbText
  0
LINE
  5
1FF
330
1A8
100
AcDbEntity
 67
1
  8
FORMATO
100
AcDbLine
 10
236.0
 20
146.0
 30
0.0
 11
404.0
 21
146.0
 31
0.0
  0
TEXT
  5
200
330
1A8
100
AcDbEntity
 67
1
  8
TEXTO
100
AcDbText
 10
237.5
 20
141.8
 30
0.0
 40
2.5
  1
Erro estrutural max.
  7
CAD
 11
237.5
 21
141.8
 31
0.0
100
AcDbText
  0
TEXT
  5
201
330
1A8
100
AcDbEntity
 67
1
  8
TEXTO
100
AcDbText
 10
332.5
 20
141.8
 30
0.0
 40
2.5
  1
0,184 mm
  7
CAD
 11
332.5
 21
141.8
 31
0.0
100
AcDbText
  0
LINE
  5
202
330
1A8
100
AcDbEntity
 67
1
  8
FORMATO
100
AcDbLine
 10
236.0
 20
140.0
 30
0.0
 11
404.0
 21
140.0
 31
0.0
  0
LINE
  5
203
330
1A8
100
AcDbEntity
 67
1
  8
FORMATO
100
AcDbLine
 10
236.0
 20
194.0
 30
0.0
 11
236.0
 21
140.0
 31
0.0
  0
LINE
  5
204
330
1A8
100
AcDbEntity
 67
1
  8
FORMATO
100
AcDbLine
 10
331.0
 20
194.0
 30
0.0
 11
331.0
 21
140.0
 31
0.0
  0
LINE
  5
205
330
1A8
100
AcDbEntity
 67
1
  8
FORMATO
100
AcDbLine
 10
404.0
 20
194.0
 30
0.0
 11
404.0
 21
140.0
 31
0.0
  0
TEXT
  5
206
330
1A8
100
AcDbEntity
 67
1
  8
TEXTO
100
AcDbText
 10
236.0
 20
130.0
 30
0.0
 40
3.2
  1
LEGENDA
  7
CAD
 11
236.0
 21
130.0
 31
0.0
100
AcDbText
  0
LINE
  5
207
330
1A8
100
AcDbEntity
 67
1
  8
LCA_BARRA2
370
50
100
AcDbLine
 10
238.0
 20
125.0
 30
0.0
 11
252.0
 21
125.0
 31
0.0
  0
TEXT
  5
208
330
1A8
100
AcDbEntity
 67
1
  8
TEXTO
100
AcDbText
 10
256.0
 20
124.0
 30
0.0
 40
2.5
  1
LCA - barra 2
  7
CAD
 11
256.0
 21
124.0
 31
0.0
100
AcDbText
  0
LINE
  5
209
330
1A8
100
AcDbEntity
 67
1
  8
LCP_BARRA4
370
50
100
AcDbLine
 10
238.0
 20
120.0
 30
0.0
 11
252.0
 21
120.0
 31
0.0
  0
TEXT
  5
20A
330
1A8
100
AcDbEntity
 67
1
  8
TEXTO
100
AcDbText
 10
256.0
 20
119.0
 30
0.0
 40
2.5
  1
LCP - barra 4
  7
CAD
 11
256.0
 21
119.0
 31
0.0
100
AcDbText
  0
LINE
  5
20B
330
1A8
100
AcDbEntity
 67
1
  8
ACOPLADOR_AB
370
50
100
AcDbLine
 10
238.0
 20
115.0
 30
0.0
 11
252.0
 21
115.0
 31
0.0
  0
TEXT
  5
20C
330
1A8
100
AcDbEntity
 67
1
  8
TEXTO
100
AcDbText
 10
256.0
 20
114.0
 30
0.0
 40
2.5
  1
Tibia - acoplador 3
  7
CAD
 11
256.0
 21
114.0
 31
0.0
100
AcDbText
  0
LINE
  5
20D
330
1A8
100
AcDbEntity
 67
1
  8
CENTROIDE
370
50
100
AcDbLine
 10
238.0
 20
110.0
 30
0.0
 11
252.0
 21
110.0
 31
0.0
  0
TEXT
  5
20E
330
1A8
100
AcDbEntity
 67
1
  8
TEXTO
100
AcDbText
 10
256.0
 20
109.0
 30
0.0
 40
2.5
  1
Centroide fixa / CI
  7
CAD
 11
256.0
 21
109.0
 31
0.0
100
AcDbText
  0
LINE
  5
20F
330
1A8
100
AcDbEntity
 67
1
  8
POSES_PRECISAO
370
50
100
AcDbLine
 10
238.0
 20
105.0
 30
0.0
 11
252.0
 21
105.0
 31
0.0
  0
TEXT
  5
210
330
1A8
100
AcDbEntity
 67
1
  8
TEXTO
100
AcDbText
 10
256.0
 20
104.0
 30
0.0
 40
2.5
  1
Poses de precisao P1-P3
  7
CAD
 11
256.0
 21
104.0
 31
0.0
100
AcDbText
  0
LWPOLYLINE
  5
211
330
1A8
100
AcDbEntity
 67
1
  8
FORMATO
100
AcDbPolyline
 90
4
 70
1
 10
236.0
 20
16.0
 10
404.0
 20
16.0
 10
404.0
 20
52.0
 10
236.0
 20
52.0
  0
LINE
  5
212
330
1A8
100
AcDbEntity
 67
1
  8
FORMATO
100
AcDbLine
 10
236.0
 20
40.0
 30
0.0
 11
404.0
 21
40.0
 31
0.0
  0
LINE
  5
213
330
1A8
100
AcDbEntity
 67
1
  8
FORMATO
100
AcDbLine
 10
236.0
 20
28.0
 30
0.0
 11
404.0
 21
28.0
 31
0.0
  0
LINE
  5
214
330
1A8
100
AcDbEntity
 67
1
  8
FORMATO
100
AcDbLine
 10
330.0
 20
16.0
 30
0.0
 11
330.0
 21
40.0
 31
0.0
  0
TEXT
  5
215
330
1A8
100
AcDbEntity
 67
1
  8
TEXTO
100
AcDbText
 10
239.0
 20
44.0
 30
0.0
 40
3.8
  1
JOELHO DE QUATRO BARRAS - QUADRILATERO CRUZADO
  7
CAD
 11
239.0
 21
44.0
 31
0.0
100
AcDbText
  0
TEXT
  5
216
330
1A8
100
AcDbEntity
 67
1
  8
TEXTO
100
AcDbText
 10
239.0
 20
32.0
 30
0.0
 40
2.8
  1
Projeto de mecanismos - sintese de 3 posicoes
  7
CAD
 11
239.0
 21
32.0
 31
0.0
100
AcDbText
  0
TEXT
  5
217
330
1A8
100
AcDbEntity
 67
1
  8
TEXTO
100
AcDbText
 10
239.0
 20
20.0
 30
0.0
 40
2.8
  1
Unidades: mm   |   Model 1:1
  7
CAD
 11
239.0
 21
20.0
 31
0.0
100
AcDbText
  0
TEXT
  5
218
330
1A8
100
AcDbEntity
 67
1
  8
TEXTO
100
AcDbText
 10
333.0
 20
32.0
 30
0.0
 40
2.8
  1
Folha A3
  7
CAD
 11
333.0
 21
32.0
 31
0.0
100
AcDbText
  0
TEXT
  5
219
330
1A8
100
AcDbEntity
 67
1
  8
TEXTO
100
AcDbText
 10
333.0
 20
20.0
 30
0.0
 40
2.8
  1
Desenho 01/01
  7
CAD
 11
333.0
 21
20.0
 31
0.0
100
AcDbText
  0
ENDBLK
  5
1AA
330
1A8
100
AcDbEntity
  8
0
100
AcDbBlockEnd
  0
ENDSEC
  0
SECTION
  2
ENTITIES
  0
LWPOLYLINE
  5
9C
330
17
100
AcDbEntity
  8
FEMUR
100
AcDbPolyline
 90
4
 70
1
 10
15.0
 20
16.09347693943108
 10
15.0
 20
50.0
 10
-15.0
 20
50.0
 10
-15.0
 20
16.09347693943108
 42
2.5395651292954056
  0
HATCH
  5
9D
330
17
100
AcDbEntity
  8
FEMUR
 62
254
100
AcDbHatch
 10
0.0
 20
0.0
 30
0.0
210
0.0
220
0.0
230
1.0
  2
SOLID
 70
1
 71
0
 91
1
 92
3
 72
1
 73
1
 93
4
 10
15.0
 20
16.09347693943108
 42
0.0
 10
15.0
 20
50.0
 42
0.0
 10
-15.0
 20
50.0
 42
0.0
 10
-15.0
 20
16.09347693943108
 42
2.5395651292954056
 97
0
 75
0
 76
1
 98
0
  0
CIRCLE
  5
9E
330
17
100
AcDbEntity
  8
CONDILO_REF
100
AcDbCircle
 10
0.0
 20
0.0
 30
0.0
 40
22.0
  0
LWPOLYLINE
  5
9F
330
17
100
AcDbEntity
  8
TIBIA_BARRA3
100
AcDbPolyline
 90
8
 70
1
 10
-34.22407922996684
 20
-17.38498922776487
 10
19.24533765211383
 20
-24.936244639301883
 10
17.27629682317235
 20
-31.727627283061658
 10
7.956521097764657
 20
-40.51066664470074
 10
-0.31654051859324994
 20
-84.7888379200814
 10
-26.061074572928387
 20
-81.1530482774895
 10
-21.74871050339127
 20
-36.3155247494024
 10
-32.51209863844075
 20
-26.71607289764148
  0
HATCH
  5
A0
330
17
100
AcDbEntity
  8
TIBIA_BARRA3
 62
254
100
AcDbHatch
 10
0.0
 20
0.0
 30
0.0
210
0.0
220
0.0
230
1.0
  2
SOLID
 70
1
 71
0
 91
1
 92
3
 72
0
 73
1
 93
8
 10
-34.22407922996684
 20
-17.38498922776487
 10
19.24533765211383
 20
-24.936244639301883
 10
17.27629682317235
 20
-31.727627283061658
 10
7.956521097764657
 20
-40.51066664470074
 10
-0.31654051859324994
 20
-84.7888379200814
 10
-26.061074572928387
 20
-81.1530482774895
 10
-21.74871050339127
 20
-36.3155247494024
 10
-32.51209863844075
 20
-26.71607289764148
 97
0
 75
0
 76
1
 98
0
  0
LINE
  5
A1
330
17
100
AcDbEntity
  8
ACOPLADOR_AB
100
AcDbLine
 10
-2.2362068401094604
 20
-34.021576016232025
 30
0.0
 11
-22.901338842210915
 21
-23.023743532704994
 31
0.0
  0
LINE
  5
A2
330
17
100
AcDbEntity
  8
LCA_BARRA2
100
AcDbLine
 10
-1.2957490984523385
 20
7.765156331825876
 30
0.0
 11
-2.2362068401094604
 21
-34.021576016232025
 31
0.0
  0
LINE
  5
A3
330
17
100
AcDbEntity
  8
LCP_BARRA4
100
AcDbLine
 10
10.51758649629083
 20
-5.403374292515921
 30
0.0
 11
-22.901338842210915
 21
-23.023743532704994
 31
0.0
  0
LWPOLYLINE
  5
A4
330
17
100
AcDbEntity
  8
PIVOS
100
AcDbPolyline
 90
3
 70
1
 10
-1.2957490984523385
 20
7.765156331825876
 10
-4.495749098452339
 20
13.265156331825876
 10
1.9042509015476616
 20
13.265156331825876
  0
LINE
  5
A5
330
17
100
AcDbEntity
  8
PIVOS
100
AcDbLine
 10
-5.7957490984523385
 20
13.265156331825876
 30
0.0
 11
3.2042509015476615
 21
13.265156331825876
 31
0.0
  0
LINE
  5
A6
330
17
100
AcDbEntity
  8
PIVOS
100
AcDbLine
 10
-5.2957490984523385
 20
13.265156331825876
 30
0.0
 11
-3.4957490984523387
 21
15.065156331825875
 31
0.0
  0
LINE
  5
A7
330
17
100
AcDbEntity
  8
PIVOS
100
AcDbLine
 10
-2.6957490984523385
 20
13.265156331825876
 30
0.0
 11
-0.8957490984523384
 21
15.065156331825875
 31
0.0
  0
LINE
  5
A8
330
17
100
AcDbEntity
  8
PIVOS
100
AcDbLine
 10
-0.09574909845233837
 20
13.265156331825876
 30
0.0
 11
1.7042509015476615
 21
15.065156331825875
 31
0.0
  0
LINE
  5
A9
330
17
100
AcDbEntity
  8
PIVOS
100
AcDbLine
 10
2.504250901547662
 20
13.265156331825876
 30
0.0
 11
4.304250901547662
 21
15.065156331825875
 31
0.0
  0
CIRCLE
  5
AA
330
17
100
AcDbEntity
  8
PIVOS
100
AcDbCircle
 10
-1.2957490984523385
 20
7.765156331825876
 30
0.0
 40
1.6
  0
LINE
  5
AB
330
17
100
AcDbEntity
  8
EIXOS
100
AcDbLine
 10
-2.2557490984523385
 20
7.765156331825876
 30
0.0
 11
-0.3357490984523386
 21
7.765156331825876
 31
0.0
  0
LINE
  5
AC
330
17
100
AcDbEntity
  8
EIXOS
100
AcDbLine
 10
-1.2957490984523385
 20
6.805156331825876
 30
0.0
 11
-1.2957490984523385
 21
8.725156331825875
 31
0.0
  0
LWPOLYLINE
  5
AD
330
17
100
AcDbEntity
  8
PIVOS
100
AcDbPolyline
 90
3
 70
1
 10
10.51758649629083
 20
-5.403374292515921
 10
7.31758649629083
 20
0.09662570748407884
 10
13.717586496290831
 20
0.09662570748407884
  0
LINE
  5
AE
330
17
100
AcDbEntity
  8
PIVOS
100
AcDbLine
 10
6.01758649629083
 20
0.09662570748407884
 30
0.0
 11
15.01758649629083
 21
0.09662570748407884
 31
0.0
  0
LINE
  5
AF
330
17
100
AcDbEntity
  8
PIVOS
100
AcDbLine
 10
6.51758649629083
 20
0.09662570748407884
 30
0.0
 11
8.31758649629083
 21
1.8966257074840787
 31
0.0
  0
LINE
  5
B0
330
17
100
AcDbEntity
  8
PIVOS
100
AcDbLine
 10
9.11758649629083
 20
0.09662570748407884
 30
0.0
 11
10.91758649629083
 21
1.8966257074840787
 31
0.0
  0
LINE
  5
B1
330
17
100
AcDbEntity
  8
PIVOS
100
AcDbLine
 10
11.717586496290831
 20
0.09662570748407884
 30
0.0
 11
13.51758649629083
 21
1.8966257074840787
 31
0.0
  0
LINE
  5
B2
330
17
100
AcDbEntity
  8
PIVOS
100
AcDbLine
 10
14.317586496290831
 20
0.09662570748407884
 30
0.0
 11
16.11758649629083
 21
1.8966257074840787
 31
0.0
  0
CIRCLE
  5
B3
330
17
100
AcDbEntity
  8
PIVOS
100
AcDbCircle
 10
10.51758649629083
 20
-5.403374292515921
 30
0.0
 40
1.6
  0
LINE
  5
B4
330
17
100
AcDbEntity
  8
EIXOS
100
AcDbLine
 10
9.557586496290831
 20
-5.403374292515921
 30
0.0
 11
11.47758649629083
 21
-5.403374292515921
 31
0.0
  0
LINE
  5
B5
330
17
100
AcDbEntity
  8
EIXOS
100
AcDbLine
 10
10.51758649629083
 20
-6.363374292515921
 30
0.0
 11
10.51758649629083
 21
-4.443374292515921
 31
0.0
  0
CIRCLE
  5
B6
330
17
100
AcDbEntity
  8
PIVOS
100
AcDbCircle
 10
-2.2362068401094604
 20
-34.021576016232025
 30
0.0
 40
1.6
  0
LINE
  5
B7
330
17
100
AcDbEntity
  8
EIXOS
100
AcDbLine
 10
-3.1962068401094603
 20
-34.021576016232025
 30
0.0
 11
-1.2762068401094604
 21
-34.021576016232025
 31
0.0
  0
LINE
  5
B8
330
17
100
AcDbEntity
  8
EIXOS
100
AcDbLine
 10
-2.2362068401094604
 20
-34.981576016232026
 30
0.0
 11
-2.2362068401094604
 21
-33.061576016232024
 31
0.0
  0
CIRCLE
  5
B9
330
17
100
AcDbEntity
  8
PIVOS
100
AcDbCircle
 10
-22.901338842210915
 20
-23.023743532704994
 30
0.0
 40
1.6
  0
LINE
  5
BA
330
17
100
AcDbEntity
  8
EIXOS
100
AcDbLine
 10
-23.861338842210916
 20
-23.023743532704994
 30
0.0
 11
-21.941338842210914
 21
-23.023743532704994
 31
0.0
  0
LINE
  5
BB
330
17
100
AcDbEntity
  8
EIXOS
100
AcDbLine
 10
-22.901338842210915
 20
-23.983743532704995
 30
0.0
 11
-22.901338842210915
 21
-22.063743532704994
 31
0.0
  0
LWPOLYLINE
  5
BC
330
17
100
AcDbEntity
  8
POSES_PRECISAO
100
AcDbPolyline
 90
8
 70
1
 10
-34.224079229966854
 20
-17.384989227764866
 10
19.245337652113818
 20
-24.93624463930188
 10
17.276296823172338
 20
-31.72762728306165
 10
7.956521097764646
 20
-40.510666644700734
 10
-0.3165405185932615
 20
-84.7888379200814
 10
-26.061074572928398
 20
-81.1530482774895
 10
-21.74871050339128
 20
-36.3155247494024
 10
-32.51209863844076
 20
-26.716072897641478
  0
TEXT
  5
BD
330
17
100
AcDbEntity
  8
POSES_PRECISAO
100
AcDbText
 10
-13.887997861643889
 20
-87.92181503231144
 30
0.0
 40
2.5
  1
P1
  7
CAD
 72
1
 11
-13.887997861643889
 21
-87.92181503231144
 31
0.0
100
AcDbText
 73
2
  0
LWPOLYLINE
  5
BE
330
17
100
AcDbEntity
  8
POSES_PRECISAO
100
AcDbPolyline
 90
8
 70
1
 10
-29.792972351676365
 20
7.602941821598275
 10
-2.792972351676358
 20
-39.16242998276141
 10
-9.355150178167431
 20
-41.79640457897697
 10
-22.015404216011817
 20
-39.86820134870146
 10
-61.98654738631156
 20
-60.636150541132594
 10
-74.98654738631156
 20
-38.11949004273718
 10
-37.01540421601182
 20
-13.887439235168305
 10
-36.08720098573632
 20
0.5048656102449591
  0
LINE
  5
BF
330
17
100
AcDbEntity
  8
POSES_PRECISAO
100
AcDbLine
 10
-1.2957490984523385
 20
7.765156331825876
 30
0.0
 11
-23.185277197089626
 21
-27.84192190707264
 31
0.0
  0
LINE
  5
C0
330
17
100
AcDbEntity
  8
POSES_PRECISAO
100
AcDbLine
 10
10.51758649629083
 20
-5.403374292515921
 30
0.0
 11
-27.25707396681412
 21
-4.789363023814987
 31
0.0
  0
LINE
  5
C1
330
17
100
AcDbEntity
  8
POSES_PRECISAO
100
AcDbLine
 10
-23.185277197089626
 20
-27.84192190707264
 30
0.0
 11
-27.25707396681412
 21
-4.789363023814987
 31
0.0
  0
TEXT
  5
C2
330
17
100
AcDbEntity
  8
POSES_PRECISAO
100
AcDbText
 10
-72.81667440523375
 20
-51.87782029193489
 30
0.0
 40
2.5
  1
P2
  7
CAD
 72
1
 11
-72.81667440523375
 21
-51.87782029193489
 31
0.0
100
AcDbText
 73
2
  0
LWPOLYLINE
  5
C3
330
17
100
AcDbEntity
  8
POSES_PRECISAO
100
AcDbPolyline
 90
8
 70
1
 10
-16.100916000082098
 20
18.89772283210619
 10
-36.296045424266666
 20
-31.183778219084708
 10
-42.41410797860281
 20
-27.638455866853544
 10
-48.696588999314514
 20
-16.479135447383676
 10
-89.68320545218899
 20
2.2050094820734945
 10
-79.95962461832234
 20
26.31832480301726
 10
-37.47707265254532
 20
11.343920692166822
 10
-25.56978447662417
 20
19.481272122181903
  0
LINE
  5
C4
330
17
100
AcDbEntity
  8
POSES_PRECISAO
100
AcDbLine
 10
-1.2957490984523385
 20
7.765156331825876
 30
0.0
 11
-39.945590315574066
 21
-8.14726758734336
 31
0.0
  0
LINE
  5
C5
330
17
100
AcDbEntity
  8
POSES_PRECISAO
100
AcDbLine
 10
10.51758649629083
 20
-5.403374292515921
 30
0.0
 11
-24.298463357396514
 21
9.264435889188551
 31
0.0
  0
LINE
  5
C6
330
17
100
AcDbEntity
  8
POSES_PRECISAO
100
AcDbLine
 10
-39.945590315574066
 20
-8.14726758734336
 30
0.0
 11
-24.298463357396514
 21
9.264435889188551
 31
0.0
  0
TEXT
  5
C7
330
17
100
AcDbEntity
  8
POSES_PRECISAO
100
AcDbText
 10
-89.45859105851409
 20
16.13158653367358
 30
0.0
 40
2.5
  1
P3
  7
CAD
 72
1
 11
-89.45859105851409
 21
16.13158653367358
 31
0.0
100
AcDbText
 73
2
  0
SPLINE
  5
C8
330
17
100
AcDbEntity
  8
CENTROIDE
100
AcDbSpline
 70
0
 71
3
 72
0
 73
0
 74
121
 11
-0.26763436439753563
 21
-12.406569102681468
 31
0.0
 11
-0.45265631243307225
 21
-12.348931421547912
 31
0.0
 11
-0.6371496711036053
 21
-12.288466730464771
 31
0.0
 11
-0.821071259087772
 21
-12.225204741607351
 31
0.0
 11
-1.0043783275408507
 21
-12.159175355566463
 31
0.0
 11
-1.1870285595602157
 21
-12.090408676758257
 31
0.0
 11
-1.3689800707657973
 21
-12.01893502763093
 31
0.0
 11
-1.550191410919835
 21
-11.944784961677096
 31
0.0
 11
-1.7306215665119344
 21
-11.867989275260994
 31
0.0
 11
-1.9102299642373661
 21
-11.788579018270882
 31
0.0
 11
-2.0889764752978137
 21
-11.706585503607554
 31
0.0
 11
-2.2668214204556736
 21
-11.622040315521156
 31
0.0
 11
-2.443725575774242
 21
-11.534975316809236
 31
0.0
 11
-2.619650178977624
 21
-11.445422654890182
 31
0.0
 11
-2.7945569363656366
 21
-11.353414766767338
 31
0.0
 11
-2.968408030220348
 21
-11.258984382900087
 31
0.0
 11
-3.1411661266421333
 21
-11.16216452999956
 31
0.0
 11
-3.312794383754587
 21
-11.06298853276767
 31
0.0
 11
-3.4832564602190055
 21
-10.961490014599617
 31
0.0
 11
-3.6525165240003226
 21
-10.857702897270999
 31
0.0
 11
-3.8205392613279976
 21
-10.751661399632225
 31
0.0
 11
-3.987289885796453
 21
-10.643400035333896
 31
0.0
 11
-4.15273414755139
 21
-10.532953609608336
 31
0.0
 11
-4.316838342509449
 21
-10.420357215133523
 31
0.0
 11
-4.4795693215603
 21
-10.305646227007026
 31
0.0
 11
-4.640894499701783
 21
-10.188856296858608
 31
0.0
 11
-4.800781865060079
 21
-10.070023346131597
 31
0.0
 11
-4.959199987748697
 21
-9.949183558563982
 31
0.0
 11
-5.116118028521416
 21
-9.826373371901456
 31
0.0
 11
-5.27150574717615
 21
-9.701629468875646
 31
0.0
 11
-5.425333510668336
 21
-9.574988767481871
 31
0.0
 11
-5.577572300894094
 21
-9.446488410591455
 31
0.0
 11
-5.728193722105162
 21
-9.316165754934831
 31
0.0
 11
-5.877170007919474
 21
-9.184058359492271
 31
0.0
 11
-6.024474027892937
 21
-9.050203973329898
 31
0.0
 11
-6.1700792936198186
 21
-8.914640522919322
 31
0.0
 11
-6.313959964331019
 21
-8.777406098979858
 31
0.0
 11
-6.456090851961314
 21
-8.63853894288272
 31
0.0
 11
-6.596447425658553
 21
-8.498077432657178
 31
0.0
 11
-6.735005815709693
 21
-8.356060068638913
 31
0.0
 11
-6.871742816860288
 21
-8.21252545880104
 31
0.0
 11
-7.006635891006149
 21
-8.067512303808671
 31
0.0
 11
-7.1396631692374815
 21
-7.921059381837784
 31
0.0
 11
-7.270803453217924
 21
-7.773205533199302
 31
0.0
 11
-7.4000362158824995
 21
-7.62398964480923
 31
0.0
 11
-7.527341601440378
 21
-7.473450634545513
 31
0.0
 11
-7.652700424670252
 21
-7.321627435532122
 31
0.0
 11
-7.77609416949754
 21
-7.168558980390619
 31
0.0
 11
-7.897504986844634
 21
-7.014284185498875
 31
0.0
 11
-8.016915691746913
 21
-6.858841935296574
 31
0.0
 11
-8.134309759728666
 21
-6.702271066676152
 31
0.0
 11
-8.249671322434951
 21
-6.5446103534977205
 31
0.0
 11
-8.362985162516503
 21
-6.385898491265586
 31
0.0
 11
-8.474236707766437
 21
-6.226174082003347
 31
0.0
 11
-8.583412024508679
 21
-6.065475619364056
 31
0.0
 11
-8.690497810239275
 21
-5.903841474010788
 31
0.0
 11
-8.795481385523091
 21
-5.741309879302552
 31
0.0
 11
-8.898350685149007
 21
-5.577918917319245
 31
0.0
 11
-8.999094248548262
 21
-5.41370650525883
 31
0.0
 11
-9.097701209481006
 21
-5.2487103822389045
 31
0.0
 11
-9.194161284997026
 21
-5.08296809653376
 31
0.0
 11
-9.288464763677464
 21
-4.916516993277467
 31
0.0
 11
-9.380602493164421
 21
-4.74939420266238
 31
0.0
 11
-9.470565866986469
 21
-4.581636628661608
 31
0.0
 11
-9.558346810687636
 21
-4.413280938303187
 31
0.0
 11
-9.643937767268392
 21
-4.244363551522847
 31
0.0
 11
-9.72733168194658
 21
-4.074920631621302
 31
0.0
 11
-9.80852198624676
 21
-3.9049880763514295
 31
0.0
 11
-9.88750258142588
 21
-3.7346015096598446
 31
0.0
 11
-9.964267821243148
 21
-3.563796274106725
 31
0.0
 11
-10.03881249408138
 21
-3.392607423987071
 31
0.0
 11
-10.111131804426726
 21
-3.221069719176315
 31
0.0
 11
-10.181221353712829
 21
-3.049217619722313
 31
0.0
 11
-10.249077120534775
 21
-2.877085281205808
 31
0.0
 11
-10.314695440237179
 21
-2.704706550890924
 31
0.0
 11
-10.37807298387958
 21
-2.5321149646871977
 31
0.0
 11
-10.439206736581236
 21
-2.359343744944656
 31
0.0
 11
-10.498093975245789
 21
-2.1864257991034464
 31
0.0
 11
-10.554732245664894
 21
-2.013393719219879
 31
0.0
 11
-10.609119338998084
 21
-1.840279782391022
 31
0.0
 11
-10.661253267624287
 21
-1.66711595210068
 31
0.0
 11
-10.711132240358312
 21
-1.4939338805101592
 31
0.0
 11
-10.75875463702354
 21
-1.3207649117182978
 31
0.0
 11
-10.8041189823694
 21
-1.1476400860162528
 31
0.0
 11
-10.847223919319774
 21
-0.9745901451639387
 31
0.0
 11
-10.888068181535665
 21
-0.8016455387165973
 31
0.0
 11
-10.926650565272347
 21
-0.6288364314317949
 31
0.0
 11
-10.962969900507963
 21
-0.4561927117892104
 31
0.0
 11
-10.997025021317269
 21
-0.28374400165811764
 31
0.0
 11
-11.02881473546005
 21
-0.11151966714996675
 31
0.0
 11
-11.058337793150313
 21
0.06045116930326877
 31
0.0
 11
-11.085592854967576
 21
0.23213961560092145
 31
0.0
 11
-11.11057845886713
 21
0.40351699530799845
 31
0.0
 11
-11.133292986241479
 21
0.5745548316197358
 31
0.0
 11
-11.153734626979487
 21
0.745224829899751
 31
0.0
 11
-11.171901343464405
 21
0.9154988587295945
 31
0.0
 11
-11.187790833445707
 21
1.08534892940198
 31
0.0
 11
-11.201400491713397
 21
1.2547471737834188
 31
0.0
 11
-11.212727370496069
 21
1.4236658204650494
 31
0.0
 11
-11.221768138496927
 21
1.5920771691126276
 31
0.0
 11
-11.228519038473506
 21
1.7599535629182022
 31
0.0
 11
-11.232975843258389
 21
1.9272673590464553
 31
0.0
 11
-11.235133810108668
 21
2.093990896958524
 31
0.0
 11
-11.234987633261843
 21
2.2600964644845716
 31
0.0
 11
-11.232531394564795
 21
2.4255562615040382
 31
0.0
 11
-11.227758512030793
 21
2.5903423610785827
 31
0.0
 11
-11.220661686166558
 21
2.7544266678676266
 31
0.0
 11
-11.211232843897394
 21
2.9177808736398383
 31
0.0
 11
-11.199463079903655
 21
3.0803764096752575
 31
0.0
 11
-11.185342595165052
 21
3.242184395832825
 31
0.0
 11
-11.168860632491771
 21
3.403175586035463
 31
0.0
 11
-11.150005408801805
 21
3.5633203099003987
 31
0.0
 11
-11.128764043882885
 21
3.7225884102151223
 31
0.0
 11
-11.105122485354364
 21
3.880949175929245
 31
0.0
 11
-11.07906542951899
 21
4.038371270299422
 31
0.0
 11
-11.050576237767414
 21
4.19482265378743
 31
0.0
 11
-11.019636848167744
 21
4.350270501270925
 31
0.0
 11
-10.986227681839795
 21
4.504681113080919
 31
0.0
 11
-10.950327543677266
 21
4.658019819330011
 31
0.0
 11
-10.911913516941643
 21
4.8102508769392935
 31
0.0
 11
-10.870960851207654
 21
4.961337358710033
 31
0.0
  0
CIRCLE
  5
C9
330
17
100
AcDbEntity
  8
CI
100
AcDbCircle
 10
-1.7375475974171843
 20
-11.864982068107134
 30
0.0
 40
1.0
  0
HATCH
  5
CA
330
17
100
AcDbEntity
  8
CI
 62
5
100
AcDbHatch
 10
0.0
 20
0.0
 30
0.0
210
0.0
220
0.0
230
1.0
  2
SOLID
 70
1
 71
0
 91
1
 92
1
 93
1
 72
2
 10
-1.7375475974171843
 20
-11.864982068107134
 40
1.0
 50
0
 51
360
 73
1
 97
0
 75
0
 76
1
 98
0
  0
LINE
  5
CB
330
17
100
AcDbEntity
  8
CI
  6
DASHED
100
AcDbLine
 10
-2.2362068401094604
 20
-34.021576016232025
 30
0.0
 11
-1.7375475974171843
 21
-11.864982068107134
 31
0.0
  0
LINE
  5
CC
330
17
100
AcDbEntity
  8
CI
  6
DASHED
100
AcDbLine
 10
-22.901338842210915
 20
-23.023743532704994
 30
0.0
 11
-1.7375475974171843
 21
-11.864982068107134
 31
0.0
  0
TEXT
  5
CD
330
17
100
AcDbEntity
  8
CI
100
AcDbText
 10
0.26245240258281566
 20
-10.364982068107134
 30
0.0
 40
2.5
  1
CI
  7
CAD
 11
0.26245240258281566
 21
-10.364982068107134
 31
0.0
100
AcDbText
  0
TEXT
  5
CE
330
17
100
AcDbEntity
  8
CENTROIDE
100
AcDbText
 10
-3.2676343643975354
 20
-13.406569102681468
 30
0.0
 40
1.8
  1
centroide fixa
  7
CAD
 72
2
 11
-3.2676343643975354
 21
-13.406569102681468
 31
0.0
100
AcDbText
  0
LINE
  5
CF
330
17
100
AcDbEntity
  8
EIXOS
100
AcDbLine
 10
-28.0
 20
0.0
 30
0.0
 11
28.0
 21
0.0
 31
0.0
  0
LINE
  5
D0
330
17
100
AcDbEntity
  8
EIXOS
100
AcDbLine
 10
0.0
 20
-28.0
 30
0.0
 11
0.0
 21
55.0
 31
0.0
  0
TEXT
  5
D1
330
17
100
AcDbEntity
  8
TEXTO
100
AcDbText
 10
-8.295749098452339
 20
9.265156331825876
 30
0.0
 40
2.5
  1
O2
  7
CAD
 11
-8.295749098452339
 21
9.265156331825876
 31
0.0
100
AcDbText
  0
TEXT
  5
D2
330
17
100
AcDbEntity
  8
TEXTO
100
AcDbText
 10
13.51758649629083
 20
-3.903374292515921
 30
0.0
 40
2.5
  1
O4
  7
CAD
 11
13.51758649629083
 21
-3.903374292515921
 31
0.0
100
AcDbText
  0
TEXT
  5
D3
330
17
100
AcDbEntity
  8
TEXTO
100
AcDbText
 10
0.26379315989053964
 20
-37.521576016232025
 30
0.0
 40
2.5
  1
A
  7
CAD
 11
0.26379315989053964
 21
-37.521576016232025
 31
0.0
100
AcDbText
  0
TEXT
  5
D4
330
17
100
AcDbEntity
  8
TEXTO
100
AcDbText
 10
-27.901338842210915
 20
-27.023743532704994
 30
0.0
 40
2.5
  1
B
  7
CAD
 11
-27.901338842210915
 21
-27.023743532704994
 31
0.0
100
AcDbText
  0
TEXT
  5
D5
330
17
100
AcDbEntity
  8
TEXTO
100
AcDbText
 10
17.0
 20
42.0
 30
0.0
 40
2.5
  1
FEMUR (1)
  7
CAD
 11
17.0
 21
42.0
 31
0.0
100
AcDbText
  0
TEXT
  5
D6
330
17
100
AcDbEntity
  8
TEXTO
100
AcDbText
 10
4.891391652348111
 20
-69.36556192232807
 30
0.0
 40
2.5
  1
TIBIA (3)
  7
CAD
 11
4.891391652348111
 21
-69.36556192232807
 31
0.0
100
AcDbText
  0
TEXT
  5
D7
330
17
100
AcDbEntity
  8
TEXTO
100
AcDbText
 10
29.0
 20
-1.0
 30
0.0
 40
2.2
  1
x
  7
CAD
 11
29.0
 21
-1.0
 31
0.0
100
AcDbText
  0
TEXT
  5
D8
330
17
100
AcDbEntity
  8
TEXTO
100
AcDbText
 10
1.0
 20
52.0
 30
0.0
 40
2.2
  1
y
  7
CAD
 11
1.0
 21
52.0
 31
0.0
100
AcDbText
  0
DIMENSION
  5
D9
330
17
100
AcDbEntity
  8
COTAS
100
AcDbDimension
280
0
  2
*D1
  3
COTA_MECANISMO
 10
4.702731900561497
 20
7.630153722703028
 30
0.0
 11
5.6321485961695
 21
-13.294713060121243
 31
0.0
 70
32
 71
5
  1
<>
100
AcDbAlignedDimension
 13
-1.2957490984523385
 23
7.765156331825876
 33
0.0
 14
-2.2362068401094604
 24
-34.021576016232025
 34
0.0
 50
-91.28928875788502
100
AcDbRotatedDimension
1001
ACAD
1000
DSTYLE
1002
{
1070
3
1000
LCA a = <>
1002
}
  0
DIMENSION
  5
E8
330
17
100
AcDbEntity
  8
COTAS
100
AcDbDimension
280
0
  2
*D2
  3
COTA_MECANISMO
 10
0.5826178800667785
 20
-28.7249518841151
 30
0.0
 11
-10.783517185048572
 21
-25.168131157461126
 31
0.0
 70
32
 71
5
  1
<>
100
AcDbAlignedDimension
 13
-2.2362068401094604
 23
-34.021576016232025
 33
0.0
 14
-22.901338842210915
 24
-23.023743532704994
 34
0.0
 50
151.97841770516635
100
AcDbRotatedDimension
1001
ACAD
1000
DSTYLE
1002
{
1070
3
1000
tibia b = <>
1002
}
  0
DIMENSION
  5
F7
330
17
100
AcDbEntity
  8
COTAS
100
AcDbDimension
280
0
  2
*D3
  3
COTA_MECANISMO
 10
7.719195977219765
 20
-0.09592570559836489
 30
0.0
 11
-8.337308904247857
 21
-10.144514995973664
 31
0.0
 70
32
 71
5
  1
<>
100
AcDbAlignedDimension
 13
10.51758649629083
 23
-5.403374292515921
 33
0.0
 14
-22.901338842210915
 24
-23.023743532704994
 34
0.0
 50
-152.19923701919225
100
AcDbRotatedDimension
1001
ACAD
1000
DSTYLE
1002
{
1070
3
1000
LCP c = <>
1002
}
  0
DIMENSION
  5
106
330
17
100
AcDbEntity
  8
COTAS
100
AcDbDimension
280
0
  2
*D4
  3
COTA_MECANISMO
 10
5.403588669483254
 20
13.775054290286715
 30
0.0
 11
12.947872365683539
 21
8.659875145739576
 31
0.0
 70
32
 71
5
  1
<>
100
AcDbAlignedDimension
 13
-1.2957490984523385
 23
7.765156331825876
 33
0.0
 14
10.51758649629083
 24
-5.403374292515921
 34
0.0
 50
-48.10508926178459
100
AcDbRotatedDimension
1001
ACAD
1000
DSTYLE
1002
{
1070
3
1000
femur d = <>
1002
}
  0
DIMENSION
  5
115
330
17
100
AcDbEntity
  8
COTAS
100
AcDbDimension
280
0
  2
*D5
  3
COTA_MECANISMO
 10
0.0
 20
0.0
 30
0.0
 11
-17.819090885900994
 21
19.79898987322333
 31
0.0
 70
36
 71
5
  1
<>
100
AcDbRadialDimension
 15
-15.556349186104043
 25
15.556349186104047
 35
0.0
1001
ACAD
1000
DSTYLE
1002
{
1070
3
1000
R<>
1002
}
  0
LWPOLYLINE
  5
120
330
17
100
AcDbEntity
  8
FEMUR
100
AcDbPolyline
 90
4
 70
1
 10
15.0
 20
-213.90652306056893
 10
15.0
 20
-180.0
 10
-15.0
 20
-180.0
 10
-15.0
 20
-213.90652306056893
 42
2.5395651292954056
  0
HATCH
  5
121
330
17
100
AcDbEntity
  8
FEMUR
 62
254
100
AcDbHatch
 10
0.0
 20
0.0
 30
0.0
210
0.0
220
0.0
230
1.0
  2
SOLID
 70
1
 71
0
 91
1
 92
3
 72
1
 73
1
 93
4
 10
15.0
 20
-213.90652306056893
 42
0.0
 10
15.0
 20
-180.0
 42
0.0
 10
-15.0
 20
-180.0
 42
0.0
 10
-15.0
 20
-213.90652306056893
 42
2.5395651292954056
 97
0
 75
0
 76
1
 98
0
  0
CIRCLE
  5
122
330
17
100
AcDbEntity
  8
CONDILO_REF
100
AcDbCircle
 10
0.0
 20
-230.0
 30
0.0
 40
22.0
  0
LWPOLYLINE
  5
123
330
17
100
AcDbEntity
  8
TIBIA_BARRA3
100
AcDbPolyline
 90
8
 70
1
 10
-33.16818062262885
 20
-251.97797380323652
 10
20.83181937737115
 20
-251.97797380323652
 10
19.83181937737115
 20
-258.9779738032365
 10
11.83181937737115
 20
-268.9779738032365
 10
9.83181937737115
 20
-313.9779738032365
 10
-16.16818062262885
 20
-313.9779738032365
 10
-18.16818062262885
 20
-268.9779738032365
 10
-30.16818062262885
 20
-260.9779738032365
  0
HATCH
  5
124
330
17
100
AcDbEntity
  8
TIBIA_BARRA3
 62
254
100
AcDbHatch
 10
0.0
 20
0.0
 30
0.0
210
0.0
220
0.0
230
1.0
  2
SOLID
 70
1
 71
0
 91
1
 92
3
 72
0
 73
1
 93
8
 10
-33.16818062262885
 20
-251.97797380323652
 10
20.83181937737115
 20
-251.97797380323652
 10
19.83181937737115
 20
-258.9779738032365
 10
11.83181937737115
 20
-268.9779738032365
 10
9.83181937737115
 20
-313.9779738032365
 10
-16.16818062262885
 20
-313.9779738032365
 10
-18.16818062262885
 20
-268.9779738032365
 10
-30.16818062262885
 20
-260.9779738032365
 97
0
 75
0
 76
1
 98
0
  0
LINE
  5
125
330
17
100
AcDbEntity
  8
ACOPLADOR_AB
100
AcDbLine
 10
0.8318193773711506
 20
-263.9779738032365
 30
0.0
 11
-21.16818062262885
 21
-255.97797380323652
 31
0.0
  0
LINE
  5
126
330
17
100
AcDbEntity
  8
LCA_BARRA2
100
AcDbLine
 10
-1.2957490984523385
 20
-222.23484366817414
 30
0.0
 11
0.8318193773711506
 21
-263.9779738032365
 31
0.0
  0
LINE
  5
127
330
17
100
AcDbEntity
  8
LCP_BARRA4
100
AcDbLine
 10
10.51758649629083
 20
-235.40337429251593
 30
0.0
 11
-21.16818062262885
 21
-255.97797380323652
 31
0.0
  0
LWPOLYLINE
  5
128
330
17
100
AcDbEntity
  8
PIVOS
100
AcDbPolyline
 90
3
 70
1
 10
-1.2957490984523385
 20
-222.23484366817414
 10
-4.495749098452339
 20
-216.73484366817414
 10
1.9042509015476616
 20
-216.73484366817414
  0
LINE
  5
129
330
17
100
AcDbEntity
  8
PIVOS
100
AcDbLine
 10
-5.7957490984523385
 20
-216.73484366817414
 30
0.0
 11
3.2042509015476615
 21
-216.73484366817414
 31
0.0
  0
LINE
  5
12A
330
17
100
AcDbEntity
  8
PIVOS
100
AcDbLine
 10
-5.2957490984523385
 20
-216.73484366817414
 30
0.0
 11
-3.4957490984523387
 21
-214.93484366817412
 31
0.0
  0
LINE
  5
12B
330
17
100
AcDbEntity
  8
PIVOS
100
AcDbLine
 10
-2.6957490984523385
 20
-216.73484366817414
 30
0.0
 11
-0.8957490984523384
 21
-214.93484366817412
 31
0.0
  0
LINE
  5
12C
330
17
100
AcDbEntity
  8
PIVOS
100
AcDbLine
 10
-0.09574909845233837
 20
-216.73484366817414
 30
0.0
 11
1.7042509015476615
 21
-214.93484366817412
 31
0.0
  0
LINE
  5
12D
330
17
100
AcDbEntity
  8
PIVOS
100
AcDbLine
 10
2.504250901547662
 20
-216.73484366817414
 30
0.0
 11
4.304250901547662
 21
-214.93484366817412
 31
0.0
  0
CIRCLE
  5
12E
330
17
100
AcDbEntity
  8
PIVOS
100
AcDbCircle
 10
-1.2957490984523385
 20
-222.23484366817414
 30
0.0
 40
1.6
  0
LINE
  5
12F
330
17
100
AcDbEntity
  8
EIXOS
100
AcDbLine
 10
-2.2557490984523385
 20
-222.23484366817414
 30
0.0
 11
-0.3357490984523386
 21
-222.23484366817414
 31
0.0
  0
LINE
  5
130
330
17
100
AcDbEntity
  8
EIXOS
100
AcDbLine
 10
-1.2957490984523385
 20
-223.19484366817414
 30
0.0
 11
-1.2957490984523385
 21
-221.27484366817413
 31
0.0
  0
LWPOLYLINE
  5
131
330
17
100
AcDbEntity
  8
PIVOS
100
AcDbPolyline
 90
3
 70
1
 10
10.51758649629083
 20
-235.40337429251593
 10
7.31758649629083
 20
-229.90337429251593
 10
13.717586496290831
 20
-229.90337429251593
  0
LINE
  5
132
330
17
100
AcDbEntity
  8
PIVOS
100
AcDbLine
 10
6.01758649629083
 20
-229.90337429251593
 30
0.0
 11
15.01758649629083
 21
-229.90337429251593
 31
0.0
  0
LINE
  5
133
330
17
100
AcDbEntity
  8
PIVOS
100
AcDbLine
 10
6.51758649629083
 20
-229.90337429251593
 30
0.0
 11
8.31758649629083
 21
-228.10337429251592
 31
0.0
  0
LINE
  5
134
330
17
100
AcDbEntity
  8
PIVOS
100
AcDbLine
 10
9.11758649629083
 20
-229.90337429251593
 30
0.0
 11
10.91758649629083
 21
-228.10337429251592
 31
0.0
  0
LINE
  5
135
330
17
100
AcDbEntity
  8
PIVOS
100
AcDbLine
 10
11.717586496290831
 20
-229.90337429251593
 30
0.0
 11
13.51758649629083
 21
-228.10337429251592
 31
0.0
  0
LINE
  5
136
330
17
100
AcDbEntity
  8
PIVOS
100
AcDbLine
 10
14.317586496290831
 20
-229.90337429251593
 30
0.0
 11
16.11758649629083
 21
-228.10337429251592
 31
0.0
  0
CIRCLE
  5
137
330
17
100
AcDbEntity
  8
PIVOS
100
AcDbCircle
 10
10.51758649629083
 20
-235.40337429251593
 30
0.0
 40
1.6
  0
LINE
  5
138
330
17
100
AcDbEntity
  8
EIXOS
100
AcDbLine
 10
9.557586496290831
 20
-235.40337429251593
 30
0.0
 11
11.47758649629083
 21
-235.40337429251593
 31
0.0
  0
LINE
  5
139
330
17
100
AcDbEntity
  8
EIXOS
100
AcDbLine
 10
10.51758649629083
 20
-236.36337429251594
 30
0.0
 11
10.51758649629083
 21
-234.44337429251593
 31
0.0
  0
CIRCLE
  5
13A
330
17
100
AcDbEntity
  8
PIVOS
100
AcDbCircle
 10
0.8318193773711506
 20
-263.9779738032365
 30
0.0
 40
1.6
  0
LINE
  5
13B
330
17
100
AcDbEntity
  8
EIXOS
100
AcDbLine
 10
-0.12818062262884933
 20
-263.9779738032365
 30
0.0
 11
1.7918193773711506
 21
-263.9779738032365
 31
0.0
  0
LINE
  5
13C
330
17
100
AcDbEntity
  8
EIXOS
100
AcDbLine
 10
0.8318193773711506
 20
-264.9379738032365
 30
0.0
 11
0.8318193773711506
 21
-263.01797380323654
 31
0.0
  0
CIRCLE
  5
13D
330
17
100
AcDbEntity
  8
PIVOS
100
AcDbCircle
 10
-21.16818062262885
 20
-255.97797380323652
 30
0.0
 40
1.6
  0
LINE
  5
13E
330
17
100
AcDbEntity
  8
EIXOS
100
AcDbLine
 10
-22.12818062262885
 20
-255.97797380323652
 30
0.0
 11
-20.20818062262885
 21
-255.97797380323652
 31
0.0
  0
LINE
  5
13F
330
17
100
AcDbEntity
  8
EIXOS
100
AcDbLine
 10
-21.16818062262885
 20
-256.9379738032365
 30
0.0
 11
-21.16818062262885
 21
-255.01797380323652
 31
0.0
  0
TEXT
  5
140
330
17
100
AcDbEntity
  8
TEXTO
100
AcDbText
 10
0.0
 20
-318.0
 30
0.0
 40
7.0
  1
phi = 0 graus
  7
CAD
 72
1
 11
0.0
 21
-318.0
 31
0.0
100
AcDbText
 73
2
  0
SPLINE
  5
141
330
17
100
AcDbEntity
  8
CENTROIDE
100
AcDbSpline
 70
0
 71
3
 72
0
 73
0
 74
121
 11
-0.26763436439753563
 21
-242.40656910268146
 31
0.0
 11
-0.45265631243307225
 21
-242.34893142154792
 31
0.0
 11
-0.6371496711036053
 21
-242.28846673046476
 31
0.0
 11
-0.821071259087772
 21
-242.22520474160734
 31
0.0
 11
-1.0043783275408507
 21
-242.15917535556648
 31
0.0
 11
-1.1870285595602157
 21
-242.09040867675824
 31
0.0
 11
-1.3689800707657973
 21
-242.01893502763093
 31
0.0
 11
-1.550191410919835
 21
-241.9447849616771
 31
0.0
 11
-1.7306215665119344
 21
-241.86798927526098
 31
0.0
 11
-1.9102299642373661
 21
-241.7885790182709
 31
0.0
 11
-2.0889764752978137
 21
-241.70658550360756
 31
0.0
 11
-2.2668214204556736
 21
-241.62204031552116
 31
0.0
 11
-2.443725575774242
 21
-241.53497531680924
 31
0.0
 11
-2.619650178977624
 21
-241.4454226548902
 31
0.0
 11
-2.7945569363656366
 21
-241.35341476676734
 31
0.0
 11
-2.968408030220348
 21
-241.25898438290008
 31
0.0
 11
-3.1411661266421333
 21
-241.16216452999956
 31
0.0
 11
-3.312794383754587
 21
-241.06298853276766
 31
0.0
 11
-3.4832564602190055
 21
-240.9614900145996
 31
0.0
 11
-3.6525165240003226
 21
-240.857702897271
 31
0.0
 11
-3.8205392613279976
 21
-240.7516613996322
 31
0.0
 11
-3.987289885796453
 21
-240.64340003533388
 31
0.0
 11
-4.15273414755139
 21
-240.53295360960834
 31
0.0
 11
-4.316838342509449
 21
-240.42035721513352
 31
0.0
 11
-4.4795693215603
 21
-240.30564622700703
 31
0.0
 11
-4.640894499701783
 21
-240.1888562968586
 31
0.0
 11
-4.800781865060079
 21
-240.0700233461316
 31
0.0
 11
-4.959199987748697
 21
-239.949183558564
 31
0.0
 11
-5.116118028521416
 21
-239.82637337190147
 31
0.0
 11
-5.27150574717615
 21
-239.70162946887564
 31
0.0
 11
-5.425333510668336
 21
-239.57498876748187
 31
0.0
 11
-5.577572300894094
 21
-239.44648841059146
 31
0.0
 11
-5.728193722105162
 21
-239.31616575493484
 31
0.0
 11
-5.877170007919474
 21
-239.18405835949227
 31
0.0
 11
-6.024474027892937
 21
-239.0502039733299
 31
0.0
 11
-6.1700792936198186
 21
-238.9146405229193
 31
0.0
 11
-6.313959964331019
 21
-238.77740609897987
 31
0.0
 11
-6.456090851961314
 21
-238.63853894288272
 31
0.0
 11
-6.596447425658553
 21
-238.49807743265717
 31
0.0
 11
-6.735005815709693
 21
-238.35606006863893
 31
0.0
 11
-6.871742816860288
 21
-238.21252545880105
 31
0.0
 11
-7.006635891006149
 21
-238.06751230380868
 31
0.0
 11
-7.1396631692374815
 21
-237.92105938183778
 31
0.0
 11
-7.270803453217924
 21
-237.7732055331993
 31
0.0
 11
-7.4000362158824995
 21
-237.62398964480923
 31
0.0
 11
-7.527341601440378
 21
-237.47345063454551
 31
0.0
 11
-7.652700424670252
 21
-237.32162743553212
 31
0.0
 11
-7.77609416949754
 21
-237.16855898039063
 31
0.0
 11
-7.897504986844634
 21
-237.01428418549887
 31
0.0
 11
-8.016915691746913
 21
-236.85884193529657
 31
0.0
 11
-8.134309759728666
 21
-236.70227106667616
 31
0.0
 11
-8.249671322434951
 21
-236.54461035349772
 31
0.0
 11
-8.362985162516503
 21
-236.38589849126558
 31
0.0
 11
-8.474236707766437
 21
-236.22617408200335
 31
0.0
 11
-8.583412024508679
 21
-236.06547561936407
 31
0.0
 11
-8.690497810239275
 21
-235.9038414740108
 31
0.0
 11
-8.795481385523091
 21
-235.74130987930255
 31
0.0
 11
-8.898350685149007
 21
-235.57791891731924
 31
0.0
 11
-8.999094248548262
 21
-235.41370650525883
 31
0.0
 11
-9.097701209481006
 21
-235.2487103822389
 31
0.0
 11
-9.194161284997026
 21
-235.08296809653376
 31
0.0
 11
-9.288464763677464
 21
-234.91651699327747
 31
0.0
 11
-9.380602493164421
 21
-234.7493942026624
 31
0.0
 11
-9.470565866986469
 21
-234.5816366286616
 31
0.0
 11
-9.558346810687636
 21
-234.4132809383032
 31
0.0
 11
-9.643937767268392
 21
-234.24436355152284
 31
0.0
 11
-9.72733168194658
 21
-234.0749206316213
 31
0.0
 11
-9.80852198624676
 21
-233.90498807635143
 31
0.0
 11
-9.88750258142588
 21
-233.73460150965985
 31
0.0
 11
-9.964267821243148
 21
-233.56379627410672
 31
0.0
 11
-10.03881249408138
 21
-233.39260742398707
 31
0.0
 11
-10.111131804426726
 21
-233.2210697191763
 31
0.0
 11
-10.181221353712829
 21
-233.0492176197223
 31
0.0
 11
-10.249077120534775
 21
-232.8770852812058
 31
0.0
 11
-10.314695440237179
 21
-232.70470655089093
 31
0.0
 11
-10.37807298387958
 21
-232.5321149646872
 31
0.0
 11
-10.439206736581236
 21
-232.35934374494465
 31
0.0
 11
-10.498093975245789
 21
-232.18642579910346
 31
0.0
 11
-10.554732245664894
 21
-232.0133937192199
 31
0.0
 11
-10.609119338998084
 21
-231.840279782391
 31
0.0
 11
-10.661253267624287
 21
-231.6671159521007
 31
0.0
 11
-10.711132240358312
 21
-231.49393388051016
 31
0.0
 11
-10.75875463702354
 21
-231.3207649117183
 31
0.0
 11
-10.8041189823694
 21
-231.14764008601625
 31
0.0
 11
-10.847223919319774
 21
-230.97459014516394
 31
0.0
 11
-10.888068181535665
 21
-230.8016455387166
 31
0.0
 11
-10.926650565272347
 21
-230.6288364314318
 31
0.0
 11
-10.962969900507963
 21
-230.4561927117892
 31
0.0
 11
-10.997025021317269
 21
-230.2837440016581
 31
0.0
 11
-11.02881473546005
 21
-230.11151966714996
 31
0.0
 11
-11.058337793150313
 21
-229.93954883069674
 31
0.0
 11
-11.085592854967576
 21
-229.76786038439909
 31
0.0
 11
-11.11057845886713
 21
-229.596483004692
 31
0.0
 11
-11.133292986241479
 21
-229.42544516838026
 31
0.0
 11
-11.153734626979487
 21
-229.25477517010026
 31
0.0
 11
-11.171901343464405
 21
-229.0845011412704
 31
0.0
 11
-11.187790833445707
 21
-228.914651070598
 31
0.0
 11
-11.201400491713397
 21
-228.74525282621659
 31
0.0
 11
-11.212727370496069
 21
-228.57633417953494
 31
0.0
 11
-11.221768138496927
 21
-228.40792283088737
 31
0.0
 11
-11.228519038473506
 21
-228.2400464370818
 31
0.0
 11
-11.232975843258389
 21
-228.07273264095355
 31
0.0
 11
-11.235133810108668
 21
-227.90600910304147
 31
0.0
 11
-11.234987633261843
 21
-227.73990353551542
 31
0.0
 11
-11.232531394564795
 21
-227.57444373849597
 31
0.0
 11
-11.227758512030793
 21
-227.40965763892143
 31
0.0
 11
-11.220661686166558
 21
-227.24557333213238
 31
0.0
 11
-11.211232843897394
 21
-227.08221912636017
 31
0.0
 11
-11.199463079903655
 21
-226.91962359032473
 31
0.0
 11
-11.185342595165052
 21
-226.75781560416718
 31
0.0
 11
-11.168860632491771
 21
-226.59682441396453
 31
0.0
 11
-11.150005408801805
 21
-226.4366796900996
 31
0.0
 11
-11.128764043882885
 21
-226.2774115897849
 31
0.0
 11
-11.105122485354364
 21
-226.11905082407077
 31
0.0
 11
-11.07906542951899
 21
-225.96162872970058
 31
0.0
 11
-11.050576237767414
 21
-225.80517734621256
 31
0.0
 11
-11.019636848167744
 21
-225.64972949872907
 31
0.0
 11
-10.986227681839795
 21
-225.49531888691908
 31
0.0
 11
-10.950327543677266
 21
-225.34198018067
 31
0.0
 11
-10.911913516941643
 21
-225.1897491230607
 31
0.0
 11
-10.870960851207654
 21
-225.03866264128996
 31
0.0
  0
LWPOLYLINE
  5
142
330
17
100
AcDbEntity
  8
FEMUR
100
AcDbPolyline
 90
4
 70
1
 10
175.0
 20
-213.90652306056893
 10
175.0
 20
-180.0
 10
145.0
 20
-180.0
 10
145.0
 20
-213.90652306056893
 42
2.5395651292954056
  0
HATCH
  5
143
330
17
100
AcDbEntity
  8
FEMUR
 62
254
100
AcDbHatch
 10
0.0
 20
0.0
 30
0.0
210
0.0
220
0.0
230
1.0
  2
SOLID
 70
1
 71
0
 91
1
 92
3
 72
1
 73
1
 93
4
 10
175.0
 20
-213.90652306056893
 42
0.0
 10
175.0
 20
-180.0
 42
0.0
 10
145.0
 20
-180.0
 42
0.0
 10
145.0
 20
-213.90652306056893
 42
2.5395651292954056
 97
0
 75
0
 76
1
 98
0
  0
CIRCLE
  5
144
330
17
100
AcDbEntity
  8
CONDILO_REF
100
AcDbCircle
 10
160.0
 20
-230.0
 30
0.0
 40
22.0
  0
LWPOLYLINE
  5
145
330
17
100
AcDbEntity
  8
TIBIA_BARRA3
100
AcDbPolyline
 90
8
 70
1
 10
126.60007083894915
 20
-230.65073173470026
 10
167.96647076737398
 20
-265.36126265777335
 10
162.70091305644922
 20
-270.0807861499197
 10
150.144681414632
 20
-272.59892970361716
 10
119.68715009249976
 20
-305.78535442459804
 10
99.76999457140636
 20
-289.07287657274804
 10
127.16334812106265
 20
-253.31530141302096
 10
123.11311568112723
 20
-239.47349455183067
  0
HATCH
  5
146
330
17
100
AcDbEntity
  8
TIBIA_BARRA3
 62
254
100
AcDbHatch
 10
0.0
 20
0.0
 30
0.0
210
0.0
220
0.0
230
1.0
  2
SOLID
 70
1
 71
0
 91
1
 92
3
 72
0
 73
1
 93
8
 10
126.60007083894915
 20
-230.65073173470026
 10
167.96647076737398
 20
-265.36126265777335
 10
162.70091305644922
 20
-270.0807861499197
 10
150.144681414632
 20
-272.59892970361716
 10
119.68715009249976
 20
-305.78535442459804
 10
99.76999457140636
 20
-289.07287657274804
 10
127.16334812106265
 20
-253.31530141302096
 10
123.11311568112723
 20
-239.47349455183067
 97
0
 75
0
 76
1
 98
0
  0
LINE
  5
147
330
17
100
AcDbEntity
  8
ACOPLADOR_AB
100
AcDbLine
 10
144.93213058875594
 20
-261.69804378147035
 30
0.0
 11
133.22145371763074
 21
-241.42836082341464
 31
0.0
  0
LINE
  5
148
330
17
100
AcDbEntity
  8
LCA_BARRA2
100
AcDbLine
 10
158.70425090154765
 20
-222.23484366817414
 30
0.0
 11
144.93213058875594
 21
-261.69804378147035
 31
0.0
  0
LINE
  5
149
330
17
100
AcDbEntity
  8
LCP_BARRA4
100
AcDbLine
 10
170.51758649629082
 20
-235.40337429251593
 30
0.0
 11
133.22145371763074
 21
-241.42836082341464
 31
0.0
  0
LWPOLYLINE
  5
14A
330
17
100
AcDbEntity
  8
PIVOS
100
AcDbPolyline
 90
3
 70
1
 10
158.70425090154765
 20
-222.23484366817414
 10
155.50425090154766
 20
-216.73484366817414
 10
161.90425090154764
 20
-216.73484366817414
  0
LINE
  5
14B
330
17
100
AcDbEntity
  8
PIVOS
100
AcDbLine
 10
154.20425090154765
 20
-216.73484366817414
 30
0.0
 11
163.20425090154765
 21
-216.73484366817414
 31
0.0
  0
LINE
  5
14C
330
17
100
AcDbEntity
  8
PIVOS
100
AcDbLine
 10
154.70425090154765
 20
-216.73484366817414
 30
0.0
 11
156.50425090154766
 21
-214.93484366817412
 31
0.0
  0
LINE
  5
14D
330
17
100
AcDbEntity
  8
PIVOS
100
AcDbLine
 10
157.30425090154765
 20
-216.73484366817414
 30
0.0
 11
159.10425090154766
 21
-214.93484366817412
 31
0.0
  0
LINE
  5
14E
330
17
100
AcDbEntity
  8
PIVOS
100
AcDbLine
 10
159.90425090154764
 20
-216.73484366817414
 30
0.0
 11
161.70425090154765
 21
-214.93484366817412
 31
0.0
  0
LINE
  5
14F
330
17
100
AcDbEntity
  8
PIVOS
100
AcDbLine
 10
162.50425090154766
 20
-216.73484366817414
 30
0.0
 11
164.30425090154765
 21
-214.93484366817412
 31
0.0
  0
CIRCLE
  5
150
330
17
100
AcDbEntity
  8
PIVOS
100
AcDbCircle
 10
158.70425090154765
 20
-222.23484366817414
 30
0.0
 40
1.6
  0
LINE
  5
151
330
17
100
AcDbEntity
  8
EIXOS
100
AcDbLine
 10
157.74425090154764
 20
-222.23484366817414
 30
0.0
 11
159.66425090154766
 21
-222.23484366817414
 31
0.0
  0
LINE
  5
152
330
17
100
AcDbEntity
  8
EIXOS
100
AcDbLine
 10
158.70425090154765
 20
-223.19484366817414
 30
0.0
 11
158.70425090154765
 21
-221.27484366817413
 31
0.0
  0
LWPOLYLINE
  5
153
330
17
100
AcDbEntity
  8
PIVOS
100
AcDbPolyline
 90
3
 70
1
 10
170.51758649629082
 20
-235.40337429251593
 10
167.31758649629083
 20
-229.90337429251593
 10
173.7175864962908
 20
-229.90337429251593
  0
LINE
  5
154
330
17
100
AcDbEntity
  8
PIVOS
100
AcDbLine
 10
166.01758649629082
 20
-229.90337429251593
 30
0.0
 11
175.01758649629082
 21
-229.90337429251593
 31
0.0
  0
LINE
  5
155
330
17
100
AcDbEntity
  8
PIVOS
100
AcDbLine
 10
166.51758649629082
 20
-229.90337429251593
 30
0.0
 11
168.31758649629083
 21
-228.10337429251592
 31
0.0
  0
LINE
  5
156
330
17
100
AcDbEntity
  8
PIVOS
100
AcDbLine
 10
169.1175864962908
 20
-229.90337429251593
 30
0.0
 11
170.91758649629082
 21
-228.10337429251592
 31
0.0
  0
LINE
  5
157
330
17
100
AcDbEntity
  8
PIVOS
100
AcDbLine
 10
171.7175864962908
 20
-229.90337429251593
 30
0.0
 11
173.51758649629082
 21
-228.10337429251592
 31
0.0
  0
LINE
  5
158
330
17
100
AcDbEntity
  8
PIVOS
100
AcDbLine
 10
174.31758649629083
 20
-229.90337429251593
 30
0.0
 11
176.1175864962908
 21
-228.10337429251592
 31
0.0
  0
CIRCLE
  5
159
330
17
100
AcDbEntity
  8
PIVOS
100
AcDbCircle
 10
170.51758649629082
 20
-235.40337429251593
 30
0.0
 40
1.6
  0
LINE
  5
15A
330
17
100
AcDbEntity
  8
EIXOS
100
AcDbLine
 10
169.5575864962908
 20
-235.40337429251593
 30
0.0
 11
171.47758649629083
 21
-235.40337429251593
 31
0.0
  0
LINE
  5
15B
330
17
100
AcDbEntity
  8
EIXOS
100
AcDbLine
 10
170.51758649629082
 20
-236.36337429251594
 30
0.0
 11
170.51758649629082
 21
-234.44337429251593
 31
0.0
  0
CIRCLE
  5
15C
330
17
100
AcDbEntity
  8
PIVOS
100
AcDbCircle
 10
144.93213058875594
 20
-261.69804378147035
 30
0.0
 40
1.6
  0
LINE
  5
15D
330
17
100
AcDbEntity
  8
EIXOS
100
AcDbLine
 10
143.97213058875593
 20
-261.69804378147035
 30
0.0
 11
145.89213058875595
 21
-261.69804378147035
 31
0.0
  0
LINE
  5
15E
330
17
100
AcDbEntity
  8
EIXOS
100
AcDbLine
 10
144.93213058875594
 20
-262.6580437814703
 30
0.0
 11
144.93213058875594
 21
-260.73804378147037
 31
0.0
  0
CIRCLE
  5
15F
330
17
100
AcDbEntity
  8
PIVOS
100
AcDbCircle
 10
133.22145371763074
 20
-241.42836082341464
 30
0.0
 40
1.6
  0
LINE
  5
160
330
17
100
AcDbEntity
  8
EIXOS
100
AcDbLine
 10
132.26145371763073
 20
-241.42836082341464
 30
0.0
 11
134.18145371763075
 21
-241.42836082341464
 31
0.0
  0
LINE
  5
161
330
17
100
AcDbEntity
  8
EIXOS
100
AcDbLine
 10
133.22145371763074
 20
-242.38836082341464
 30
0.0
 11
133.22145371763074
 21
-240.46836082341463
 31
0.0
  0
TEXT
  5
162
330
17
100
AcDbEntity
  8
TEXTO
100
AcDbText
 10
160.0
 20
-318.0
 30
0.0
 40
7.0
  1
phi = 40 graus
  7
CAD
 72
1
 11
160.0
 21
-318.0
 31
0.0
100
AcDbText
 73
2
  0
SPLINE
  5
163
330
17
100
AcDbEntity
  8
CENTROIDE
100
AcDbSpline
 70
0
 71
3
 72
0
 73
0
 74
121
 11
159.73236563560246
 21
-242.40656910268146
 31
0.0
 11
159.54734368756692
 21
-242.34893142154792
 31
0.0
 11
159.3628503288964
 21
-242.28846673046476
 31
0.0
 11
159.17892874091223
 21
-242.22520474160734
 31
0.0
 11
158.99562167245915
 21
-242.15917535556648
 31
0.0
 11
158.81297144043978
 21
-242.09040867675824
 31
0.0
 11
158.6310199292342
 21
-242.01893502763093
 31
0.0
 11
158.44980858908016
 21
-241.9447849616771
 31
0.0
 11
158.26937843348807
 21
-241.86798927526098
 31
0.0
 11
158.08977003576263
 21
-241.7885790182709
 31
0.0
 11
157.9110235247022
 21
-241.70658550360756
 31
0.0
 11
157.73317857954433
 21
-241.62204031552116
 31
0.0
 11
157.55627442422576
 21
-241.53497531680924
 31
0.0
 11
157.38034982102238
 21
-241.4454226548902
 31
0.0
 11
157.20544306363436
 21
-241.35341476676734
 31
0.0
 11
157.03159196977964
 21
-241.25898438290008
 31
0.0
 11
156.85883387335787
 21
-241.16216452999956
 31
0.0
 11
156.68720561624542
 21
-241.06298853276766
 31
0.0
 11
156.516743539781
 21
-240.9614900145996
 31
0.0
 11
156.34748347599967
 21
-240.857702897271
 31
0.0
 11
156.179460738672
 21
-240.7516613996322
 31
0.0
 11
156.01271011420354
 21
-240.64340003533388
 31
0.0
 11
155.8472658524486
 21
-240.53295360960834
 31
0.0
 11
155.68316165749056
 21
-240.42035721513352
 31
0.0
 11
155.5204306784397
 21
-240.30564622700703
 31
0.0
 11
155.35910550029823
 21
-240.1888562968586
 31
0.0
 11
155.1992181349399
 21
-240.0700233461316
 31
0.0
 11
155.0408000122513
 21
-239.949183558564
 31
0.0
 11
154.8838819714786
 21
-239.82637337190147
 31
0.0
 11
154.72849425282385
 21
-239.70162946887564
 31
0.0
 11
154.57466648933166
 21
-239.57498876748187
 31
0.0
 11
154.4224276991059
 21
-239.44648841059146
 31
0.0
 11
154.27180627789483
 21
-239.31616575493484
 31
0.0
 11
154.12282999208054
 21
-239.18405835949227
 31
0.0
 11
153.97552597210705
 21
-239.0502039733299
 31
0.0
 11
153.8299207063802
 21
-238.9146405229193
 31
0.0
 11
153.68604003566898
 21
-238.77740609897987
 31
0.0
 11
153.5439091480387
 21
-238.63853894288272
 31
0.0
 11
153.40355257434146
 21
-238.49807743265717
 31
0.0
 11
153.26499418429032
 21
-238.35606006863893
 31
0.0
 11
153.1282571831397
 21
-238.21252545880105
 31
0.0
 11
152.99336410899386
 21
-238.06751230380868
 31
0.0
 11
152.86033683076252
 21
-237.92105938183778
 31
0.0
 11
152.72919654678208
 21
-237.7732055331993
 31
0.0
 11
152.5999637841175
 21
-237.62398964480923
 31
0.0
 11
152.47265839855962
 21
-237.47345063454551
 31
0.0
 11
152.34729957532974
 21
-237.32162743553212
 31
0.0
 11
152.22390583050247
 21
-237.16855898039063
 31
0.0
 11
152.10249501315536
 21
-237.01428418549887
 31
0.0
 11
151.9830843082531
 21
-236.85884193529657
 31
0.0
 11
151.86569024027133
 21
-236.70227106667616
 31
0.0
 11
151.75032867756505
 21
-236.54461035349772
 31
0.0
 11
151.6370148374835
 21
-236.38589849126558
 31
0.0
 11
151.52576329223356
 21
-236.22617408200335
 31
0.0
 11
151.41658797549132
 21
-236.06547561936407
 31
0.0
 11
151.30950218976074
 21
-235.9038414740108
 31
0.0
 11
151.2045186144769
 21
-235.74130987930255
 31
0.0
 11
151.101649314851
 21
-235.57791891731924
 31
0.0
 11
151.00090575145174
 21
-235.41370650525883
 31
0.0
 11
150.90229879051898
 21
-235.2487103822389
 31
0.0
 11
150.80583871500298
 21
-235.08296809653376
 31
0.0
 11
150.71153523632253
 21
-234.91651699327747
 31
0.0
 11
150.61939750683558
 21
-234.7493942026624
 31
0.0
 11
150.52943413301352
 21
-234.5816366286616
 31
0.0
 11
150.44165318931238
 21
-234.4132809383032
 31
0.0
 11
150.3560622327316
 21
-234.24436355152284
 31
0.0
 11
150.27266831805343
 21
-234.0749206316213
 31
0.0
 11
150.19147801375323
 21
-233.90498807635143
 31
0.0
 11
150.11249741857412
 21
-233.73460150965985
 31
0.0
 11
150.03573217875686
 21
-233.56379627410672
 31
0.0
 11
149.96118750591862
 21
-233.39260742398707
 31
0.0
 11
149.88886819557328
 21
-233.2210697191763
 31
0.0
 11
149.81877864628717
 21
-233.0492176197223
 31
0.0
 11
149.75092287946524
 21
-232.8770852812058
 31
0.0
 11
149.6853045597628
 21
-232.70470655089093
 31
0.0
 11
149.62192701612042
 21
-232.5321149646872
 31
0.0
 11
149.56079326341876
 21
-232.35934374494465
 31
0.0
 11
149.50190602475422
 21
-232.18642579910346
 31
0.0
 11
149.4452677543351
 21
-232.0133937192199
 31
0.0
 11
149.39088066100192
 21
-231.840279782391
 31
0.0
 11
149.3387467323757
 21
-231.6671159521007
 31
0.0
 11
149.28886775964168
 21
-231.49393388051016
 31
0.0
 11
149.24124536297646
 21
-231.3207649117183
 31
0.0
 11
149.1958810176306
 21
-231.14764008601625
 31
0.0
 11
149.1527760806802
 21
-230.97459014516394
 31
0.0
 11
149.11193181846434
 21
-230.8016455387166
 31
0.0
 11
149.07334943472765
 21
-230.6288364314318
 31
0.0
 11
149.03703009949203
 21
-230.4561927117892
 31
0.0
 11
149.00297497868274
 21
-230.2837440016581
 31
0.0
 11
148.97118526453994
 21
-230.11151966714996
 31
0.0
 11
148.94166220684968
 21
-229.93954883069674
 31
0.0
 11
148.9144071450324
 21
-229.76786038439909
 31
0.0
 11
148.88942154113286
 21
-229.596483004692
 31
0.0
 11
148.86670701375851
 21
-229.42544516838026
 31
0.0
 11
148.84626537302051
 21
-229.25477517010026
 31
0.0
 11
148.8280986565356
 21
-229.0845011412704
 31
0.0
 11
148.81220916655428
 21
-228.914651070598
 31
0.0
 11
148.7985995082866
 21
-228.74525282621659
 31
0.0
 11
148.78727262950395
 21
-228.57633417953494
 31
0.0
 11
148.77823186150306
 21
-228.40792283088737
 31
0.0
 11
148.7714809615265
 21
-228.2400464370818
 31
0.0
 11
148.7670241567416
 21
-228.07273264095355
 31
0.0
 11
148.76486618989134
 21
-227.90600910304147
 31
0.0
 11
148.76501236673815
 21
-227.73990353551542
 31
0.0
 11
148.7674686054352
 21
-227.57444373849597
 31
0.0
 11
148.7722414879692
 21
-227.40965763892143
 31
0.0
 11
148.77933831383345
 21
-227.24557333213238
 31
0.0
 11
148.7887671561026
 21
-227.08221912636017
 31
0.0
 11
148.80053692009633
 21
-226.91962359032473
 31
0.0
 11
148.81465740483495
 21
-226.75781560416718
 31
0.0
 11
148.83113936750823
 21
-226.59682441396453
 31
0.0
 11
148.8499945911982
 21
-226.4366796900996
 31
0.0
 11
148.87123595611712
 21
-226.2774115897849
 31
0.0
 11
148.89487751464563
 21
-226.11905082407077
 31
0.0
 11
148.92093457048102
 21
-225.96162872970058
 31
0.0
 11
148.94942376223258
 21
-225.80517734621256
 31
0.0
 11
148.98036315183225
 21
-225.64972949872907
 31
0.0
 11
149.0137723181602
 21
-225.49531888691908
 31
0.0
 11
149.04967245632272
 21
-225.34198018067
 31
0.0
 11
149.08808648305836
 21
-225.1897491230607
 31
0.0
 11
149.12903914879234
 21
-225.03866264128996
 31
0.0
  0
LWPOLYLINE
  5
164
330
17
100
AcDbEntity
  8
FEMUR
100
AcDbPolyline
 90
4
 70
1
 10
335.0
 20
-213.90652306056893
 10
335.0
 20
-180.0
 10
305.0
 20
-180.0
 10
305.0
 20
-213.90652306056893
 42
2.5395651292954056
  0
HATCH
  5
165
330
17
100
AcDbEntity
  8
FEMUR
 62
254
100
AcDbHatch
 10
0.0
 20
0.0
 30
0.0
210
0.0
220
0.0
230
1.0
  2
SOLID
 70
1
 71
0
 91
1
 92
3
 72
1
 73
1
 93
4
 10
335.0
 20
-213.90652306056893
 42
0.0
 10
335.0
 20
-180.0
 42
0.0
 10
305.0
 20
-180.0
 42
0.0
 10
305.0
 20
-213.90652306056893
 42
2.5395651292954056
 97
0
 75
0
 76
1
 98
0
  0
CIRCLE
  5
166
330
17
100
AcDbEntity
  8
CONDILO_REF
100
AcDbCircle
 10
320.0
 20
-230.0
 30
0.0
 40
22.0
  0
LWPOLYLINE
  5
167
330
17
100
AcDbEntity
  8
TIBIA_BARRA3
100
AcDbPolyline
 90
8
 70
1
 10
295.16790492207565
 20
-216.32755647970785
 10
304.5449065160899
 20
-269.5071751423671
 10
297.4776040673375
 20
-269.7379046330234
 10
286.24034111587997
 20
-263.595924385595
 10
241.57669587499677
 20
-269.4404768745825
 10
237.06184325565658
 20
-243.83547529626506
 10
281.0308957858721
 20
-234.05169179522878
 10
286.8255796779666
 20
-220.84481333774684
  0
HATCH
  5
168
330
17
100
AcDbEntity
  8
TIBIA_BARRA3
 62
254
100
AcDbHatch
 10
0.0
 20
0.0
 30
0.0
210
0.0
220
0.0
230
1.0
  2
SOLID
 70
1
 71
0
 91
1
 92
3
 72
0
 73
1
 93
8
 10
295.16790492207565
 20
-216.32755647970785
 10
304.5449065160899
 20
-269.5071751423671
 10
297.4776040673375
 20
-269.7379046330234
 10
286.24034111587997
 20
-263.595924385595
 10
241.57669587499677
 20
-269.4404768745825
 10
237.06184325565658
 20
-243.83547529626506
 10
281.0308957858721
 20
-234.05169179522878
 10
286.8255796779666
 20
-220.84481333774684
 97
0
 75
0
 76
1
 98
0
  0
LINE
  5
169
330
17
100
AcDbEntity
  8
ACOPLADOR_AB
100
AcDbLine
 10
289.2542499266048
 20
-251.8947982141261
 30
0.0
 11
293.31245204203
 21
-228.83984222652208
 31
0.0
  0
LINE
  5
16A
330
17
100
AcDbEntity
  8
LCA_BARRA2
100
AcDbLine
 10
318.70425090154765
 20
-222.23484366817414
 30
0.0
 11
289.2542499266048
 21
-251.8947982141261
 31
0.0
  0
LINE
  5
16B
330
17
100
AcDbEntity
  8
LCP_BARRA4
100
AcDbLine
 10
330.51758649629085
 20
-235.40337429251593
 30
0.0
 11
293.31245204203
 21
-228.83984222652208
 31
0.0
  0
LWPOLYLINE
  5
16C
330
17
100
AcDbEntity
  8
PIVOS
100
AcDbPolyline
 90
3
 70
1
 10
318.70425090154765
 20
-222.23484366817414
 10
315.50425090154766
 20
-216.73484366817414
 10
321.90425090154764
 20
-216.73484366817414
  0
LINE
  5
16D
330
17
100
AcDbEntity
  8
PIVOS
100
AcDbLine
 10
314.20425090154765
 20
-216.73484366817414
 30
0.0
 11
323.20425090154765
 21
-216.73484366817414
 31
0.0
  0
LINE
  5
16E
330
17
100
AcDbEntity
  8
PIVOS
100
AcDbLine
 10
314.70425090154765
 20
-216.73484366817414
 30
0.0
 11
316.50425090154766
 21
-214.93484366817412
 31
0.0
  0
LINE
  5
16F
330
17
100
AcDbEntity
  8
PIVOS
100
AcDbLine
 10
317.3042509015477
 20
-216.73484366817414
 30
0.0
 11
319.10425090154763
 21
-214.93484366817412
 31
0.0
  0
LINE
  5
170
330
17
100
AcDbEntity
  8
PIVOS
100
AcDbLine
 10
319.90425090154764
 20
-216.73484366817414
 30
0.0
 11
321.70425090154765
 21
-214.93484366817412
 31
0.0
  0
LINE
  5
171
330
17
100
AcDbEntity
  8
PIVOS
100
AcDbLine
 10
322.50425090154766
 20
-216.73484366817414
 30
0.0
 11
324.3042509015477
 21
-214.93484366817412
 31
0.0
  0
CIRCLE
  5
172
330
17
100
AcDbEntity
  8
PIVOS
100
AcDbCircle
 10
318.70425090154765
 20
-222.23484366817414
 30
0.0
 40
1.6
  0
LINE
  5
173
330
17
100
AcDbEntity
  8
EIXOS
100
AcDbLine
 10
317.7442509015477
 20
-222.23484366817414
 30
0.0
 11
319.66425090154763
 21
-222.23484366817414
 31
0.0
  0
LINE
  5
174
330
17
100
AcDbEntity
  8
EIXOS
100
AcDbLine
 10
318.70425090154765
 20
-223.19484366817414
 30
0.0
 11
318.70425090154765
 21
-221.27484366817413
 31
0.0
  0
LWPOLYLINE
  5
175
330
17
100
AcDbEntity
  8
PIVOS
100
AcDbPolyline
 90
3
 70
1
 10
330.51758649629085
 20
-235.40337429251593
 10
327.31758649629086
 20
-229.90337429251593
 10
333.71758649629083
 20
-229.90337429251593
  0
LINE
  5
176
330
17
100
AcDbEntity
  8
PIVOS
100
AcDbLine
 10
326.01758649629085
 20
-229.90337429251593
 30
0.0
 11
335.01758649629085
 21
-229.90337429251593
 31
0.0
  0
LINE
  5
177
330
17
100
AcDbEntity
  8
PIVOS
100
AcDbLine
 10
326.51758649629085
 20
-229.90337429251593
 30
0.0
 11
328.31758649629086
 21
-228.10337429251592
 31
0.0
  0
LINE
  5
178
330
17
100
AcDbEntity
  8
PIVOS
100
AcDbLine
 10
329.11758649629087
 20
-229.90337429251593
 30
0.0
 11
330.9175864962908
 21
-228.10337429251592
 31
0.0
  0
LINE
  5
179
330
17
100
AcDbEntity
  8
PIVOS
100
AcDbLine
 10
331.71758649629083
 20
-229.90337429251593
 30
0.0
 11
333.51758649629085
 21
-228.10337429251592
 31
0.0
  0
LINE
  5
17A
330
17
100
AcDbEntity
  8
PIVOS
100
AcDbLine
 10
334.31758649629086
 20
-229.90337429251593
 30
0.0
 11
336.11758649629087
 21
-228.10337429251592
 31
0.0
  0
CIRCLE
  5
17B
330
17
100
AcDbEntity
  8
PIVOS
100
AcDbCircle
 10
330.51758649629085
 20
-235.40337429251593
 30
0.0
 40
1.6
  0
LINE
  5
17C
330
17
100
AcDbEntity
  8
EIXOS
100
AcDbLine
 10
329.55758649629087
 20
-235.40337429251593
 30
0.0
 11
331.4775864962908
 21
-235.40337429251593
 31
0.0
  0
LINE
  5
17D
330
17
100
AcDbEntity
  8
EIXOS
100
AcDbLine
 10
330.51758649629085
 20
-236.36337429251594
 30
0.0
 11
330.51758649629085
 21
-234.44337429251593
 31
0.0
  0
CIRCLE
  5
17E
330
17
100
AcDbEntity
  8
PIVOS
100
AcDbCircle
 10
289.2542499266048
 20
-251.8947982141261
 30
0.0
 40
1.6
  0
LINE
  5
17F
330
17
100
AcDbEntity
  8
EIXOS
100
AcDbLine
 10
288.29424992660483
 20
-251.8947982141261
 30
0.0
 11
290.2142499266048
 21
-251.8947982141261
 31
0.0
  0
LINE
  5
180
330
17
100
AcDbEntity
  8
EIXOS
100
AcDbLine
 10
289.2542499266048
 20
-252.8547982141261
 30
0.0
 11
289.2542499266048
 21
-250.9347982141261
 31
0.0
  0
CIRCLE
  5
181
330
17
100
AcDbEntity
  8
PIVOS
100
AcDbCircle
 10
293.31245204203
 20
-228.83984222652208
 30
0.0
 40
1.6
  0
LINE
  5
182
330
17
100
AcDbEntity
  8
EIXOS
100
AcDbLine
 10
292.35245204203
 20
-228.83984222652208
 30
0.0
 11
294.27245204202995
 21
-228.83984222652208
 31
0.0
  0
LINE
  5
183
330
17
100
AcDbEntity
  8
EIXOS
100
AcDbLine
 10
293.31245204203
 20
-229.7998422265221
 30
0.0
 11
293.31245204203
 21
-227.87984222652207
 31
0.0
  0
TEXT
  5
184
330
17
100
AcDbEntity
  8
TEXTO
100
AcDbText
 10
320.0
 20
-318.0
 30
0.0
 40
7.0
  1
phi = 80 graus
  7
CAD
 72
1
 11
320.0
 21
-318.0
 31
0.0
100
AcDbText
 73
2
  0
SPLINE
  5
185
330
17
100
AcDbEntity
  8
CENTROIDE
100
AcDbSpline
 70
0
 71
3
 72
0
 73
0
 74
121
 11
319.7323656356025
 21
-242.40656910268146
 31
0.0
 11
319.5473436875669
 21
-242.34893142154792
 31
0.0
 11
319.3628503288964
 21
-242.28846673046476
 31
0.0
 11
319.1789287409122
 21
-242.22520474160734
 31
0.0
 11
318.99562167245915
 21
-242.15917535556648
 31
0.0
 11
318.8129714404398
 21
-242.09040867675824
 31
0.0
 11
318.6310199292342
 21
-242.01893502763093
 31
0.0
 11
318.4498085890802
 21
-241.9447849616771
 31
0.0
 11
318.26937843348804
 21
-241.86798927526098
 31
0.0
 11
318.0897700357626
 21
-241.7885790182709
 31
0.0
 11
317.91102352470216
 21
-241.70658550360756
 31
0.0
 11
317.7331785795443
 21
-241.62204031552116
 31
0.0
 11
317.55627442422576
 21
-241.53497531680924
 31
0.0
 11
317.3803498210224
 21
-241.4454226548902
 31
0.0
 11
317.2054430636344
 21
-241.35341476676734
 31
0.0
 11
317.03159196977964
 21
-241.25898438290008
 31
0.0
 11
316.85883387335787
 21
-241.16216452999956
 31
0.0
 11
316.6872056162454
 21
-241.06298853276766
 31
0.0
 11
316.516743539781
 21
-240.9614900145996
 31
0.0
 11
316.3474834759997
 21
-240.857702897271
 31
0.0
 11
316.179460738672
 21
-240.7516613996322
 31
0.0
 11
316.01271011420357
 21
-240.64340003533388
 31
0.0
 11
315.84726585244863
 21
-240.53295360960834
 31
0.0
 11
315.68316165749053
 21
-240.42035721513352
 31
0.0
 11
315.5204306784397
 21
-240.30564622700703
 31
0.0
 11
315.3591055002982
 21
-240.1888562968586
 31
0.0
 11
315.19921813493994
 21
-240.0700233461316
 31
0.0
 11
315.0408000122513
 21
-239.949183558564
 31
0.0
 11
314.88388197147856
 21
-239.82637337190147
 31
0.0
 11
314.72849425282385
 21
-239.70162946887564
 31
0.0
 11
314.57466648933166
 21
-239.57498876748187
 31
0.0
 11
314.4224276991059
 21
-239.44648841059146
 31
0.0
 11
314.2718062778948
 21
-239.31616575493484
 31
0.0
 11
314.12282999208054
 21
-239.18405835949227
 31
0.0
 11
313.97552597210705
 21
-239.0502039733299
 31
0.0
 11
313.82992070638016
 21
-238.9146405229193
 31
0.0
 11
313.68604003566895
 21
-238.77740609897987
 31
0.0
 11
313.54390914803867
 21
-238.63853894288272
 31
0.0
 11
313.40355257434146
 21
-238.49807743265717
 31
0.0
 11
313.2649941842903
 21
-238.35606006863893
 31
0.0
 11
313.12825718313974
 21
-238.21252545880105
 31
0.0
 11
312.99336410899383
 21
-238.06751230380868
 31
0.0
 11
312.8603368307625
 21
-237.92105938183778
 31
0.0
 11
312.7291965467821
 21
-237.7732055331993
 31
0.0
 11
312.5999637841175
 21
-237.62398964480923
 31
0.0
 11
312.47265839855964
 21
-237.47345063454551
 31
0.0
 11
312.34729957532977
 21
-237.32162743553212
 31
0.0
 11
312.2239058305025
 21
-237.16855898039063
 31
0.0
 11
312.10249501315536
 21
-237.01428418549887
 31
0.0
 11
311.98308430825307
 21
-236.85884193529657
 31
0.0
 11
311.8656902402713
 21
-236.70227106667616
 31
0.0
 11
311.75032867756505
 21
-236.54461035349772
 31
0.0
 11
311.6370148374835
 21
-236.38589849126558
 31
0.0
 11
311.5257632922336
 21
-236.22617408200335
 31
0.0
 11
311.4165879754913
 21
-236.06547561936407
 31
0.0
 11
311.30950218976074
 21
-235.9038414740108
 31
0.0
 11
311.2045186144769
 21
-235.74130987930255
 31
0.0
 11
311.101649314851
 21
-235.57791891731924
 31
0.0
 11
311.00090575145174
 21
-235.41370650525883
 31
0.0
 11
310.902298790519
 21
-235.2487103822389
 31
0.0
 11
310.80583871500295
 21
-235.08296809653376
 31
0.0
 11
310.71153523632256
 21
-234.91651699327747
 31
0.0
 11
310.6193975068356
 21
-234.7493942026624
 31
0.0
 11
310.5294341330135
 21
-234.5816366286616
 31
0.0
 11
310.4416531893124
 21
-234.4132809383032
 31
0.0
 11
310.35606223273163
 21
-234.24436355152284
 31
0.0
 11
310.27266831805343
 21
-234.0749206316213
 31
0.0
 11
310.1914780137532
 21
-233.90498807635143
 31
0.0
 11
310.1124974185741
 21
-233.73460150965985
 31
0.0
 11
310.03573217875686
 21
-233.56379627410672
 31
0.0
 11
309.96118750591864
 21
-233.39260742398707
 31
0.0
 11
309.88886819557325
 21
-233.2210697191763
 31
0.0
 11
309.81877864628717
 21
-233.0492176197223
 31
0.0
 11
309.75092287946524
 21
-232.8770852812058
 31
0.0
 11
309.6853045597628
 21
-232.70470655089093
 31
0.0
 11
309.6219270161204
 21
-232.5321149646872
 31
0.0
 11
309.56079326341876
 21
-232.35934374494465
 31
0.0
 11
309.5019060247542
 21
-232.18642579910346
 31
0.0
 11
309.4452677543351
 21
-232.0133937192199
 31
0.0
 11
309.3908806610019
 21
-231.840279782391
 31
0.0
 11
309.33874673237574
 21
-231.6671159521007
 31
0.0
 11
309.2888677596417
 21
-231.49393388051016
 31
0.0
 11
309.2412453629765
 21
-231.3207649117183
 31
0.0
 11
309.1958810176306
 21
-231.14764008601625
 31
0.0
 11
309.1527760806802
 21
-230.97459014516394
 31
0.0
 11
309.1119318184643
 21
-230.8016455387166
 31
0.0
 11
309.0733494347277
 21
-230.6288364314318
 31
0.0
 11
309.03703009949203
 21
-230.4561927117892
 31
0.0
 11
309.00297497868274
 21
-230.2837440016581
 31
0.0
 11
308.97118526453994
 21
-230.11151966714996
 31
0.0
 11
308.9416622068497
 21
-229.93954883069674
 31
0.0
 11
308.91440714503244
 21
-229.76786038439909
 31
0.0
 11
308.8894215411329
 21
-229.596483004692
 31
0.0
 11
308.8667070137585
 21
-229.42544516838026
 31
0.0
 11
308.8462653730205
 21
-229.25477517010026
 31
0.0
 11
308.8280986565356
 21
-229.0845011412704
 31
0.0
 11
308.8122091665543
 21
-228.914651070598
 31
0.0
 11
308.7985995082866
 21
-228.74525282621659
 31
0.0
 11
308.78727262950395
 21
-228.57633417953494
 31
0.0
 11
308.77823186150306
 21
-228.40792283088737
 31
0.0
 11
308.7714809615265
 21
-228.2400464370818
 31
0.0
 11
308.7670241567416
 21
-228.07273264095355
 31
0.0
 11
308.76486618989134
 21
-227.90600910304147
 31
0.0
 11
308.7650123667382
 21
-227.73990353551542
 31
0.0
 11
308.7674686054352
 21
-227.57444373849597
 31
0.0
 11
308.7722414879692
 21
-227.40965763892143
 31
0.0
 11
308.7793383138334
 21
-227.24557333213238
 31
0.0
 11
308.7887671561026
 21
-227.08221912636017
 31
0.0
 11
308.80053692009636
 21
-226.91962359032473
 31
0.0
 11
308.814657404835
 21
-226.75781560416718
 31
0.0
 11
308.83113936750823
 21
-226.59682441396453
 31
0.0
 11
308.8499945911982
 21
-226.4366796900996
 31
0.0
 11
308.8712359561171
 21
-226.2774115897849
 31
0.0
 11
308.89487751464566
 21
-226.11905082407077
 31
0.0
 11
308.920934570481
 21
-225.96162872970058
 31
0.0
 11
308.9494237622326
 21
-225.80517734621256
 31
0.0
 11
308.98036315183225
 21
-225.64972949872907
 31
0.0
 11
309.0137723181602
 21
-225.49531888691908
 31
0.0
 11
309.04967245632275
 21
-225.34198018067
 31
0.0
 11
309.08808648305836
 21
-225.1897491230607
 31
0.0
 11
309.12903914879234
 21
-225.03866264128996
 31
0.0
  0
LWPOLYLINE
  5
186
330
17
100
AcDbEntity
  8
FEMUR
100
AcDbPolyline
 90
4
 70
1
 10
495.0
 20
-213.90652306056893
 10
495.0
 20
-180.0
 10
465.0
 20
-180.0
 10
465.0
 20
-213.90652306056893
 42
2.5395651292954056
  0
HATCH
  5
187
330
17
100
AcDbEntity
  8
FEMUR
 62
254
100
AcDbHatch
 10
0.0
 20
0.0
 30
0.0
210
0.0
220
0.0
230
1.0
  2
SOLID
 70
1
 71
0
 91
1
 92
3
 72
1
 73
1
 93
4
 10
495.0
 20
-213.90652306056893
 42
0.0
 10
495.0
 20
-180.0
 42
0.0
 10
465.0
 20
-180.0
 42
0.0
 10
465.0
 20
-213.90652306056893
 42
2.5395651292954056
 97
0
 75
0
 76
1
 98
0
  0
CIRCLE
  5
188
330
17
100
AcDbEntity
  8
CONDILO_REF
100
AcDbCircle
 10
480.0
 20
-230.0
 30
0.0
 40
22.0
  0
LWPOLYLINE
  5
189
330
17
100
AcDbEntity
  8
TIBIA_BARRA3
100
AcDbPolyline
 90
8
 70
1
 10
465.9835987573364
 20
-210.53587891065916
 10
438.9835987573364
 20
-257.30125071501885
 10
433.42142093084533
 20
-252.93522531123443
 10
428.7611668930009
 20
-241.0070220809589
 10
390.79002372270116
 20
-216.77497127339004
 10
403.79002372270116
 20
-194.25831077499464
 10
443.7611668930009
 20
-215.02625996742574
 10
456.68937012327643
 20
-208.63395512201248
  0
HATCH
  5
18A
330
17
100
AcDbEntity
  8
TIBIA_BARRA3
 62
254
100
AcDbHatch
 10
0.0
 20
0.0
 30
0.0
210
0.0
220
0.0
230
1.0
  2
SOLID
 70
1
 71
0
 91
1
 92
3
 72
0
 73
1
 93
8
 10
465.9835987573364
 20
-210.53587891065916
 10
438.9835987573364
 20
-257.30125071501885
 10
433.42142093084533
 20
-252.93522531123443
 10
428.7611668930009
 20
-241.0070220809589
 10
390.79002372270116
 20
-216.77497127339004
 10
403.79002372270116
 20
-194.25831077499464
 10
443.7611668930009
 20
-215.02625996742574
 10
456.68937012327643
 20
-208.63395512201248
 97
0
 75
0
 76
1
 98
0
  0
LINE
  5
18B
330
17
100
AcDbEntity
  8
ACOPLADOR_AB
100
AcDbLine
 10
438.5912939119231
 20
-233.9807426393301
 30
0.0
 11
456.5194971421986
 21
-218.92818375607243
 31
0.0
  0
LINE
  5
18C
330
17
100
AcDbEntity
  8
LCA_BARRA2
100
AcDbLine
 10
478.70425090154765
 20
-222.23484366817414
 30
0.0
 11
438.5912939119231
 21
-233.9807426393301
 31
0.0
  0
LINE
  5
18D
330
17
100
AcDbEntity
  8
LCP_BARRA4
100
AcDbLine
 10
490.51758649629085
 20
-235.40337429251593
 30
0.0
 11
456.5194971421986
 21
-218.92818375607243
 31
0.0
  0
LWPOLYLINE
  5
18E
330
17
100
AcDbEntity
  8
PIVOS
100
AcDbPolyline
 90
3
 70
1
 10
478.70425090154765
 20
-222.23484366817414
 10
475.50425090154766
 20
-216.73484366817414
 10
481.90425090154764
 20
-216.73484366817414
  0
LINE
  5
18F
330
17
100
AcDbEntity
  8
PIVOS
100
AcDbLine
 10
474.20425090154765
 20
-216.73484366817414
 30
0.0
 11
483.20425090154765
 21
-216.73484366817414
 31
0.0
  0
LINE
  5
190
330
17
100
AcDbEntity
  8
PIVOS
100
AcDbLine
 10
474.70425090154765
 20
-216.73484366817414
 30
0.0
 11
476.50425090154766
 21
-214.93484366817412
 31
0.0
  0
LINE
  5
191
330
17
100
AcDbEntity
  8
PIVOS
100
AcDbLine
 10
477.3042509015477
 20
-216.73484366817414
 30
0.0
 11
479.10425090154763
 21
-214.93484366817412
 31
0.0
  0
LINE
  5
192
330
17
100
AcDbEntity
  8
PIVOS
100
AcDbLine
 10
479.90425090154764
 20
-216.73484366817414
 30
0.0
 11
481.70425090154765
 21
-214.93484366817412
 31
0.0
  0
LINE
  5
193
330
17
100
AcDbEntity
  8
PIVOS
100
AcDbLine
 10
482.50425090154766
 20
-216.73484366817414
 30
0.0
 11
484.3042509015477
 21
-214.93484366817412
 31
0.0
  0
CIRCLE
  5
194
330
17
100
AcDbEntity
  8
PIVOS
100
AcDbCircle
 10
478.70425090154765
 20
-222.23484366817414
 30
0.0
 40
1.6
  0
LINE
  5
195
330
17
100
AcDbEntity
  8
EIXOS
100
AcDbLine
 10
477.7442509015477
 20
-222.23484366817414
 30
0.0
 11
479.66425090154763
 21
-222.23484366817414
 31
0.0
  0
LINE
  5
196
330
17
100
AcDbEntity
  8
EIXOS
100
AcDbLine
 10
478.70425090154765
 20
-223.19484366817414
 30
0.0
 11
478.70425090154765
 21
-221.27484366817413
 31
0.0
  0
LWPOLYLINE
  5
197
330
17
100
AcDbEntity
  8
PIVOS
100
AcDbPolyline
 90
3
 70
1
 10
490.51758649629085
 20
-235.40337429251593
 10
487.31758649629086
 20
-229.90337429251593
 10
493.71758649629083
 20
-229.90337429251593
  0
LINE
  5
198
330
17
100
AcDbEntity
  8
PIVOS
100
AcDbLine
 10
486.01758649629085
 20
-229.90337429251593
 30
0.0
 11
495.01758649629085
 21
-229.90337429251593
 31
0.0
  0
LINE
  5
199
330
17
100
AcDbEntity
  8
PIVOS
100
AcDbLine
 10
486.51758649629085
 20
-229.90337429251593
 30
0.0
 11
488.31758649629086
 21
-228.10337429251592
 31
0.0
  0
LINE
  5
19A
330
17
100
AcDbEntity
  8
PIVOS
100
AcDbLine
 10
489.11758649629087
 20
-229.90337429251593
 30
0.0
 11
490.9175864962908
 21
-228.10337429251592
 31
0.0
  0
LINE
  5
19B
330
17
100
AcDbEntity
  8
PIVOS
100
AcDbLine
 10
491.71758649629083
 20
-229.90337429251593
 30
0.0
 11
493.51758649629085
 21
-228.10337429251592
 31
0.0
  0
LINE
  5
19C
330
17
100
AcDbEntity
  8
PIVOS
100
AcDbLine
 10
494.31758649629086
 20
-229.90337429251593
 30
0.0
 11
496.11758649629087
 21
-228.10337429251592
 31
0.0
  0
CIRCLE
  5
19D
330
17
100
AcDbEntity
  8
PIVOS
100
AcDbCircle
 10
490.51758649629085
 20
-235.40337429251593
 30
0.0
 40
1.6
  0
LINE
  5
19E
330
17
100
AcDbEntity
  8
EIXOS
100
AcDbLine
 10
489.55758649629087
 20
-235.40337429251593
 30
0.0
 11
491.4775864962908
 21
-235.40337429251593
 31
0.0
  0
LINE
  5
19F
330
17
100
AcDbEntity
  8
EIXOS
100
AcDbLine
 10
490.51758649629085
 20
-236.36337429251594
 30
0.0
 11
490.51758649629085
 21
-234.44337429251593
 31
0.0
  0
CIRCLE
  5
1A0
330
17
100
AcDbEntity
  8
PIVOS
100
AcDbCircle
 10
438.5912939119231
 20
-233.9807426393301
 30
0.0
 40
1.6
  0
LINE
  5
1A1
330
17
100
AcDbEntity
  8
EIXOS
100
AcDbLine
 10
437.63129391192314
 20
-233.9807426393301
 30
0.0
 11
439.5512939119231
 21
-233.9807426393301
 31
0.0
  0
LINE
  5
1A2
330
17
100
AcDbEntity
  8
EIXOS
100
AcDbLine
 10
438.5912939119231
 20
-234.9407426393301
 30
0.0
 11
438.5912939119231
 21
-233.02074263933008
 31
0.0
  0
CIRCLE
  5
1A3
330
17
100
AcDbEntity
  8
PIVOS
100
AcDbCircle
 10
456.5194971421986
 20
-218.92818375607243
 30
0.0
 40
1.6
  0
LINE
  5
1A4
330
17
100
AcDbEntity
  8
EIXOS
100
AcDbLine
 10
455.5594971421986
 20
-218.92818375607243
 30
0.0
 11
457.47949714219857
 21
-218.92818375607243
 31
0.0
  0
LINE
  5
1A5
330
17
100
AcDbEntity
  8
EIXOS
100
AcDbLine
 10
456.5194971421986
 20
-219.88818375607244
 30
0.0
 11
456.5194971421986
 21
-217.96818375607242
 31
0.0
  0
TEXT
  5
1A6
330
17
100
AcDbEntity
  8
TEXTO
100
AcDbText
 10
480.0
 20
-318.0
 30
0.0
 40
7.0
  1
phi = 120 graus
  7
CAD
 72
1
 11
480.0
 21
-318.0
 31
0.0
100
AcDbText
 73
2
  0
SPLINE
  5
1A7
330
17
100
AcDbEntity
  8
CENTROIDE
100
AcDbSpline
 70
0
 71
3
 72
0
 73
0
 74
121
 11
479.7323656356025
 21
-242.40656910268146
 31
0.0
 11
479.5473436875669
 21
-242.34893142154792
 31
0.0
 11
479.3628503288964
 21
-242.28846673046476
 31
0.0
 11
479.1789287409122
 21
-242.22520474160734
 31
0.0
 11
478.99562167245915
 21
-242.15917535556648
 31
0.0
 11
478.8129714404398
 21
-242.09040867675824
 31
0.0
 11
478.6310199292342
 21
-242.01893502763093
 31
0.0
 11
478.4498085890802
 21
-241.9447849616771
 31
0.0
 11
478.26937843348804
 21
-241.86798927526098
 31
0.0
 11
478.0897700357626
 21
-241.7885790182709
 31
0.0
 11
477.91102352470216
 21
-241.70658550360756
 31
0.0
 11
477.7331785795443
 21
-241.62204031552116
 31
0.0
 11
477.55627442422576
 21
-241.53497531680924
 31
0.0
 11
477.3803498210224
 21
-241.4454226548902
 31
0.0
 11
477.2054430636344
 21
-241.35341476676734
 31
0.0
 11
477.03159196977964
 21
-241.25898438290008
 31
0.0
 11
476.85883387335787
 21
-241.16216452999956
 31
0.0
 11
476.6872056162454
 21
-241.06298853276766
 31
0.0
 11
476.516743539781
 21
-240.9614900145996
 31
0.0
 11
476.3474834759997
 21
-240.857702897271
 31
0.0
 11
476.179460738672
 21
-240.7516613996322
 31
0.0
 11
476.01271011420357
 21
-240.64340003533388
 31
0.0
 11
475.84726585244863
 21
-240.53295360960834
 31
0.0
 11
475.68316165749053
 21
-240.42035721513352
 31
0.0
 11
475.5204306784397
 21
-240.30564622700703
 31
0.0
 11
475.3591055002982
 21
-240.1888562968586
 31
0.0
 11
475.19921813493994
 21
-240.0700233461316
 31
0.0
 11
475.0408000122513
 21
-239.949183558564
 31
0.0
 11
474.88388197147856
 21
-239.82637337190147
 31
0.0
 11
474.72849425282385
 21
-239.70162946887564
 31
0.0
 11
474.57466648933166
 21
-239.57498876748187
 31
0.0
 11
474.4224276991059
 21
-239.44648841059146
 31
0.0
 11
474.2718062778948
 21
-239.31616575493484
 31
0.0
 11
474.12282999208054
 21
-239.18405835949227
 31
0.0
 11
473.97552597210705
 21
-239.0502039733299
 31
0.0
 11
473.82992070638016
 21
-238.9146405229193
 31
0.0
 11
473.68604003566895
 21
-238.77740609897987
 31
0.0
 11
473.54390914803867
 21
-238.63853894288272
 31
0.0
 11
473.40355257434146
 21
-238.49807743265717
 31
0.0
 11
473.2649941842903
 21
-238.35606006863893
 31
0.0
 11
473.12825718313974
 21
-238.21252545880105
 31
0.0
 11
472.99336410899383
 21
-238.06751230380868
 31
0.0
 11
472.8603368307625
 21
-237.92105938183778
 31
0.0
 11
472.7291965467821
 21
-237.7732055331993
 31
0.0
 11
472.5999637841175
 21
-237.62398964480923
 31
0.0
 11
472.47265839855964
 21
-237.47345063454551
 31
0.0
 11
472.34729957532977
 21
-237.32162743553212
 31
0.0
 11
472.2239058305025
 21
-237.16855898039063
 31
0.0
 11
472.10249501315536
 21
-237.01428418549887
 31
0.0
 11
471.98308430825307
 21
-236.85884193529657
 31
0.0
 11
471.8656902402713
 21
-236.70227106667616
 31
0.0
 11
471.75032867756505
 21
-236.54461035349772
 31
0.0
 11
471.6370148374835
 21
-236.38589849126558
 31
0.0
 11
471.5257632922336
 21
-236.22617408200335
 31
0.0
 11
471.4165879754913
 21
-236.06547561936407
 31
0.0
 11
471.30950218976074
 21
-235.9038414740108
 31
0.0
 11
471.2045186144769
 21
-235.74130987930255
 31
0.0
 11
471.101649314851
 21
-235.57791891731924
 31
0.0
 11
471.00090575145174
 21
-235.41370650525883
 31
0.0
 11
470.902298790519
 21
-235.2487103822389
 31
0.0
 11
470.80583871500295
 21
-235.08296809653376
 31
0.0
 11
470.71153523632256
 21
-234.91651699327747
 31
0.0
 11
470.6193975068356
 21
-234.7493942026624
 31
0.0
 11
470.5294341330135
 21
-234.5816366286616
 31
0.0
 11
470.4416531893124
 21
-234.4132809383032
 31
0.0
 11
470.35606223273163
 21
-234.24436355152284
 31
0.0
 11
470.27266831805343
 21
-234.0749206316213
 31
0.0
 11
470.1914780137532
 21
-233.90498807635143
 31
0.0
 11
470.1124974185741
 21
-233.73460150965985
 31
0.0
 11
470.03573217875686
 21
-233.56379627410672
 31
0.0
 11
469.96118750591864
 21
-233.39260742398707
 31
0.0
 11
469.88886819557325
 21
-233.2210697191763
 31
0.0
 11
469.81877864628717
 21
-233.0492176197223
 31
0.0
 11
469.75092287946524
 21
-232.8770852812058
 31
0.0
 11
469.6853045597628
 21
-232.70470655089093
 31
0.0
 11
469.6219270161204
 21
-232.5321149646872
 31
0.0
 11
469.56079326341876
 21
-232.35934374494465
 31
0.0
 11
469.5019060247542
 21
-232.18642579910346
 31
0.0
 11
469.4452677543351
 21
-232.0133937192199
 31
0.0
 11
469.3908806610019
 21
-231.840279782391
 31
0.0
 11
469.33874673237574
 21
-231.6671159521007
 31
0.0
 11
469.2888677596417
 21
-231.49393388051016
 31
0.0
 11
469.2412453629765
 21
-231.3207649117183
 31
0.0
 11
469.1958810176306
 21
-231.14764008601625
 31
0.0
 11
469.1527760806802
 21
-230.97459014516394
 31
0.0
 11
469.1119318184643
 21
-230.8016455387166
 31
0.0
 11
469.0733494347277
 21
-230.6288364314318
 31
0.0
 11
469.03703009949203
 21
-230.4561927117892
 31
0.0
 11
469.00297497868274
 21
-230.2837440016581
 31
0.0
 11
468.97118526453994
 21
-230.11151966714996
 31
0.0
 11
468.9416622068497
 21
-229.93954883069674
 31
0.0
 11
468.91440714503244
 21
-229.76786038439909
 31
0.0
 11
468.8894215411329
 21
-229.596483004692
 31
0.0
 11
468.8667070137585
 21
-229.42544516838026
 31
0.0
 11
468.8462653730205
 21
-229.25477517010026
 31
0.0
 11
468.8280986565356
 21
-229.0845011412704
 31
0.0
 11
468.8122091665543
 21
-228.914651070598
 31
0.0
 11
468.7985995082866
 21
-228.74525282621659
 31
0.0
 11
468.78727262950395
 21
-228.57633417953494
 31
0.0
 11
468.77823186150306
 21
-228.40792283088737
 31
0.0
 11
468.7714809615265
 21
-228.2400464370818
 31
0.0
 11
468.7670241567416
 21
-228.07273264095355
 31
0.0
 11
468.76486618989134
 21
-227.90600910304147
 31
0.0
 11
468.7650123667382
 21
-227.73990353551542
 31
0.0
 11
468.7674686054352
 21
-227.57444373849597
 31
0.0
 11
468.7722414879692
 21
-227.40965763892143
 31
0.0
 11
468.7793383138334
 21
-227.24557333213238
 31
0.0
 11
468.7887671561026
 21
-227.08221912636017
 31
0.0
 11
468.80053692009636
 21
-226.91962359032473
 31
0.0
 11
468.814657404835
 21
-226.75781560416718
 31
0.0
 11
468.83113936750823
 21
-226.59682441396453
 31
0.0
 11
468.8499945911982
 21
-226.4366796900996
 31
0.0
 11
468.8712359561171
 21
-226.2774115897849
 31
0.0
 11
468.89487751464566
 21
-226.11905082407077
 31
0.0
 11
468.920934570481
 21
-225.96162872970058
 31
0.0
 11
468.9494237622326
 21
-225.80517734621256
 31
0.0
 11
468.98036315183225
 21
-225.64972949872907
 31
0.0
 11
469.0137723181602
 21
-225.49531888691908
 31
0.0
 11
469.04967245632275
 21
-225.34198018067
 31
0.0
 11
469.08808648305836
 21
-225.1897491230607
 31
0.0
 11
469.12903914879234
 21
-225.03866264128996
 31
0.0
  0
ENDSEC
  0
SECTION
  2
OBJECTS
  0
DICTIONARY
  5
A
330
0
100
AcDbDictionary
281
1
  3
ACAD_COLOR
350
B
  3
ACAD_GROUP
350
C
  3
ACAD_LAYOUT
350
D
  3
ACAD_MATERIAL
350
E
  3
ACAD_MLEADERSTYLE
350
F
  3
ACAD_MLINESTYLE
350
10
  3
ACAD_PLOTSETTINGS
350
11
  3
ACAD_PLOTSTYLENAME
350
12
  3
ACAD_SCALELIST
350
14
  3
ACAD_TABLESTYLE
350
15
  3
ACAD_VISUALSTYLE
350
16
  3
EZDXF_META
350
2D
  0
DICTIONARY
  5
B
330
A
100
AcDbDictionary
281
1
  0
DICTIONARY
  5
C
330
A
100
AcDbDictionary
281
1
  0
DICTIONARY
  5
D
330
A
100
AcDbDictionary
281
1
  3
Model
350
1A
  3
Layout1
350
1E
  3
A3
350
1AB
  0
DICTIONARY
  5
E
330
A
100
AcDbDictionary
281
1
  3
ByBlock
350
1F
  3
ByLayer
350
20
  3
Global
350
21
  0
DICTIONARY
  5
F
330
A
100
AcDbDictionary
281
1
  3
Standard
350
2C
  0
DICTIONARY
  5
10
330
A
100
AcDbDictionary
281
1
  3
Standard
350
22
  0
DICTIONARY
  5
11
330
A
100
AcDbDictionary
281
1
  0
ACDBDICTIONARYWDFLT
  5
12
330
A
100
AcDbDictionary
281
1
  3
Normal
350
13
100
AcDbDictionaryWithDefault
340
13
  0
ACDBPLACEHOLDER
  5
13
330
12
  0
DICTIONARY
  5
14
330
A
100
AcDbDictionary
281
1
  0
DICTIONARY
  5
15
330
A
100
AcDbDictionary
281
1
  0
DICTIONARY
  5
16
330
A
100
AcDbDictionary
281
1
  3
2dWireframe
350
5A
  3
Basic
350
5B
  3
Brighten
350
5C
  3
ColorChange
350
5D
  3
Conceptual
350
5E
  3
Dim
350
5F
  3
EdgeColorOff
350
60
  3
Facepattern
350
61
  3
Flat
350
62
  3
FlatWithEdges
350
63
  3
Gouraud
350
64
  3
GouraudWithEdges
350
65
  3
Hidden
350
66
  3
JitterOff
350
67
  3
Linepattern
350
68
  3
Modeling
350
69
  3
OverhangOff
350
6A
  3
Realistic
350
6B
  3
Shaded
350
6C
  3
Shaded with edges
350
6D
  3
Shades of Gray
350
6E
  3
Sketchy
350
6F
  3
Thicken
350
70
  3
Wireframe
350
71
  3
X-Ray
350
72
  0
LAYOUT
  5
1A
330
D
100
AcDbPlotSettings
  1

  4
A3
  6

 40
7.5
 41
20.0
 42
7.5
 43
20.0
 44
420.0
 45
297.0
 46
0.0
 47
0.0
 48
0.0
 49
0.0
140
0.0
141
0.0
142
1.0
143
1.0
 70
1024
 72
1
 73
0
 74
5
  7

 75
16
 76
0
 77
2
 78
300
147
1.0
148
0.0
149
0.0
100
AcDbLayout
  1
Model
 70
1
 71
0
 10
0.0
 20
0.0
 11
420.0
 21
297.0
 12
0.0
 22
0.0
 32
0.0
 14
1e+20
 24
1e+20
 34
1e+20
 15
-1e+20
 25
-1e+20
 35
-1e+20
146
0.0
 13
0.0
 23
0.0
 33
0.0
 16
1.0
 26
0.0
 36
0.0
 17
0.0
 27
1.0
 37
0.0
 76
1
330
17
  0
LAYOUT
  5
1E
330
D
100
AcDbPlotSettings
  1

  4
A3
  6

 40
7.5
 41
20.0
 42
7.5
 43
20.0
 44
420.0
 45
297.0
 46
0.0
 47
0.0
 48
0.0
 49
0.0
140
0.0
141
0.0
142
1.0
143
1.0
 70
0
 72
1
 73
0
 74
5
  7

 75
16
 76
0
 77
2
 78
300
147
1.0
148
0.0
149
0.0
100
AcDbLayout
  1
Layout1
 70
1
 71
1
 10
0.0
 20
0.0
 11
420.0
 21
297.0
 12
0.0
 22
0.0
 32
0.0
 14
1e+20
 24
1e+20
 34
1e+20
 15
-1e+20
 25
-1e+20
 35
-1e+20
146
0.0
 13
0.0
 23
0.0
 33
0.0
 16
1.0
 26
0.0
 36
0.0
 17
0.0
 27
1.0
 37
0.0
 76
1
330
1B
  0
MATERIAL
  5
1F
102
{ACAD_REACTORS
330
E
102
}
330
E
100
AcDbMaterial
  1
ByBlock
  2

 70
0
 40
1.0
 71
1
 41
1.0
 91
-1023410177
 42
1.0
 72
1
  3

 73
1
 74
1
 75
1
 44
0.5
 73
0
 45
1.0
 46
1.0
 77
1
  4

 78
1
 79
1
170
1
 48
1.0
171
1
  6

172
1
173
1
174
1
140
1.0
141
1.0
175
1
  7

176
1
177
1
178
1
143
1.0
179
1
  8

270
1
271
1
272
1
145
1.0
146
1.0
273
1
  9

274
1
275
1
276
1
 42
1.0
 72
1
  3

 73
1
 74
1
 75
1
 94
63
  0
MATERIAL
  5
20
102
{ACAD_REACTORS
330
E
102
}
330
E
100
AcDbMaterial
  1
ByLayer
  2

 70
0
 40
1.0
 71
1
 41
1.0
 91
-1023410177
 42
1.0
 72
1
  3

 73
1
 74
1
 75
1
 44
0.5
 73
0
 45
1.0
 46
1.0
 77
1
  4

 78
1
 79
1
170
1
 48
1.0
171
1
  6

172
1
173
1
174
1
140
1.0
141
1.0
175
1
  7

176
1
177
1
178
1
143
1.0
179
1
  8

270
1
271
1
272
1
145
1.0
146
1.0
273
1
  9

274
1
275
1
276
1
 42
1.0
 72
1
  3

 73
1
 74
1
 75
1
 94
63
  0
MATERIAL
  5
21
102
{ACAD_REACTORS
330
E
102
}
330
E
100
AcDbMaterial
  1
Global
  2

 70
0
 40
1.0
 71
1
 41
1.0
 91
-1023410177
 42
1.0
 72
1
  3

 73
1
 74
1
 75
1
 44
0.5
 73
0
 45
1.0
 46
1.0
 77
1
  4

 78
1
 79
1
170
1
 48
1.0
171
1
  6

172
1
173
1
174
1
140
1.0
141
1.0
175
1
  7

176
1
177
1
178
1
143
1.0
179
1
  8

270
1
271
1
272
1
145
1.0
146
1.0
273
1
  9

274
1
275
1
276
1
 42
1.0
 72
1
  3

 73
1
 74
1
 75
1
 94
63
  0
MLINESTYLE
  5
22
102
{ACAD_REACTORS
330
10
102
}
330
10
100
AcDbMlineStyle
  2
Standard
 70
0
  3

 62
256
 51
90.0
 52
90.0
 71
2
 49
0.5
 62
256
  6
BYLAYER
 49
-0.5
 62
256
  6
BYLAYER
  0
MLEADERSTYLE
  5
2C
102
{ACAD_REACTORS
330
F
102
}
330
F
100
AcDbMLeaderStyle
179
2
170
2
171
1
172
0
 90
2
 40
0.0
 41
0.0
173
1
 91
-1056964608
 92
-2
290
1
 42
2.0
291
1
 43
8.0
  3
Standard
 44
4.0
300

342
29
174
1
175
1
176
0
178
1
 93
-1056964608
 45
4.0
292
0
297
0
 46
4.0
 94
-1056964608
 47
1.0
 49
1.0
140
1.0
294
1
141
0.0
177
0
142
1.0
295
0
296
0
143
3.75
271
0
272
9
273
9
  0
DICTIONARY
  5
2D
330
A
100
AcDbDictionary
280
1
281
1
  3
CREATED_BY_EZDXF
350
2E
  3
WRITTEN_BY_EZDXF
350
21C
  0
DICTIONARYVAR
  5
2E
330
2D
100
DictionaryVariables
280
0
  1
1.4.4 @ 2026-10-03T16:05:50.634284+00:00
  0
VISUALSTYLE
  5
5A
102
{ACAD_REACTORS
330
16
102
}
330
16
100
AcDbVisualStyle
  2
2dWireframe
 70
4
 90
0
 40
0.6
 62
7
290
0
291
0
  0
VISUALSTYLE
  5
5B
102
{ACAD_REACTORS
330
16
102
}
330
16
100
AcDbVisualStyle
  2
Basic
 70
7
 90
1
 40
0.6
 62
7
290
0
291
1
  0
VISUALSTYLE
  5
5C
102
{ACAD_REACTORS
330
16
102
}
330
16
100
AcDbVisualStyle
  2
Brighten
 70
12
 90
2
 40
0.6
 62
7
290
0
291
1
  0
VISUALSTYLE
  5
5D
102
{ACAD_REACTORS
330
16
102
}
330
16
100
AcDbVisualStyle
  2
ColorChange
 70
16
 90
2
 40
0.6
 62
8
290
0
291
1
  0
VISUALSTYLE
  5
5E
102
{ACAD_REACTORS
330
16
102
}
330
16
100
AcDbVisualStyle
  2
Conceptual
 70
9
 90
3
 40
0.6
 62
7
290
0
291
0
  0
VISUALSTYLE
  5
5F
102
{ACAD_REACTORS
330
16
102
}
330
16
100
AcDbVisualStyle
  2
Dim
 70
11
 90
2
 40
0.6
 62
7
290
0
291
1
  0
VISUALSTYLE
  5
60
102
{ACAD_REACTORS
330
16
102
}
330
16
100
AcDbVisualStyle
  2
EdgeColorOff
 70
22
 90
2
 40
0.6
 62
7
290
0
291
1
  0
VISUALSTYLE
  5
61
102
{ACAD_REACTORS
330
16
102
}
330
16
100
AcDbVisualStyle
  2
Facepattern
 70
15
 90
2
 40
0.6
 62
7
290
0
291
1
  0
VISUALSTYLE
  5
62
102
{ACAD_REACTORS
330
16
102
}
330
16
100
AcDbVisualStyle
  2
Flat
 70
0
 90
2
 40
0.6
 62
7
290
0
291
1
  0
VISUALSTYLE
  5
63
102
{ACAD_REACTORS
330
16
102
}
330
16
100
AcDbVisualStyle
  2
FlatWithEdges
 70
1
 90
2
 40
0.6
 62
7
290
0
291
1
  0
VISUALSTYLE
  5
64
102
{ACAD_REACTORS
330
16
102
}
330
16
100
AcDbVisualStyle
  2
Gouraud
 70
2
 90
2
 40
0.6
 62
7
290
0
291
1
  0
VISUALSTYLE
  5
65
102
{ACAD_REACTORS
330
16
102
}
330
16
100
AcDbVisualStyle
  2
GouraudWithEdges
 70
3
 90
2
 40
0.6
 62
7
290
0
291
1
  0
VISUALSTYLE
  5
66
102
{ACAD_REACTORS
330
16
102
}
330
16
100
AcDbVisualStyle
  2
Hidden
 70
6
 90
1
 40
0.6
 62
7
290
0
291
0
  0
VISUALSTYLE
  5
67
102
{ACAD_REACTORS
330
16
102
}
330
16
100
AcDbVisualStyle
  2
JitterOff
 70
20
 90
2
 40
0.6
 62
7
290
0
291
1
  0
VISUALSTYLE
  5
68
102
{ACAD_REACTORS
330
16
102
}
330
16
100
AcDbVisualStyle
  2
Linepattern
 70
14
 90
2
 40
0.6
 62
7
290
0
291
1
  0
VISUALSTYLE
  5
69
102
{ACAD_REACTORS
330
16
102
}
330
16
100
AcDbVisualStyle
  2
Modeling
 70
10
 90
2
 40
0.6
 62
7
290
0
291
0
  0
VISUALSTYLE
  5
6A
102
{ACAD_REACTORS
330
16
102
}
330
16
100
AcDbVisualStyle
  2
OverhangOff
 70
21
 90
2
 40
0.6
 62
7
290
0
291
1
  0
VISUALSTYLE
  5
6B
102
{ACAD_REACTORS
330
16
102
}
330
16
100
AcDbVisualStyle
  2
Realistic
 70
8
 90
2
 40
0.6
 62
7
290
0
291
0
  0
VISUALSTYLE
  5
6C
102
{ACAD_REACTORS
330
16
102
}
330
16
100
AcDbVisualStyle
  2
Shaded
 70
27
 90
2
 40
0.6
 62
7
290
0
291
0
  0
VISUALSTYLE
  5
6D
102
{ACAD_REACTORS
330
16
102
}
330
16
100
AcDbVisualStyle
  2
Shaded with edges
 70
26
 90
2
 40
0.6
 62
7
290
0
291
0
  0
VISUALSTYLE
  5
6E
102
{ACAD_REACTORS
330
16
102
}
330
16
100
AcDbVisualStyle
  2
Shades of Gray
 70
23
 90
2
 40
0.6
 62
7
290
0
291
0
  0
VISUALSTYLE
  5
6F
102
{ACAD_REACTORS
330
16
102
}
330
16
100
AcDbVisualStyle
  2
Sketchy
 70
24
 90
1
 40
0.6
 62
7
290
0
291
0
  0
VISUALSTYLE
  5
70
102
{ACAD_REACTORS
330
16
102
}
330
16
100
AcDbVisualStyle
  2
Thicken
 70
13
 90
2
 40
0.6
 62
7
290
0
291
1
  0
VISUALSTYLE
  5
71
102
{ACAD_REACTORS
330
16
102
}
330
16
100
AcDbVisualStyle
  2
Wireframe
 70
5
 90
0
 40
0.6
 62
7
290
0
291
0
  0
VISUALSTYLE
  5
72
102
{ACAD_REACTORS
330
16
102
}
330
16
100
AcDbVisualStyle
  2
X-Ray
 70
25
 90
2
 40
0.5
 62
7
290
0
291
0
  0
LAYOUT
  5
1AB
330
D
100
AcDbPlotSettings
  1

  2
DWG to PDF.pc3
  4
ezdxf_(420.00_x_297.00_MM)
  6

 40
0.0
 41
0.0
 42
0.0
 43
0.0
 44
420.0
 45
297.0
 46
0.0
 47
0.0
 48
0.0
 49
0.0
140
0.0
141
0.0
142
1.0
143
1.0
 70
672
 72
1
 73
0
 74
5
  7

 75
16
 76
0
 77
2
 78
300
147
1.0
148
0.0
149
0.0
100
AcDbLayout
  1
A3
 70
1
 71
3
 10
-0.0
 20
-0.0
 11
420.0
 21
297.0
 12
0.0
 22
0.0
 32
0.0
 14
1e+20
 24
1e+20
 34
1e+20
 15
-1e+20
 25
-1e+20
 35
-1e+20
146
0.0
 13
0.0
 23
0.0
 33
0.0
 16
1.0
 26
0.0
 36
0.0
 17
0.0
 27
1.0
 37
0.0
 76
1
330
1A8
331
1AC
  0
DICTIONARYVAR
  5
21C
330
2D
100
DictionaryVariables
280
0
  1
1.4.4 @ 2026-10-03T16:05:50.652054+00:00
  0
ENDSEC
  0
EOF
